<svg width="268" height="255" viewBox="0 0 268 255" fill="none" xmlns="http://www.w3.org/2000/svg">
<g filter="url(#filter0_d_1202_735)">
<ellipse cx="133.687" cy="219.487" rx="33.2885" ry="31.2477" fill="url(#paint0_radial_1202_735)"/>
</g>
<ellipse cx="132.962" cy="18.1932" rx="19.5139" ry="18.1673" fill="url(#paint1_linear_1202_735)"/>
<g filter="url(#filter1_d_1202_735)">
<path d="M80.1049 43.9829C100.772 17.4627 133.295 18.1954 133.295 18.1954L133.259 196.962L11.2013 196.937C11.2013 196.937 5.08132 188.943 15.0326 171.867C24.9839 154.792 45.5745 142.555 58.2799 119.554C73.2499 92.4544 63.7824 64.9282 80.1049 43.9829Z" fill="url(#paint2_linear_1202_735)"/>
<path d="M186.474 44.0071C165.818 17.4785 133.294 18.1981 133.294 18.1981L133.258 196.965L255.316 196.989C255.316 196.989 261.439 188.997 251.494 171.918C241.55 154.838 220.964 142.593 208.268 119.587C193.309 92.4814 202.788 64.9589 186.474 44.0071Z" fill="url(#paint3_linear_1202_735)"/>
</g>
<mask id="mask0_1202_735" style="mask-type:alpha" maskUnits="userSpaceOnUse" x="9" y="18" width="249" height="179">
<path d="M80.1051 43.9829C100.772 17.4627 133.295 18.1954 133.295 18.1954L133.259 196.962L11.2015 196.937C11.2015 196.937 5.08156 188.943 15.0328 171.867C24.9841 154.792 45.5747 142.555 58.2802 119.554C73.2501 92.4544 63.7827 64.9282 80.1051 43.9829Z" fill="url(#paint4_linear_1202_735)"/>
<path d="M186.474 44.0071C165.818 17.4785 133.294 18.1981 133.294 18.1981L133.258 196.965L255.316 196.989C255.316 196.989 261.439 188.997 251.495 171.918C241.55 154.838 220.965 142.593 208.268 119.587C193.309 92.4814 202.788 64.9589 186.474 44.0071Z" fill="url(#paint5_linear_1202_735)"/>
</mask>
<g mask="url(#mask0_1202_735)">
<path d="M43.8035 49.4232C43.8035 49.4232 83.3524 36.3511 131.785 36.3605C180.219 36.3699 222.873 49.4594 222.873 49.4594" stroke="url(#paint6_linear_1202_735)" stroke-width="3"/>
<path d="M43.8005 61.7766C43.8005 61.7766 83.3492 49.4312 131.782 49.4406C180.215 49.45 222.869 61.8128 222.869 61.8128" stroke="url(#paint7_linear_1202_735)" stroke-width="3"/>
</g>
<g filter="url(#filter2_d_1202_735)">
<path d="M9.77263 188.214L257.159 188.264C266.604 194.953 264.336 201.856 257.155 207.158L9.76881 207.108C2.25655 199.475 1.89861 195.329 9.77263 188.214Z" fill="url(#paint8_linear_1202_735)"/>
</g>
<g filter="url(#filter3_i_1202_735)">
<path d="M130.844 79.515C131.13 78.5655 132.474 78.5657 132.759 79.5154L138.834 99.7418C138.986 100.249 139.507 100.55 140.023 100.427L161.434 95.3351C162.42 95.1007 163.089 96.3126 162.365 97.022L147.138 111.952C146.738 112.344 146.738 112.988 147.138 113.38L162.359 128.316C163.082 129.026 162.413 130.238 161.427 130.003L140.018 124.902C139.503 124.78 138.981 125.08 138.828 125.587L132.746 145.811C132.46 146.761 131.116 146.76 130.831 145.811L124.756 125.584C124.604 125.077 124.083 124.776 123.567 124.899L102.156 129.991C101.17 130.225 100.501 129.014 101.225 128.304L116.452 113.374C116.852 112.982 116.852 112.338 116.452 111.946L101.231 97.0097C100.508 96.2999 101.177 95.0883 102.163 95.3232L123.572 100.424C124.088 100.547 124.609 100.246 124.762 99.739L130.844 79.515Z" fill="url(#paint9_radial_1202_735)"/>
</g>
<defs>
<filter id="filter0_d_1202_735" x="96.3984" y="184.239" width="74.5769" height="70.4951" filterUnits="userSpaceOnUse" color-interpolation-filters="sRGB">
<feFlood flood-opacity="0" result="BackgroundImageFix"/>
<feColorMatrix in="SourceAlpha" type="matrix" values="0 0 0 0 0 0 0 0 0 0 0 0 0 0 0 0 0 0 127 0" result="hardAlpha"/>
<feOffset/>
<feGaussianBlur stdDeviation="2"/>
<feComposite in2="hardAlpha" operator="out"/>
<feColorMatrix type="matrix" values="0 0 0 0 0 0 0 0 0 0 0 0 0 0 0 0 0 0 0.25 0"/>
<feBlend mode="normal" in2="BackgroundImageFix" result="effect1_dropShadow_1202_735"/>
<feBlend mode="normal" in="SourceGraphic" in2="effect1_dropShadow_1202_735" result="shape"/>
</filter>
<filter id="filter1_d_1202_735" x="5.33936" y="14.1934" width="255.841" height="186.796" filterUnits="userSpaceOnUse" color-interpolation-filters="sRGB">
<feFlood flood-opacity="0" result="BackgroundImageFix"/>
<feColorMatrix in="SourceAlpha" type="matrix" values="0 0 0 0 0 0 0 0 0 0 0 0 0 0 0 0 0 0 127 0" result="hardAlpha"/>
<feOffset/>
<feGaussianBlur stdDeviation="2"/>
<feComposite in2="hardAlpha" operator="out"/>
<feColorMatrix type="matrix" values="0 0 0 0 0 0 0 0 0 0 0 0 0 0 0 0 0 0 0.25 0"/>
<feBlend mode="normal" in2="BackgroundImageFix" result="effect1_dropShadow_1202_735"/>
<feBlend mode="normal" in="SourceGraphic" in2="effect1_dropShadow_1202_735" result="shape"/>
</filter>
<filter id="filter2_d_1202_735" x="0" y="185.214" width="267.42" height="26.9443" filterUnits="userSpaceOnUse" color-interpolation-filters="sRGB">
<feFlood flood-opacity="0" result="BackgroundImageFix"/>
<feColorMatrix in="SourceAlpha" type="matrix" values="0 0 0 0 0 0 0 0 0 0 0 0 0 0 0 0 0 0 127 0" result="hardAlpha"/>
<feOffset dy="1"/>
<feGaussianBlur stdDeviation="2"/>
<feComposite in2="hardAlpha" operator="out"/>
<feColorMatrix type="matrix" values="0 0 0 0 0 0 0 0 0 0 0 0 0 0 0 0 0 0 0.25 0"/>
<feBlend mode="normal" in2="BackgroundImageFix" result="effect1_dropShadow_1202_735"/>
<feBlend mode="normal" in="SourceGraphic" in2="effect1_dropShadow_1202_735" result="shape"/>
</filter>
<filter id="filter3_i_1202_735" x="100.92" y="78.8032" width="61.7495" height="67.7197" filterUnits="userSpaceOnUse" color-interpolation-filters="sRGB">
<feFlood flood-opacity="0" result="BackgroundImageFix"/>
<feBlend mode="normal" in="SourceGraphic" in2="BackgroundImageFix" result="shape"/>
<feColorMatrix in="SourceAlpha" type="matrix" values="0 0 0 0 0 0 0 0 0 0 0 0 0 0 0 0 0 0 127 0" result="hardAlpha"/>
<feOffset/>
<feGaussianBlur stdDeviation="2"/>
<feComposite in2="hardAlpha" operator="arithmetic" k2="-1" k3="1"/>
<feColorMatrix type="matrix" values="0 0 0 0 0 0 0 0 0 0 0 0 0 0 0 0 0 0 0.25 0"/>
<feBlend mode="normal" in2="shape" result="effect1_innerShadow_1202_735"/>
</filter>
<radialGradient id="paint0_radial_1202_735" cx="0" cy="0" r="1" gradientTransform="matrix(9.56565 31.2477 -33.2885 9.18926 124.121 219.487)" gradientUnits="userSpaceOnUse">
<stop stop-color="#FFF3B5"/>
<stop offset="1" stop-color="#E88E21"/>
</radialGradient>
<linearGradient id="paint1_linear_1202_735" x1="132.962" y1="0.0259132" x2="132.962" y2="36.3604" gradientUnits="userSpaceOnUse">
<stop stop-color="#FFF3B5"/>
<stop offset="1" stop-color="#FFB863"/>
</linearGradient>
<linearGradient id="paint2_linear_1202_735" x1="120.334" y1="29.0911" x2="-8.47573" y2="55.9922" gradientUnits="userSpaceOnUse">
<stop stop-color="#FFF3B5"/>
<stop offset="0.495192" stop-color="#FFB863"/>
<stop offset="1" stop-color="#CD6601"/>
</linearGradient>
<linearGradient id="paint3_linear_1202_735" x1="146.251" y1="29.099" x2="275.05" y2="56.0521" gradientUnits="userSpaceOnUse">
<stop stop-color="#FFF3B5"/>
<stop offset="0.495192" stop-color="#FFB863"/>
<stop offset="1" stop-color="#CD6601"/>
</linearGradient>
<linearGradient id="paint4_linear_1202_735" x1="120.334" y1="29.0911" x2="-8.47549" y2="55.9922" gradientUnits="userSpaceOnUse">
<stop stop-color="#FFF3B5"/>
<stop offset="0.495192" stop-color="#FFB863"/>
<stop offset="1" stop-color="#CD6601"/>
</linearGradient>
<linearGradient id="paint5_linear_1202_735" x1="146.251" y1="29.099" x2="275.05" y2="56.0521" gradientUnits="userSpaceOnUse">
<stop stop-color="#FFF3B5"/>
<stop offset="0.495192" stop-color="#FFB863"/>
<stop offset="1" stop-color="#CD6601"/>
</linearGradient>
<linearGradient id="paint6_linear_1202_735" x1="43.8048" y1="42.883" x2="222.874" y2="42.9192" gradientUnits="userSpaceOnUse">
<stop stop-color="#E88E21"/>
<stop offset="1" stop-color="#FFF3B5"/>
</linearGradient>
<linearGradient id="paint7_linear_1202_735" x1="43.8017" y1="55.5997" x2="222.871" y2="55.6359" gradientUnits="userSpaceOnUse">
<stop stop-color="#E88E21"/>
<stop offset="1" stop-color="#FFF3B5"/>
</linearGradient>
<linearGradient id="paint8_linear_1202_735" x1="4.00005" y1="197.66" x2="263.421" y2="197.712" gradientUnits="userSpaceOnUse">
<stop stop-color="#FFF3B5"/>
<stop offset="1" stop-color="#EE9D43"/>
</linearGradient>
<radialGradient id="paint9_radial_1202_735" cx="0" cy="0" r="1" gradientUnits="userSpaceOnUse" gradientTransform="translate(131.795 112.663) rotate(90.0116) scale(32.3377 34.0537)">
<stop stop-color="#FFF3B5"/>
<stop offset="1" stop-color="#FFAE4D"/>
</radialGradient>
</defs>
</svg>
