<svg width="288" height="294" viewBox="0 0 288 294" fill="none" xmlns="http://www.w3.org/2000/svg">
<path d="M58.8128 215.778C45.799 155.803 103.414 119.594 73.4252 82.8167C43.4369 46.0394 222.892 61.8814 212.142 76.5926C201.392 91.3038 189.51 136.001 201.392 162.593C213.274 189.185 264.759 190.707 281.734 215.778C298.71 240.849 278.907 283.109 239.301 292.161C199.696 301.212 71.8265 275.752 58.8128 215.778Z" fill="url(#paint0_linear_1215_1270)"/>
<path d="M191.365 43.9947C200.977 45.1602 208.953 50.5871 213.361 57.9725C226.51 59.8842 235.968 70.865 234.92 82.964C241.107 87.8609 244.663 95.3596 243.704 103.266C242.18 115.837 229.819 124.68 216.083 123.038C212.281 133.702 200.058 140.621 186.588 138.988C176.769 137.798 168.678 132.353 164.57 125.126C160.332 127.138 155.438 128.017 150.365 127.402C142.659 126.468 136.178 122.289 132.246 116.483C125.896 125.119 113.856 130.169 100.803 128.587C91.3572 127.441 83.257 123.049 77.9459 116.957C74.9462 117.666 71.7396 117.87 68.4546 117.472C54.7752 115.813 44.8966 104.375 46.2901 91.8704C41.3821 87.0339 38.7002 80.3633 39.5476 73.3736C41.0735 60.7884 53.4606 51.9374 67.2152 53.6051C68.3966 53.7483 69.5496 53.9657 70.6696 54.2492C74.8294 44.0292 87.0098 37.5074 100.417 39.1331C107.86 40.0355 114.334 43.2865 118.896 47.8671C121.63 47.322 124.522 47.1947 127.477 47.553C134.125 48.3592 139.876 51.4748 143.871 55.9005C148.809 52.5576 155.138 50.9071 161.787 51.7131C163.355 51.9032 164.873 52.2225 166.329 52.6564C172.373 46.3196 181.574 42.8075 191.365 43.9947Z" fill="white"/>
<path d="M16.9395 63.9354C28.5264 83.9497 35.8633 86.089 60.2309 103.26C84.5985 120.431 65.7919 86.6994 56.7545 56.2455C47.717 25.7915 32.2166 -5.39046 13.2378 5.06059C-5.74105 15.5117 5.35257 43.9211 16.9395 63.9354Z" stroke="white" stroke-width="6"/>
<defs>
<linearGradient id="paint0_linear_1215_1270" x1="125.338" y1="60.2791" x2="228.838" y2="294.279" gradientUnits="userSpaceOnUse">
<stop stop-color="#ED5854"/>
<stop offset="0.322071" stop-color="#EB5652"/>
<stop offset="1" stop-color="#B22625"/>
</linearGradient>
</defs>
</svg>
