<svg xmlns="http://www.w3.org/2000/svg" fill="none" viewBox="31.14 65.26 413.44 236.67">
<g filter="url(#filter0_d_1202_750)">
<ellipse cx="104.014" cy="227.732" rx="29.3837" ry="29.046" transform="rotate(42.5112 104.014 227.732)" fill="url(#paint0_radial_1202_750)"/>
</g>
<ellipse cx="229.953" cy="89.3485" rx="17.2249" ry="16.8872" transform="rotate(42.5112 229.953 89.3485)" fill="url(#paint1_linear_1202_750)"/>
<g filter="url(#filter1_d_1202_750)">
<path d="M179.358 75.5022C209.462 69.6515 230.169 89.5484 230.169 89.5484L117.881 212.04L38.4611 139.236C38.4611 139.236 39.4987 130.108 56.6983 124.34C73.898 118.572 94.9832 122.464 117.696 114.278C144.457 104.633 155.582 80.123 179.358 75.5022Z" fill="url(#paint2_linear_1202_750)"/>
<path d="M248.569 138.95C251.785 108.452 230.167 89.55 230.167 89.55L117.88 212.042L197.3 284.846C197.3 284.846 206.304 283.02 210.558 265.385C214.812 247.749 209.104 227.082 215.289 203.744C222.576 176.247 246.028 163.038 248.569 138.95Z" fill="url(#paint3_linear_1202_750)"/>
</g>
<mask id="mask0_1202_750" style="mask-type:alpha" maskUnits="userSpaceOnUse" x="38" y="74" width="211" height="211">
<path d="M179.358 75.5022C209.462 69.6515 230.169 89.5484 230.169 89.5484L117.881 212.04L38.4611 139.236C38.4611 139.236 39.4987 130.108 56.6983 124.34C73.898 118.572 94.9832 122.464 117.696 114.278C144.457 104.633 155.582 80.123 179.358 75.5022Z" fill="url(#paint4_linear_1202_750)"/>
<path d="M248.569 138.95C251.785 108.452 230.167 89.55 230.167 89.55L117.88 212.042L197.3 284.846C197.3 284.846 206.304 283.02 210.558 265.385C214.812 247.749 209.104 227.082 215.289 203.744C222.576 176.247 246.028 163.038 248.569 138.95Z" fill="url(#paint5_linear_1202_750)"/>
</mask>
<g mask="url(#mask0_1202_750)">
<path d="M152.317 57.5834C152.317 57.5834 186.265 72.209 217.779 101.098C249.294 129.986 268.833 164.393 268.833 164.393" stroke="url(#paint6_linear_1202_750)" stroke-width="3"/>
<path d="M144.557 66.0483C144.557 66.0483 178.049 81.1719 209.563 110.061C241.078 138.949 261.074 172.858 261.074 172.858" stroke="url(#paint7_linear_1202_750)" stroke-width="3"/>
</g>
<g filter="url(#filter2_d_1202_750)">
<path d="M43.0092 132.406L203.978 279.965C205.925 290.181 200.113 293.559 192.11 292.911L31.1415 145.353C31.0462 135.641 33.4169 132.587 43.0092 132.406Z" fill="url(#paint8_linear_1202_750)"/>
</g>
<g filter="url(#filter3_i_1202_750)">
<path d="M189.704 130.332C190.561 129.806 191.572 130.732 191.122 131.632L182.605 148.652C182.363 149.135 182.548 149.722 183.023 149.979L199.758 159.043C200.643 159.522 200.346 160.86 199.342 160.92L180.343 162.055C179.804 162.087 179.388 162.541 179.403 163.08L179.921 182.105C179.949 183.111 178.641 183.523 178.087 182.683L167.606 166.797C167.308 166.347 166.707 166.213 166.247 166.496L150.03 176.458C149.173 176.984 148.162 176.058 148.613 175.158L157.13 158.138C157.371 157.655 157.186 157.068 156.711 156.811L139.976 147.747C139.091 147.268 139.388 145.929 140.393 145.87L159.391 144.735C159.93 144.703 160.346 144.249 160.331 143.71L159.813 124.684C159.785 123.679 161.093 123.267 161.647 124.106L172.129 139.993C172.426 140.443 173.027 140.576 173.487 140.294L189.704 130.332Z" fill="url(#paint9_radial_1202_750)"/>
</g>
<g filter="url(#filter4_d_1202_750)">
<ellipse cx="29.3837" cy="29.046" rx="29.3837" ry="29.046" transform="matrix(-0.774681 0.632353 0.632353 0.774681 371.387 200.824)" fill="url(#paint10_radial_1202_750)"/>
</g>
<ellipse cx="17.2249" cy="16.8872" rx="17.2249" ry="16.8872" transform="matrix(-0.774681 0.632353 0.632353 0.774681 251.861 72.5537)" fill="url(#paint11_linear_1202_750)"/>
<g filter="url(#filter5_d_1202_750)">
<path d="M300.502 85.6058C270.783 78.0385 248.969 96.7153 248.969 96.7153L354.048 225.444L437.512 157.315C437.512 157.315 437 148.142 420.159 141.397C403.319 134.652 382.045 137.329 359.839 127.854C333.675 116.69 323.974 91.5823 300.502 85.6058Z" fill="url(#paint12_linear_1202_750)"/>
<path d="M227.767 144.981C226.305 114.348 248.972 96.7167 248.972 96.7167L354.05 225.446L270.586 293.576C270.586 293.576 261.702 291.237 258.466 273.387C255.23 255.536 262.113 235.23 257.277 211.576C251.579 183.707 228.922 169.174 227.767 144.981Z" fill="url(#paint13_linear_1202_750)"/>
</g>
<mask id="mask1_1202_750" style="mask-type:alpha" maskUnits="userSpaceOnUse" x="227" y="83" width="211" height="211">
<path d="M300.502 85.6058C270.783 78.0385 248.969 96.7153 248.969 96.7153L354.048 225.444L437.512 157.315C437.512 157.315 437 148.142 420.159 141.397C403.319 134.652 382.045 137.329 359.839 127.854C333.675 116.69 323.974 91.5823 300.502 85.6058Z" fill="url(#paint14_linear_1202_750)"/>
<path d="M227.767 144.981C226.305 114.348 248.972 96.7167 248.972 96.7167L354.05 225.446L270.586 293.576C270.586 293.576 261.702 291.237 258.466 273.387C255.23 255.536 262.113 235.23 257.277 211.576C251.579 183.707 228.922 169.174 227.767 144.981Z" fill="url(#paint15_linear_1202_750)"/>
</mask>
<g mask="url(#mask1_1202_750)">
<path d="M328.527 69.2668C328.527 69.2668 293.796 81.9217 260.677 108.956C227.558 135.99 206.077 169.219 206.077 169.219" stroke="url(#paint16_linear_1202_750)" stroke-width="3"/>
<path d="M335.788 78.1625C335.788 78.1625 301.485 91.3407 268.366 118.375C235.246 145.409 213.339 178.115 213.339 178.115" stroke="url(#paint17_linear_1202_750)" stroke-width="3"/>
</g>
<g filter="url(#filter6_d_1202_750)">
<path d="M433.362 150.235L264.197 288.321C261.668 298.409 267.276 302.114 275.303 301.926L444.468 163.841C445.12 154.151 442.928 150.965 433.362 150.235Z" fill="url(#paint18_linear_1202_750)"/>
</g>
<g filter="url(#filter7_i_1202_750)">
<path d="M287.027 139.753C286.202 139.178 285.139 140.045 285.537 140.969L293.064 158.45C293.278 158.946 293.059 159.521 292.571 159.751L275.343 167.84C274.432 168.267 274.652 169.621 275.651 169.738L294.553 171.96C295.089 172.023 295.479 172.5 295.433 173.038L293.825 192.002C293.74 193.004 295.022 193.491 295.623 192.684L306.998 177.425C307.321 176.993 307.928 176.894 308.371 177.202L323.991 188.077C324.816 188.652 325.878 187.785 325.48 186.861L317.954 169.381C317.74 168.885 317.958 168.309 318.447 168.08L335.675 159.991C336.585 159.563 336.366 158.21 335.366 158.092L316.464 155.87C315.928 155.807 315.539 155.331 315.585 154.793L317.193 135.829C317.278 134.826 315.996 134.34 315.395 135.146L304.02 150.405C303.697 150.838 303.089 150.937 302.646 150.628L287.027 139.753Z" fill="url(#paint19_radial_1202_750)"/>
</g>
<defs>
<filter id="filter0_d_1202_750" x="70.7842" y="194.532" width="66.4604" height="66.4014" filterUnits="userSpaceOnUse" color-interpolation-filters="sRGB">
<feFlood flood-opacity="0" result="BackgroundImageFix"/>
<feColorMatrix in="SourceAlpha" type="matrix" values="0 0 0 0 0 0 0 0 0 0 0 0 0 0 0 0 0 0 127 0" result="hardAlpha"/>
<feOffset/>
<feGaussianBlur stdDeviation="2"/>
<feComposite in2="hardAlpha" operator="out"/>
<feColorMatrix type="matrix" values="0 0 0 0 0 0 0 0 0 0 0 0 0 0 0 0 0 0 0.25 0"/>
<feBlend mode="normal" in2="BackgroundImageFix" result="effect1_dropShadow_1202_750"/>
<feBlend mode="normal" in="SourceGraphic" in2="effect1_dropShadow_1202_750" result="shape"/>
</filter>
<filter id="filter1_d_1202_750" x="34.4612" y="70.4253" width="218.434" height="218.42" filterUnits="userSpaceOnUse" color-interpolation-filters="sRGB">
<feFlood flood-opacity="0" result="BackgroundImageFix"/>
<feColorMatrix in="SourceAlpha" type="matrix" values="0 0 0 0 0 0 0 0 0 0 0 0 0 0 0 0 0 0 127 0" result="hardAlpha"/>
<feOffset/>
<feGaussianBlur stdDeviation="2"/>
<feComposite in2="hardAlpha" operator="out"/>
<feColorMatrix type="matrix" values="0 0 0 0 0 0 0 0 0 0 0 0 0 0 0 0 0 0 0.25 0"/>
<feBlend mode="normal" in2="BackgroundImageFix" result="effect1_dropShadow_1202_750"/>
<feBlend mode="normal" in="SourceGraphic" in2="effect1_dropShadow_1202_750" result="shape"/>
</filter>
<filter id="filter2_d_1202_750" x="27.1389" y="129.406" width="181.217" height="168.582" filterUnits="userSpaceOnUse" color-interpolation-filters="sRGB">
<feFlood flood-opacity="0" result="BackgroundImageFix"/>
<feColorMatrix in="SourceAlpha" type="matrix" values="0 0 0 0 0 0 0 0 0 0 0 0 0 0 0 0 0 0 127 0" result="hardAlpha"/>
<feOffset dy="1"/>
<feGaussianBlur stdDeviation="2"/>
<feComposite in2="hardAlpha" operator="out"/>
<feColorMatrix type="matrix" values="0 0 0 0 0 0 0 0 0 0 0 0 0 0 0 0 0 0 0.25 0"/>
<feBlend mode="normal" in2="BackgroundImageFix" result="effect1_dropShadow_1202_750"/>
<feBlend mode="normal" in="SourceGraphic" in2="effect1_dropShadow_1202_750" result="shape"/>
</filter>
<filter id="filter3_i_1202_750" x="139.451" y="123.655" width="60.8323" height="59.4795" filterUnits="userSpaceOnUse" color-interpolation-filters="sRGB">
<feFlood flood-opacity="0" result="BackgroundImageFix"/>
<feBlend mode="normal" in="SourceGraphic" in2="BackgroundImageFix" result="shape"/>
<feColorMatrix in="SourceAlpha" type="matrix" values="0 0 0 0 0 0 0 0 0 0 0 0 0 0 0 0 0 0 127 0" result="hardAlpha"/>
<feOffset/>
<feGaussianBlur stdDeviation="2"/>
<feComposite in2="hardAlpha" operator="arithmetic" k2="-1" k3="1"/>
<feColorMatrix type="matrix" values="0 0 0 0 0 0 0 0 0 0 0 0 0 0 0 0 0 0 0.25 0"/>
<feBlend mode="normal" in2="shape" result="effect1_innerShadow_1202_750"/>
</filter>
<filter id="filter4_d_1202_750" x="333.741" y="208.724" width="66.5002" height="66.3647" filterUnits="userSpaceOnUse" color-interpolation-filters="sRGB">
<feFlood flood-opacity="0" result="BackgroundImageFix"/>
<feColorMatrix in="SourceAlpha" type="matrix" values="0 0 0 0 0 0 0 0 0 0 0 0 0 0 0 0 0 0 127 0" result="hardAlpha"/>
<feOffset/>
<feGaussianBlur stdDeviation="2"/>
<feComposite in2="hardAlpha" operator="out"/>
<feColorMatrix type="matrix" values="0 0 0 0 0 0 0 0 0 0 0 0 0 0 0 0 0 0 0.25 0"/>
<feBlend mode="normal" in2="BackgroundImageFix" result="effect1_dropShadow_1202_750"/>
<feBlend mode="normal" in="SourceGraphic" in2="effect1_dropShadow_1202_750" result="shape"/>
</filter>
<filter id="filter5_d_1202_750" x="223.7" y="79.8008" width="217.812" height="217.775" filterUnits="userSpaceOnUse" color-interpolation-filters="sRGB">
<feFlood flood-opacity="0" result="BackgroundImageFix"/>
<feColorMatrix in="SourceAlpha" type="matrix" values="0 0 0 0 0 0 0 0 0 0 0 0 0 0 0 0 0 0 127 0" result="hardAlpha"/>
<feOffset/>
<feGaussianBlur stdDeviation="2"/>
<feComposite in2="hardAlpha" operator="out"/>
<feColorMatrix type="matrix" values="0 0 0 0 0 0 0 0 0 0 0 0 0 0 0 0 0 0 0.25 0"/>
<feBlend mode="normal" in2="BackgroundImageFix" result="effect1_dropShadow_1202_750"/>
<feBlend mode="normal" in="SourceGraphic" in2="effect1_dropShadow_1202_750" result="shape"/>
</filter>
<filter id="filter6_d_1202_750" x="259.584" y="147.235" width="188.99" height="159.697" filterUnits="userSpaceOnUse" color-interpolation-filters="sRGB">
<feFlood flood-opacity="0" result="BackgroundImageFix"/>
<feColorMatrix in="SourceAlpha" type="matrix" values="0 0 0 0 0 0 0 0 0 0 0 0 0 0 0 0 0 0 127 0" result="hardAlpha"/>
<feOffset dy="1"/>
<feGaussianBlur stdDeviation="2"/>
<feComposite in2="hardAlpha" operator="out"/>
<feColorMatrix type="matrix" values="0 0 0 0 0 0 0 0 0 0 0 0 0 0 0 0 0 0 0.25 0"/>
<feBlend mode="normal" in2="BackgroundImageFix" result="effect1_dropShadow_1202_750"/>
<feBlend mode="normal" in="SourceGraphic" in2="effect1_dropShadow_1202_750" result="shape"/>
</filter>
<filter id="filter7_i_1202_750" x="274.767" y="134.741" width="61.4832" height="58.3481" filterUnits="userSpaceOnUse" color-interpolation-filters="sRGB">
<feFlood flood-opacity="0" result="BackgroundImageFix"/>
<feBlend mode="normal" in="SourceGraphic" in2="BackgroundImageFix" result="shape"/>
<feColorMatrix in="SourceAlpha" type="matrix" values="0 0 0 0 0 0 0 0 0 0 0 0 0 0 0 0 0 0 127 0" result="hardAlpha"/>
<feOffset/>
<feGaussianBlur stdDeviation="2"/>
<feComposite in2="hardAlpha" operator="arithmetic" k2="-1" k3="1"/>
<feColorMatrix type="matrix" values="0 0 0 0 0 0 0 0 0 0 0 0 0 0 0 0 0 0 0.25 0"/>
<feBlend mode="normal" in2="shape" result="effect1_innerShadow_1202_750"/>
</filter>
<radialGradient id="paint0_radial_1202_750" cx="0" cy="0" r="1" gradientUnits="userSpaceOnUse" gradientTransform="translate(95.5708 227.732) rotate(73.791) scale(30.2483 30.6001)">
<stop stop-color="#FFF3B5"/>
<stop offset="1" stop-color="#E88E21"/>
</radialGradient>
<linearGradient id="paint1_linear_1202_750" x1="229.953" y1="72.4613" x2="229.953" y2="106.236" gradientUnits="userSpaceOnUse">
<stop stop-color="#FFF3B5"/>
<stop offset="1" stop-color="#FFB863"/>
</linearGradient>
<linearGradient id="paint2_linear_1202_750" x1="214.891" y1="89.2862" x2="115.42" y2="28.8478" gradientUnits="userSpaceOnUse">
<stop stop-color="#FFF3B5"/>
<stop offset="0.495192" stop-color="#FFB863"/>
<stop offset="1" stop-color="#CD6601"/>
</linearGradient>
<linearGradient id="paint3_linear_1202_750" x1="231.754" y1="104.747" x2="300.595" y2="198.599" gradientUnits="userSpaceOnUse">
<stop stop-color="#FFF3B5"/>
<stop offset="0.495192" stop-color="#FFB863"/>
<stop offset="1" stop-color="#CD6601"/>
</linearGradient>
<linearGradient id="paint4_linear_1202_750" x1="214.891" y1="89.2862" x2="115.42" y2="28.8478" gradientUnits="userSpaceOnUse">
<stop stop-color="#FFF3B5"/>
<stop offset="0.495192" stop-color="#FFB863"/>
<stop offset="1" stop-color="#CD6601"/>
</linearGradient>
<linearGradient id="paint5_linear_1202_750" x1="231.754" y1="104.747" x2="300.595" y2="198.599" gradientUnits="userSpaceOnUse">
<stop stop-color="#FFF3B5"/>
<stop offset="0.495192" stop-color="#FFB863"/>
<stop offset="1" stop-color="#CD6601"/>
</linearGradient>
<linearGradient id="paint6_linear_1202_750" x1="156.425" y1="53.102" x2="272.941" y2="159.911" gradientUnits="userSpaceOnUse">
<stop stop-color="#E88E21"/>
<stop offset="1" stop-color="#FFF3B5"/>
</linearGradient>
<linearGradient id="paint7_linear_1202_750" x1="148.437" y1="61.8159" x2="264.953" y2="168.625" gradientUnits="userSpaceOnUse">
<stop stop-color="#E88E21"/>
<stop offset="1" stop-color="#FFF3B5"/>
</linearGradient>
<linearGradient id="paint8_linear_1202_750" x1="33.3205" y1="135.437" x2="202.12" y2="290.174" gradientUnits="userSpaceOnUse">
<stop stop-color="#FFF3B5"/>
<stop offset="1" stop-color="#EE9D43"/>
</linearGradient>
<radialGradient id="paint9_radial_1202_750" cx="0" cy="0" r="1" gradientUnits="userSpaceOnUse" gradientTransform="translate(169.867 153.395) rotate(132.511) scale(30.0592)">
<stop stop-color="#FFF3B5"/>
<stop offset="1" stop-color="#FFAE4D"/>
</radialGradient>
<radialGradient id="paint10_radial_1202_750" cx="0" cy="0" r="1" gradientUnits="userSpaceOnUse" gradientTransform="translate(20.9401 29.046) rotate(73.791) scale(30.2483 30.6001)">
<stop stop-color="#FFF3B5"/>
<stop offset="1" stop-color="#E88E21"/>
</radialGradient>
<linearGradient id="paint11_linear_1202_750" x1="17.2249" y1="0" x2="17.2249" y2="33.7744" gradientUnits="userSpaceOnUse">
<stop stop-color="#FFF3B5"/>
<stop offset="1" stop-color="#FFB863"/>
</linearGradient>
<linearGradient id="paint12_linear_1202_750" x1="264.237" y1="97.3295" x2="367.01" y2="42.6945" gradientUnits="userSpaceOnUse">
<stop stop-color="#FFF3B5"/>
<stop offset="0.495192" stop-color="#FFB863"/>
<stop offset="1" stop-color="#CD6601"/>
</linearGradient>
<linearGradient id="paint13_linear_1202_750" x1="246.516" y1="111.798" x2="172.407" y2="201.548" gradientUnits="userSpaceOnUse">
<stop stop-color="#FFF3B5"/>
<stop offset="0.495192" stop-color="#FFB863"/>
<stop offset="1" stop-color="#CD6601"/>
</linearGradient>
<linearGradient id="paint14_linear_1202_750" x1="264.237" y1="97.3295" x2="367.01" y2="42.6945" gradientUnits="userSpaceOnUse">
<stop stop-color="#FFF3B5"/>
<stop offset="0.495192" stop-color="#FFB863"/>
<stop offset="1" stop-color="#CD6601"/>
</linearGradient>
<linearGradient id="paint15_linear_1202_750" x1="246.516" y1="111.798" x2="172.407" y2="201.548" gradientUnits="userSpaceOnUse">
<stop stop-color="#FFF3B5"/>
<stop offset="0.495192" stop-color="#FFB863"/>
<stop offset="1" stop-color="#CD6601"/>
</linearGradient>
<linearGradient id="paint16_linear_1202_750" x1="324.682" y1="64.5572" x2="202.233" y2="164.509" gradientUnits="userSpaceOnUse">
<stop stop-color="#E88E21"/>
<stop offset="1" stop-color="#FFF3B5"/>
</linearGradient>
<linearGradient id="paint17_linear_1202_750" x1="332.158" y1="73.7145" x2="209.708" y2="173.667" gradientUnits="userSpaceOnUse">
<stop stop-color="#E88E21"/>
<stop offset="1" stop-color="#FFF3B5"/>
</linearGradient>
<linearGradient id="paint18_linear_1202_750" x1="442.861" y1="153.817" x2="265.467" y2="298.619" gradientUnits="userSpaceOnUse">
<stop stop-color="#FFF3B5"/>
<stop offset="1" stop-color="#EE9D43"/>
</linearGradient>
<radialGradient id="paint19_radial_1202_750" cx="0" cy="0" r="1" gradientUnits="userSpaceOnUse" gradientTransform="translate(305.509 163.915) rotate(50.7761) scale(30.0592)">
<stop stop-color="#FFF3B5"/>
<stop offset="1" stop-color="#FFAE4D"/>
</radialGradient>
</defs>
</svg>