<svg width="223" height="231" viewBox="0 0 223 231" fill="none" xmlns="http://www.w3.org/2000/svg">
<path d="M170.503 40.5347C201.28 46.8463 176.35 86.1484 190.197 94.7551C204.043 103.362 217.28 87.9892 220.969 78.0318C224.659 68.0745 226.817 0.000280155 166.499 0C106.18 -0.000280154 82.4791 136.64 69.5553 180.82C56.6315 225 66.4385 227.183 73.2499 229.59C91.0972 235.895 101.871 207.5 108.949 188.566C116.028 169.632 139.727 34.223 170.503 40.5347Z" fill="url(#paint0_linear_359_80)"/>
<mask id="mask0_359_80" style="mask-type:alpha" maskUnits="userSpaceOnUse" x="63" y="0" width="160" height="231">
<path d="M170.503 40.5347C201.28 46.8463 176.35 86.1484 190.197 94.7551C204.043 103.362 217.28 87.9892 220.969 78.0318C224.659 68.0745 226.817 0.000280155 166.499 0C106.18 -0.000280154 82.4791 136.64 69.5553 180.82C56.6315 225 66.4385 227.183 73.2499 229.59C91.0972 235.895 101.871 207.5 108.949 188.566C116.028 169.632 139.727 34.223 170.503 40.5347Z" fill="#D9D9D9"/>
</mask>
<g mask="url(#mask0_359_80)">
<g filter="url(#filter0_i_359_80)">
<path d="M71.0752 142.664L45.1848 168.129C45.1848 168.129 52.0975 186.198 65.8209 198.321C79.5443 210.445 99.2714 215.91 99.2714 215.91L125.162 190.445C95.7689 181.12 82.0664 172.758 71.0752 142.664Z" fill="url(#paint1_linear_359_80)"/>
</g>
<g filter="url(#filter1_i_359_80)">
<path d="M94.8818 74.96L68.1636 99.6709C68.1636 99.6709 74.4769 117.929 87.7939 130.44C101.111 142.951 120.648 148.979 120.648 148.979L147.366 124.268C118.295 114.105 104.875 105.355 94.8818 74.96Z" fill="url(#paint2_linear_359_80)"/>
</g>
<g filter="url(#filter2_i_359_80)">
<path d="M134.557 14.1406L106.134 37.1396C106.134 37.1396 108.31 52.721 117.799 62.9105C127.288 73.1001 143.532 77.2982 143.532 77.2982L171.955 54.2993C148.009 47.0115 137.719 40.1074 134.557 14.1406Z" fill="url(#paint3_linear_359_80)"/>
</g>
<g filter="url(#filter3_i_359_80)">
<path d="M222.585 27.3706L196.595 6.11413C196.595 6.11413 180.167 11.4735 169.868 22.4152C159.569 33.3568 156.005 49.2371 156.005 49.2371L181.995 70.4936C188.416 46.8474 195.182 35.8748 222.585 27.3706Z" fill="url(#paint4_linear_359_80)"/>
</g>
<g filter="url(#filter4_i_359_80)">
<path d="M223.541 114.887L227.492 79.9968C227.492 79.9968 214.498 69.9874 200.103 68.5708C185.708 67.1543 170.758 74.4139 170.758 74.4139L166.807 109.304C189.649 99.4063 202.225 97.9117 223.541 114.887Z" fill="url(#paint5_linear_359_80)"/>
</g>
</g>
<g filter="url(#filter5_d_359_80)">
<path d="M94.0055 125.758L99.2911 129.172C99.2911 129.172 91.2935 141.744 76.2969 149.858C57.0217 160.287 50.8354 190.96 50.8354 190.96L42.8975 170.953L24.9361 176.686C24.9361 176.686 31.6686 144.051 61.5631 138.16C82.4555 134.043 94.0055 125.758 94.0055 125.758Z" fill="url(#paint6_linear_359_80)"/>
</g>
<g filter="url(#filter6_d_359_80)">
<path d="M106.171 128.99L99.7489 129.294C99.7489 129.294 99.4363 143.907 107.592 158.171C118.075 176.504 105.988 205.61 105.988 205.61L124.047 192.507L136.068 206.205C136.068 206.205 148.801 175.163 126.728 155.469C111.302 141.705 106.171 128.99 106.171 128.99Z" fill="url(#paint7_linear_359_80)"/>
</g>
<path d="M33.6819 102.866C33.6819 102.866 21.7783 109.594 37.2991 119.844C52.82 130.094 91.687 132.509 91.687 132.509L95.8683 123.381C95.8683 123.381 77.7687 115.667 64.933 104.894C52.0973 94.1206 59.2723 84.9319 59.2723 84.9319L33.6819 102.866Z" fill="url(#paint8_linear_359_80)"/>
<path d="M33.6819 102.866C33.6819 102.866 21.7783 109.594 37.2991 119.844C52.82 130.094 91.687 132.509 91.687 132.509L95.8683 123.381C95.8683 123.381 77.7687 115.667 64.933 104.894C52.0973 94.1206 59.2723 84.9319 59.2723 84.9319L33.6819 102.866Z" fill="url(#paint9_linear_359_80)"/>
<g filter="url(#filter7_d_359_80)">
<path d="M43.951 77.5141C43.951 77.5141 49.9855 67.0346 63.8461 70.716C84.7175 76.2595 98.0183 125.425 98.0183 125.425L92.8655 134.048C92.8655 134.048 70.2773 114.515 50.3154 106.163C36.908 100.554 29.6582 107.268 29.6582 107.268L43.951 77.5141Z" fill="url(#paint10_linear_359_80)"/>
<path d="M43.951 77.5141C43.951 77.5141 49.9855 67.0346 63.8461 70.716C84.7175 76.2595 98.0183 125.425 98.0183 125.425L92.8655 134.048C92.8655 134.048 70.2773 114.515 50.3154 106.163C36.908 100.554 29.6582 107.268 29.6582 107.268L43.951 77.5141Z" fill="url(#paint11_linear_359_80)"/>
</g>
<path d="M173.125 139.874C173.125 139.874 179.436 151.439 160.45 152.524C141.465 153.608 107.07 136.564 107.07 136.564L108.678 126.753C108.678 126.753 128.421 129.09 145.421 126.242C162.421 123.393 161.519 112.059 161.519 112.059L173.125 139.874Z" fill="url(#paint12_linear_359_80)"/>
<path d="M173.125 139.874C173.125 139.874 179.436 151.439 160.45 152.524C141.465 153.608 107.07 136.564 107.07 136.564L108.678 126.753C108.678 126.753 128.421 129.09 145.421 126.242C162.421 123.393 161.519 112.059 161.519 112.059L173.125 139.874Z" fill="url(#paint13_linear_359_80)"/>
<g filter="url(#filter8_d_359_80)">
<path d="M178.733 113.283C178.733 113.283 179.531 101.413 165.671 97.7309C144.799 92.187 105.695 127.433 105.695 127.433L105.198 137.292C105.198 137.292 135.439 131.791 157.125 134.502C171.69 136.323 174.054 145.591 174.054 145.591L178.733 113.283Z" fill="url(#paint14_linear_359_80)"/>
<path d="M178.733 113.283C178.733 113.283 179.531 101.413 165.671 97.7309C144.799 92.187 105.695 127.433 105.695 127.433L105.198 137.292C105.198 137.292 135.439 131.791 157.125 134.502C171.69 136.323 174.054 145.591 174.054 145.591L178.733 113.283Z" fill="url(#paint15_linear_359_80)"/>
</g>
<g filter="url(#filter9_d_359_80)">
<path d="M94.7825 120.584C95.5897 117.944 98.4077 116.377 101.077 117.086L103.863 117.826L106.65 118.567C109.319 119.276 110.828 121.991 110.021 124.632L106.576 135.902C105.768 138.542 102.95 140.109 100.282 139.4L97.4948 138.659L94.7081 137.919C92.0392 137.21 90.5301 134.495 91.3374 131.854L94.7825 120.584Z" fill="url(#paint16_linear_359_80)"/>
</g>
<defs>
<filter id="filter0_i_359_80" x="45.1846" y="142.664" width="79.9775" height="73.2456" filterUnits="userSpaceOnUse" color-interpolation-filters="sRGB">
<feFlood flood-opacity="0" result="BackgroundImageFix"/>
<feBlend mode="normal" in="SourceGraphic" in2="BackgroundImageFix" result="shape"/>
<feColorMatrix in="SourceAlpha" type="matrix" values="0 0 0 0 0 0 0 0 0 0 0 0 0 0 0 0 0 0 127 0" result="hardAlpha"/>
<feOffset/>
<feGaussianBlur stdDeviation="2"/>
<feComposite in2="hardAlpha" operator="arithmetic" k2="-1" k3="1"/>
<feColorMatrix type="matrix" values="0 0 0 0 0 0 0 0 0 0 0 0 0 0 0 0 0 0 0.25 0"/>
<feBlend mode="normal" in2="shape" result="effect1_innerShadow_359_80"/>
</filter>
<filter id="filter1_i_359_80" x="68.1641" y="74.96" width="79.2021" height="74.019" filterUnits="userSpaceOnUse" color-interpolation-filters="sRGB">
<feFlood flood-opacity="0" result="BackgroundImageFix"/>
<feBlend mode="normal" in="SourceGraphic" in2="BackgroundImageFix" result="shape"/>
<feColorMatrix in="SourceAlpha" type="matrix" values="0 0 0 0 0 0 0 0 0 0 0 0 0 0 0 0 0 0 127 0" result="hardAlpha"/>
<feOffset/>
<feGaussianBlur stdDeviation="2"/>
<feComposite in2="hardAlpha" operator="arithmetic" k2="-1" k3="1"/>
<feColorMatrix type="matrix" values="0 0 0 0 0 0 0 0 0 0 0 0 0 0 0 0 0 0 0.25 0"/>
<feBlend mode="normal" in2="shape" result="effect1_innerShadow_359_80"/>
</filter>
<filter id="filter2_i_359_80" x="106.134" y="14.1406" width="65.8203" height="63.1577" filterUnits="userSpaceOnUse" color-interpolation-filters="sRGB">
<feFlood flood-opacity="0" result="BackgroundImageFix"/>
<feBlend mode="normal" in="SourceGraphic" in2="BackgroundImageFix" result="shape"/>
<feColorMatrix in="SourceAlpha" type="matrix" values="0 0 0 0 0 0 0 0 0 0 0 0 0 0 0 0 0 0 127 0" result="hardAlpha"/>
<feOffset/>
<feGaussianBlur stdDeviation="2"/>
<feComposite in2="hardAlpha" operator="arithmetic" k2="-1" k3="1"/>
<feColorMatrix type="matrix" values="0 0 0 0 0 0 0 0 0 0 0 0 0 0 0 0 0 0 0.25 0"/>
<feBlend mode="normal" in2="shape" result="effect1_innerShadow_359_80"/>
</filter>
<filter id="filter3_i_359_80" x="156.005" y="6.11426" width="66.5801" height="64.3794" filterUnits="userSpaceOnUse" color-interpolation-filters="sRGB">
<feFlood flood-opacity="0" result="BackgroundImageFix"/>
<feBlend mode="normal" in="SourceGraphic" in2="BackgroundImageFix" result="shape"/>
<feColorMatrix in="SourceAlpha" type="matrix" values="0 0 0 0 0 0 0 0 0 0 0 0 0 0 0 0 0 0 127 0" result="hardAlpha"/>
<feOffset/>
<feGaussianBlur stdDeviation="2"/>
<feComposite in2="hardAlpha" operator="arithmetic" k2="-1" k3="1"/>
<feColorMatrix type="matrix" values="0 0 0 0 0 0 0 0 0 0 0 0 0 0 0 0 0 0 0.25 0"/>
<feBlend mode="normal" in2="shape" result="effect1_innerShadow_359_80"/>
</filter>
<filter id="filter4_i_359_80" x="166.807" y="68.3877" width="60.6855" height="46.4995" filterUnits="userSpaceOnUse" color-interpolation-filters="sRGB">
<feFlood flood-opacity="0" result="BackgroundImageFix"/>
<feBlend mode="normal" in="SourceGraphic" in2="BackgroundImageFix" result="shape"/>
<feColorMatrix in="SourceAlpha" type="matrix" values="0 0 0 0 0 0 0 0 0 0 0 0 0 0 0 0 0 0 127 0" result="hardAlpha"/>
<feOffset/>
<feGaussianBlur stdDeviation="2"/>
<feComposite in2="hardAlpha" operator="arithmetic" k2="-1" k3="1"/>
<feColorMatrix type="matrix" values="0 0 0 0 0 0 0 0 0 0 0 0 0 0 0 0 0 0 0.25 0"/>
<feBlend mode="normal" in2="shape" result="effect1_innerShadow_359_80"/>
</filter>
<filter id="filter5_d_359_80" x="20.9365" y="125.758" width="82.3545" height="73.2017" filterUnits="userSpaceOnUse" color-interpolation-filters="sRGB">
<feFlood flood-opacity="0" result="BackgroundImageFix"/>
<feColorMatrix in="SourceAlpha" type="matrix" values="0 0 0 0 0 0 0 0 0 0 0 0 0 0 0 0 0 0 127 0" result="hardAlpha"/>
<feOffset dy="4"/>
<feGaussianBlur stdDeviation="2"/>
<feComposite in2="hardAlpha" operator="out"/>
<feColorMatrix type="matrix" values="0 0 0 0 0 0 0 0 0 0 0 0 0 0 0 0 0 0 0.25 0"/>
<feBlend mode="normal" in2="BackgroundImageFix" result="effect1_dropShadow_359_80"/>
<feBlend mode="normal" in="SourceGraphic" in2="effect1_dropShadow_359_80" result="shape"/>
</filter>
<filter id="filter6_d_359_80" x="95.7471" y="128.99" width="47.9756" height="85.2148" filterUnits="userSpaceOnUse" color-interpolation-filters="sRGB">
<feFlood flood-opacity="0" result="BackgroundImageFix"/>
<feColorMatrix in="SourceAlpha" type="matrix" values="0 0 0 0 0 0 0 0 0 0 0 0 0 0 0 0 0 0 127 0" result="hardAlpha"/>
<feOffset dy="4"/>
<feGaussianBlur stdDeviation="2"/>
<feComposite in2="hardAlpha" operator="out"/>
<feColorMatrix type="matrix" values="0 0 0 0 0 0 0 0 0 0 0 0 0 0 0 0 0 0 0.25 0"/>
<feBlend mode="normal" in2="BackgroundImageFix" result="effect1_dropShadow_359_80"/>
<feBlend mode="normal" in="SourceGraphic" in2="effect1_dropShadow_359_80" result="shape"/>
</filter>
<filter id="filter7_d_359_80" x="25.6582" y="63.9321" width="76.3604" height="72.1157" filterUnits="userSpaceOnUse" color-interpolation-filters="sRGB">
<feFlood flood-opacity="0" result="BackgroundImageFix"/>
<feColorMatrix in="SourceAlpha" type="matrix" values="0 0 0 0 0 0 0 0 0 0 0 0 0 0 0 0 0 0 127 0" result="hardAlpha"/>
<feOffset dy="-2"/>
<feGaussianBlur stdDeviation="2"/>
<feComposite in2="hardAlpha" operator="out"/>
<feColorMatrix type="matrix" values="0 0 0 0 0 0 0 0 0 0 0 0 0 0 0 0 0 0 0.25 0"/>
<feBlend mode="normal" in2="BackgroundImageFix" result="effect1_dropShadow_359_80"/>
<feBlend mode="normal" in="SourceGraphic" in2="effect1_dropShadow_359_80" result="shape"/>
</filter>
<filter id="filter8_d_359_80" x="101.198" y="91.1392" width="81.5439" height="56.4521" filterUnits="userSpaceOnUse" color-interpolation-filters="sRGB">
<feFlood flood-opacity="0" result="BackgroundImageFix"/>
<feColorMatrix in="SourceAlpha" type="matrix" values="0 0 0 0 0 0 0 0 0 0 0 0 0 0 0 0 0 0 127 0" result="hardAlpha"/>
<feOffset dy="-2"/>
<feGaussianBlur stdDeviation="2"/>
<feComposite in2="hardAlpha" operator="out"/>
<feColorMatrix type="matrix" values="0 0 0 0 0 0 0 0 0 0 0 0 0 0 0 0 0 0 0.25 0"/>
<feBlend mode="normal" in2="BackgroundImageFix" result="effect1_dropShadow_359_80"/>
<feBlend mode="normal" in="SourceGraphic" in2="effect1_dropShadow_359_80" result="shape"/>
</filter>
<filter id="filter9_d_359_80" x="87.1201" y="112.916" width="27.1182" height="30.6543" filterUnits="userSpaceOnUse" color-interpolation-filters="sRGB">
<feFlood flood-opacity="0" result="BackgroundImageFix"/>
<feColorMatrix in="SourceAlpha" type="matrix" values="0 0 0 0 0 0 0 0 0 0 0 0 0 0 0 0 0 0 127 0" result="hardAlpha"/>
<feOffset/>
<feGaussianBlur stdDeviation="2"/>
<feComposite in2="hardAlpha" operator="out"/>
<feColorMatrix type="matrix" values="0 0 0 0 0 0 0 0 0 0 0 0 0 0 0 0 0 0 0.52 0"/>
<feBlend mode="normal" in2="BackgroundImageFix" result="effect1_dropShadow_359_80"/>
<feBlend mode="normal" in="SourceGraphic" in2="effect1_dropShadow_359_80" result="shape"/>
</filter>
<linearGradient id="paint0_linear_359_80" x1="37.2379" y1="85.0005" x2="154.263" y2="165.639" gradientUnits="userSpaceOnUse">
<stop stop-color="white"/>
<stop offset="1" stop-color="#F2E7D1"/>
</linearGradient>
<linearGradient id="paint1_linear_359_80" x1="74.7858" y1="191.721" x2="123.552" y2="217.076" gradientUnits="userSpaceOnUse">
<stop stop-color="#F36E76"/>
<stop offset="1" stop-color="#770000"/>
</linearGradient>
<linearGradient id="paint2_linear_359_80" x1="78.2167" y1="90.3731" x2="143.602" y2="142.476" gradientUnits="userSpaceOnUse">
<stop stop-color="#F36E76"/>
<stop offset="1" stop-color="#9F242B"/>
</linearGradient>
<linearGradient id="paint3_linear_359_80" x1="116.828" y1="28.4859" x2="151.263" y2="71.042" gradientUnits="userSpaceOnUse">
<stop stop-color="#F36E76"/>
<stop offset="1" stop-color="#9F242B"/>
</linearGradient>
<linearGradient id="paint4_linear_359_80" x1="189.89" y1="21.8868" x2="180.173" y2="59.8175" gradientUnits="userSpaceOnUse">
<stop stop-color="#F36E76"/>
<stop offset="1" stop-color="#9F242B"/>
</linearGradient>
<linearGradient id="paint5_linear_359_80" x1="194.198" y1="103.648" x2="199.345" y2="68.46" gradientUnits="userSpaceOnUse">
<stop stop-color="#9F242B"/>
<stop offset="1" stop-color="#F36E76"/>
</linearGradient>
<linearGradient id="paint6_linear_359_80" x1="91.3099" y1="122.504" x2="37.363" y2="187.07" gradientUnits="userSpaceOnUse">
<stop stop-color="#63191E"/>
<stop offset="1" stop-color="#E64852"/>
</linearGradient>
<linearGradient id="paint7_linear_359_80" x1="110.302" y1="127.549" x2="123.652" y2="208.259" gradientUnits="userSpaceOnUse">
<stop stop-color="#6A1D22"/>
<stop offset="1" stop-color="#EB535C"/>
</linearGradient>
<linearGradient id="paint8_linear_359_80" x1="76.3445" y1="140.463" x2="28.933" y2="92.144" gradientUnits="userSpaceOnUse">
<stop stop-color="#9F242B"/>
<stop offset="1" stop-color="#390D0F"/>
</linearGradient>
<linearGradient id="paint9_linear_359_80" x1="76.3445" y1="140.463" x2="28.933" y2="92.144" gradientUnits="userSpaceOnUse">
<stop stop-color="#9F242B"/>
<stop offset="1" stop-color="#390D0F"/>
</linearGradient>
<linearGradient id="paint10_linear_359_80" x1="74.4958" y1="72.9568" x2="66.6773" y2="118.119" gradientUnits="userSpaceOnUse">
<stop stop-color="#FF878E"/>
<stop offset="1" stop-color="#901E25"/>
</linearGradient>
<linearGradient id="paint11_linear_359_80" x1="74.4958" y1="72.9568" x2="66.6773" y2="118.119" gradientUnits="userSpaceOnUse">
<stop stop-color="#FF878E"/>
<stop offset="1" stop-color="#901E25"/>
</linearGradient>
<linearGradient id="paint12_linear_359_80" x1="120.473" y1="134.742" x2="180.577" y2="148.378" gradientUnits="userSpaceOnUse">
<stop stop-color="#901E25"/>
<stop offset="1" stop-color="#2A090B"/>
</linearGradient>
<linearGradient id="paint13_linear_359_80" x1="120.473" y1="134.742" x2="180.577" y2="148.378" gradientUnits="userSpaceOnUse">
<stop stop-color="#901E25"/>
<stop offset="1" stop-color="#2A090B"/>
</linearGradient>
<linearGradient id="paint14_linear_359_80" x1="155.101" y1="104.933" x2="139.559" y2="139.448" gradientUnits="userSpaceOnUse">
<stop stop-color="#FF7880"/>
<stop offset="1" stop-color="#901E25"/>
</linearGradient>
<linearGradient id="paint15_linear_359_80" x1="155.101" y1="104.933" x2="139.559" y2="139.448" gradientUnits="userSpaceOnUse">
<stop stop-color="#FF7880"/>
<stop offset="1" stop-color="#901E25"/>
</linearGradient>
<linearGradient id="paint16_linear_359_80" x1="103.863" y1="117.826" x2="98.2747" y2="138.867" gradientUnits="userSpaceOnUse">
<stop stop-color="#F36E76"/>
<stop offset="1" stop-color="#8D4044"/>
</linearGradient>
</defs>
</svg>
