<svg width="181" height="277" viewBox="0 0 181 277" fill="none" xmlns="http://www.w3.org/2000/svg">
<path d="M86.3885 67.94C86.3885 85.5397 72.2262 107.518 89.8211 104.765C107.416 102.011 93.1189 87.3926 95.5998 67.94C98.0808 48.4875 113.193 0.999826 95.5997 1C78.0066 1.00017 86.3885 50.3404 86.3885 67.94Z" stroke="url(#paint0_linear_349_117)" stroke-width="2"/>
<rect x="62" y="63" width="57" height="83" rx="19" fill="url(#paint1_linear_349_117)"/>
<ellipse cx="90.5" cy="185" rx="90.5" ry="92" fill="url(#paint2_radial_349_117)"/>
<mask id="mask0_349_117" style="mask-type:alpha" maskUnits="userSpaceOnUse" x="0" y="93" width="181" height="184">
<ellipse cx="90.5" cy="185" rx="90.5" ry="92" fill="#D9D9D9"/>
</mask>
<g mask="url(#mask0_349_117)">
<g filter="url(#filter0_d_349_117)">
<g clip-path="url(#paint3_diamond_349_117_clip_path)" data-figma-skip-parse="true"><g transform="matrix(-0.000394605 0.043558 -0.043558 -0.000467559 52.1612 111.786)"><rect x="0" y="0" width="853.516" height="852.102" fill="url(#paint3_diamond_349_117)" opacity="1" shape-rendering="crispEdges"/><rect x="0" y="0" width="853.516" height="852.102" transform="scale(1 -1)" fill="url(#paint3_diamond_349_117)" opacity="1" shape-rendering="crispEdges"/><rect x="0" y="0" width="853.516" height="852.102" transform="scale(-1 1)" fill="url(#paint3_diamond_349_117)" opacity="1" shape-rendering="crispEdges"/><rect x="0" y="0" width="853.516" height="852.102" transform="scale(-1)" fill="url(#paint3_diamond_349_117)" opacity="1" shape-rendering="crispEdges"/></g></g><path d="M50.259 81.8541C50.8578 80.0115 53.4646 80.0115 54.0633 81.8541L59.7466 99.3457C60.0144 100.17 60.7823 100.728 61.6487 100.728H80.0405C81.9779 100.728 82.7834 103.207 81.216 104.346L66.3368 115.156C65.6358 115.665 65.3425 116.568 65.6103 117.392L71.2936 134.884C71.8923 136.726 69.7834 138.259 68.2159 137.12L53.3367 126.309C52.6358 125.8 51.6866 125.8 50.9856 126.309L36.1064 137.12C34.5389 138.259 32.43 136.726 33.0287 134.884L38.712 117.392C38.9798 116.568 38.6865 115.665 37.9855 115.156L23.1063 104.346C21.5389 103.207 22.3444 100.728 24.2819 100.728H42.6736C43.54 100.728 44.3079 100.17 44.5757 99.3457L50.259 81.8541Z" data-figma-gradient-fill="{&#34;type&#34;:&#34;GRADIENT_DIAMOND&#34;,&#34;stops&#34;:[{&#34;color&#34;:{&#34;r&#34;:1.0,&#34;g&#34;:0.95294117927551270,&#34;b&#34;:0.70980393886566162,&#34;a&#34;:1.0},&#34;position&#34;:0.0},{&#34;color&#34;:{&#34;r&#34;:0.90980392694473267,&#34;g&#34;:0.55686277151107788,&#34;b&#34;:0.12941177189350128,&#34;a&#34;:1.0},&#34;position&#34;:1.0}],&#34;stopsVar&#34;:[{&#34;color&#34;:{&#34;r&#34;:1.0,&#34;g&#34;:0.95294117927551270,&#34;b&#34;:0.70980393886566162,&#34;a&#34;:1.0},&#34;position&#34;:0.0},{&#34;color&#34;:{&#34;r&#34;:0.90980392694473267,&#34;g&#34;:0.55686277151107788,&#34;b&#34;:0.12941177189350128,&#34;a&#34;:1.0},&#34;position&#34;:1.0}],&#34;transform&#34;:{&#34;m00&#34;:-0.78921002149581909,&#34;m01&#34;:-87.115905761718750,&#34;m02&#34;:96.113723754882812,&#34;m10&#34;:87.115905761718750,&#34;m11&#34;:-0.93511897325515747,&#34;m12&#34;:68.695762634277344},&#34;opacity&#34;:1.0,&#34;blendMode&#34;:&#34;NORMAL&#34;,&#34;visible&#34;:true}"/>
<g clip-path="url(#paint4_diamond_349_117_clip_path)" data-figma-skip-parse="true"><g transform="matrix(-0.000394605 0.043558 -0.043558 -0.000467559 145.921 258.51)"><rect x="0" y="0" width="853.516" height="852.102" fill="url(#paint4_diamond_349_117)" opacity="1" shape-rendering="crispEdges"/><rect x="0" y="0" width="853.516" height="852.102" transform="scale(1 -1)" fill="url(#paint4_diamond_349_117)" opacity="1" shape-rendering="crispEdges"/><rect x="0" y="0" width="853.516" height="852.102" transform="scale(-1 1)" fill="url(#paint4_diamond_349_117)" opacity="1" shape-rendering="crispEdges"/><rect x="0" y="0" width="853.516" height="852.102" transform="scale(-1)" fill="url(#paint4_diamond_349_117)" opacity="1" shape-rendering="crispEdges"/></g></g><path d="M144.019 228.578C144.618 226.735 147.224 226.735 147.823 228.578L153.506 246.069C153.774 246.893 154.542 247.451 155.409 247.451H173.8C175.738 247.451 176.543 249.93 174.976 251.069L160.097 261.88C159.396 262.389 159.102 263.292 159.37 264.116L165.053 281.607C165.652 283.45 163.543 284.982 161.976 283.843L147.096 273.033C146.396 272.524 145.446 272.524 144.745 273.033L129.866 283.843C128.299 284.982 126.19 283.45 126.788 281.607L132.472 264.116C132.74 263.292 132.446 262.389 131.745 261.88L116.866 251.069C115.299 249.93 116.104 247.451 118.042 247.451H136.433C137.3 247.451 138.068 246.893 138.335 246.069L144.019 228.578Z" data-figma-gradient-fill="{&#34;type&#34;:&#34;GRADIENT_DIAMOND&#34;,&#34;stops&#34;:[{&#34;color&#34;:{&#34;r&#34;:1.0,&#34;g&#34;:0.95294117927551270,&#34;b&#34;:0.70980393886566162,&#34;a&#34;:1.0},&#34;position&#34;:0.0},{&#34;color&#34;:{&#34;r&#34;:0.90980392694473267,&#34;g&#34;:0.55686277151107788,&#34;b&#34;:0.12941177189350128,&#34;a&#34;:1.0},&#34;position&#34;:1.0}],&#34;stopsVar&#34;:[{&#34;color&#34;:{&#34;r&#34;:1.0,&#34;g&#34;:0.95294117927551270,&#34;b&#34;:0.70980393886566162,&#34;a&#34;:1.0},&#34;position&#34;:0.0},{&#34;color&#34;:{&#34;r&#34;:0.90980392694473267,&#34;g&#34;:0.55686277151107788,&#34;b&#34;:0.12941177189350128,&#34;a&#34;:1.0},&#34;position&#34;:1.0}],&#34;transform&#34;:{&#34;m00&#34;:-0.78921002149581909,&#34;m01&#34;:-87.115905761718750,&#34;m02&#34;:189.87348937988281,&#34;m10&#34;:87.115905761718750,&#34;m11&#34;:-0.93511897325515747,&#34;m12&#34;:215.41940307617188},&#34;opacity&#34;:1.0,&#34;blendMode&#34;:&#34;NORMAL&#34;,&#34;visible&#34;:true}"/>
<g clip-path="url(#paint5_diamond_349_117_clip_path)" data-figma-skip-parse="true"><g transform="matrix(-0.000394605 0.043558 -0.043558 -0.000467559 173.834 183.358)"><rect x="0" y="0" width="853.516" height="852.102" fill="url(#paint5_diamond_349_117)" opacity="1" shape-rendering="crispEdges"/><rect x="0" y="0" width="853.516" height="852.102" transform="scale(1 -1)" fill="url(#paint5_diamond_349_117)" opacity="1" shape-rendering="crispEdges"/><rect x="0" y="0" width="853.516" height="852.102" transform="scale(-1 1)" fill="url(#paint5_diamond_349_117)" opacity="1" shape-rendering="crispEdges"/><rect x="0" y="0" width="853.516" height="852.102" transform="scale(-1)" fill="url(#paint5_diamond_349_117)" opacity="1" shape-rendering="crispEdges"/></g></g><path d="M171.932 153.426C172.531 151.583 175.137 151.583 175.736 153.426L181.419 170.917C181.687 171.741 182.455 172.299 183.322 172.299H201.713C203.651 172.299 204.456 174.779 202.889 175.917L188.01 186.728C187.309 187.237 187.015 188.14 187.283 188.964L192.966 206.455C193.565 208.298 191.456 209.83 189.889 208.692L175.01 197.881C174.309 197.372 173.359 197.372 172.658 197.881L157.779 208.692C156.212 209.83 154.103 208.298 154.702 206.455L160.385 188.964C160.653 188.14 160.359 187.237 159.658 186.728L144.779 175.917C143.212 174.779 144.017 172.299 145.955 172.299H164.346C165.213 172.299 165.981 171.741 166.249 170.917L171.932 153.426Z" data-figma-gradient-fill="{&#34;type&#34;:&#34;GRADIENT_DIAMOND&#34;,&#34;stops&#34;:[{&#34;color&#34;:{&#34;r&#34;:1.0,&#34;g&#34;:0.95294117927551270,&#34;b&#34;:0.70980393886566162,&#34;a&#34;:1.0},&#34;position&#34;:0.0},{&#34;color&#34;:{&#34;r&#34;:0.90980392694473267,&#34;g&#34;:0.55686277151107788,&#34;b&#34;:0.12941177189350128,&#34;a&#34;:1.0},&#34;position&#34;:1.0}],&#34;stopsVar&#34;:[{&#34;color&#34;:{&#34;r&#34;:1.0,&#34;g&#34;:0.95294117927551270,&#34;b&#34;:0.70980393886566162,&#34;a&#34;:1.0},&#34;position&#34;:0.0},{&#34;color&#34;:{&#34;r&#34;:0.90980392694473267,&#34;g&#34;:0.55686277151107788,&#34;b&#34;:0.12941177189350128,&#34;a&#34;:1.0},&#34;position&#34;:1.0}],&#34;transform&#34;:{&#34;m00&#34;:-0.78921002149581909,&#34;m01&#34;:-87.115905761718750,&#34;m02&#34;:217.78657531738281,&#34;m10&#34;:87.115905761718750,&#34;m11&#34;:-0.93511897325515747,&#34;m12&#34;:140.26754760742188},&#34;opacity&#34;:1.0,&#34;blendMode&#34;:&#34;NORMAL&#34;,&#34;visible&#34;:true}"/>
<g clip-path="url(#paint6_diamond_349_117_clip_path)" data-figma-skip-parse="true"><g transform="matrix(-0.000394605 0.043558 -0.043558 -0.000467559 43.5723 258.51)"><rect x="0" y="0" width="853.516" height="852.102" fill="url(#paint6_diamond_349_117)" opacity="1" shape-rendering="crispEdges"/><rect x="0" y="0" width="853.516" height="852.102" transform="scale(1 -1)" fill="url(#paint6_diamond_349_117)" opacity="1" shape-rendering="crispEdges"/><rect x="0" y="0" width="853.516" height="852.102" transform="scale(-1 1)" fill="url(#paint6_diamond_349_117)" opacity="1" shape-rendering="crispEdges"/><rect x="0" y="0" width="853.516" height="852.102" transform="scale(-1)" fill="url(#paint6_diamond_349_117)" opacity="1" shape-rendering="crispEdges"/></g></g><path d="M41.6702 228.578C42.2689 226.735 44.8757 226.735 45.4744 228.578L51.1578 246.069C51.4255 246.893 52.1934 247.451 53.0599 247.451H71.4516C73.389 247.451 74.1946 249.93 72.6272 251.069L57.7479 261.88C57.047 262.389 56.7537 263.292 57.0214 264.116L62.7048 281.607C63.3035 283.45 61.1945 284.982 59.6271 283.843L44.7479 273.033C44.0469 272.524 43.0977 272.524 42.3967 273.033L27.5175 283.843C25.9501 284.982 23.8411 283.45 24.4398 281.607L30.1232 264.116C30.3909 263.292 30.0976 262.389 29.3966 261.88L14.5174 251.069C12.95 249.93 13.7556 247.451 15.693 247.451H34.0847C34.9512 247.451 35.7191 246.893 35.9868 246.069L41.6702 228.578Z" data-figma-gradient-fill="{&#34;type&#34;:&#34;GRADIENT_DIAMOND&#34;,&#34;stops&#34;:[{&#34;color&#34;:{&#34;r&#34;:1.0,&#34;g&#34;:0.95294117927551270,&#34;b&#34;:0.70980393886566162,&#34;a&#34;:1.0},&#34;position&#34;:0.0},{&#34;color&#34;:{&#34;r&#34;:0.90980392694473267,&#34;g&#34;:0.55686277151107788,&#34;b&#34;:0.12941177189350128,&#34;a&#34;:1.0},&#34;position&#34;:1.0}],&#34;stopsVar&#34;:[{&#34;color&#34;:{&#34;r&#34;:1.0,&#34;g&#34;:0.95294117927551270,&#34;b&#34;:0.70980393886566162,&#34;a&#34;:1.0},&#34;position&#34;:0.0},{&#34;color&#34;:{&#34;r&#34;:0.90980392694473267,&#34;g&#34;:0.55686277151107788,&#34;b&#34;:0.12941177189350128,&#34;a&#34;:1.0},&#34;position&#34;:1.0}],&#34;transform&#34;:{&#34;m00&#34;:-0.78921002149581909,&#34;m01&#34;:-87.115905761718750,&#34;m02&#34;:87.524856567382812,&#34;m10&#34;:87.115905761718750,&#34;m11&#34;:-0.93511897325515747,&#34;m12&#34;:215.41940307617188},&#34;opacity&#34;:1.0,&#34;blendMode&#34;:&#34;NORMAL&#34;,&#34;visible&#34;:true}"/>
<g clip-path="url(#paint7_diamond_349_117_clip_path)" data-figma-skip-parse="true"><g transform="matrix(-0.000394605 0.043558 -0.043558 -0.000467559 145.921 111.786)"><rect x="0" y="0" width="853.516" height="852.102" fill="url(#paint7_diamond_349_117)" opacity="1" shape-rendering="crispEdges"/><rect x="0" y="0" width="853.516" height="852.102" transform="scale(1 -1)" fill="url(#paint7_diamond_349_117)" opacity="1" shape-rendering="crispEdges"/><rect x="0" y="0" width="853.516" height="852.102" transform="scale(-1 1)" fill="url(#paint7_diamond_349_117)" opacity="1" shape-rendering="crispEdges"/><rect x="0" y="0" width="853.516" height="852.102" transform="scale(-1)" fill="url(#paint7_diamond_349_117)" opacity="1" shape-rendering="crispEdges"/></g></g><path d="M144.019 81.8541C144.618 80.0115 147.224 80.0115 147.823 81.8541L153.506 99.3457C153.774 100.17 154.542 100.728 155.409 100.728H173.8C175.738 100.728 176.543 103.207 174.976 104.346L160.097 115.156C159.396 115.665 159.102 116.568 159.37 117.392L165.053 134.884C165.652 136.726 163.543 138.259 161.976 137.12L147.096 126.309C146.396 125.8 145.446 125.8 144.745 126.309L129.866 137.12C128.299 138.259 126.19 136.726 126.788 134.884L132.472 117.392C132.74 116.568 132.446 115.665 131.745 115.156L116.866 104.346C115.299 103.207 116.104 100.728 118.042 100.728H136.433C137.3 100.728 138.068 100.17 138.335 99.3457L144.019 81.8541Z" data-figma-gradient-fill="{&#34;type&#34;:&#34;GRADIENT_DIAMOND&#34;,&#34;stops&#34;:[{&#34;color&#34;:{&#34;r&#34;:1.0,&#34;g&#34;:0.95294117927551270,&#34;b&#34;:0.70980393886566162,&#34;a&#34;:1.0},&#34;position&#34;:0.0},{&#34;color&#34;:{&#34;r&#34;:0.90980392694473267,&#34;g&#34;:0.55686277151107788,&#34;b&#34;:0.12941177189350128,&#34;a&#34;:1.0},&#34;position&#34;:1.0}],&#34;stopsVar&#34;:[{&#34;color&#34;:{&#34;r&#34;:1.0,&#34;g&#34;:0.95294117927551270,&#34;b&#34;:0.70980393886566162,&#34;a&#34;:1.0},&#34;position&#34;:0.0},{&#34;color&#34;:{&#34;r&#34;:0.90980392694473267,&#34;g&#34;:0.55686277151107788,&#34;b&#34;:0.12941177189350128,&#34;a&#34;:1.0},&#34;position&#34;:1.0}],&#34;transform&#34;:{&#34;m00&#34;:-0.78921002149581909,&#34;m01&#34;:-87.115905761718750,&#34;m02&#34;:189.87348937988281,&#34;m10&#34;:87.115905761718750,&#34;m11&#34;:-0.93511897325515747,&#34;m12&#34;:68.695762634277344},&#34;opacity&#34;:1.0,&#34;blendMode&#34;:&#34;NORMAL&#34;,&#34;visible&#34;:true}"/>
<g clip-path="url(#paint8_diamond_349_117_clip_path)" data-figma-skip-parse="true"><g transform="matrix(-0.000394605 0.043558 -0.043558 -0.000467559 90.8116 186.937)"><rect x="0" y="0" width="853.516" height="852.102" fill="url(#paint8_diamond_349_117)" opacity="1" shape-rendering="crispEdges"/><rect x="0" y="0" width="853.516" height="852.102" transform="scale(1 -1)" fill="url(#paint8_diamond_349_117)" opacity="1" shape-rendering="crispEdges"/><rect x="0" y="0" width="853.516" height="852.102" transform="scale(-1 1)" fill="url(#paint8_diamond_349_117)" opacity="1" shape-rendering="crispEdges"/><rect x="0" y="0" width="853.516" height="852.102" transform="scale(-1)" fill="url(#paint8_diamond_349_117)" opacity="1" shape-rendering="crispEdges"/></g></g><path d="M88.9094 157.005C89.5081 155.162 92.115 155.162 92.7137 157.005L98.397 174.497C98.6648 175.321 99.4327 175.879 100.299 175.879H118.691C120.628 175.879 121.434 178.358 119.866 179.497L104.987 190.307C104.286 190.816 103.993 191.719 104.261 192.543L109.944 210.035C110.543 211.877 108.434 213.409 106.866 212.271L91.9871 201.46C91.2861 200.951 90.337 200.951 89.636 201.46L74.7568 212.271C73.1893 213.409 71.0804 211.877 71.6791 210.035L77.3624 192.543C77.6302 191.719 77.3369 190.816 76.6359 190.307L61.7567 179.497C60.1893 178.358 60.9948 175.879 62.9323 175.879H81.324C82.1904 175.879 82.9583 175.321 83.2261 174.497L88.9094 157.005Z" data-figma-gradient-fill="{&#34;type&#34;:&#34;GRADIENT_DIAMOND&#34;,&#34;stops&#34;:[{&#34;color&#34;:{&#34;r&#34;:1.0,&#34;g&#34;:0.95294117927551270,&#34;b&#34;:0.70980393886566162,&#34;a&#34;:1.0},&#34;position&#34;:0.0},{&#34;color&#34;:{&#34;r&#34;:0.90980392694473267,&#34;g&#34;:0.55686277151107788,&#34;b&#34;:0.12941177189350128,&#34;a&#34;:1.0},&#34;position&#34;:1.0}],&#34;stopsVar&#34;:[{&#34;color&#34;:{&#34;r&#34;:1.0,&#34;g&#34;:0.95294117927551270,&#34;b&#34;:0.70980393886566162,&#34;a&#34;:1.0},&#34;position&#34;:0.0},{&#34;color&#34;:{&#34;r&#34;:0.90980392694473267,&#34;g&#34;:0.55686277151107788,&#34;b&#34;:0.12941177189350128,&#34;a&#34;:1.0},&#34;position&#34;:1.0}],&#34;transform&#34;:{&#34;m00&#34;:-0.78921002149581909,&#34;m01&#34;:-87.115905761718750,&#34;m02&#34;:134.76411437988281,&#34;m10&#34;:87.115905761718750,&#34;m11&#34;:-0.93511897325515747,&#34;m12&#34;:143.84664916992188},&#34;opacity&#34;:1.0,&#34;blendMode&#34;:&#34;NORMAL&#34;,&#34;visible&#34;:true}"/>
<g clip-path="url(#paint9_diamond_349_117_clip_path)" data-figma-skip-parse="true"><g transform="matrix(-0.000394605 0.043558 -0.043558 -0.000467559 7.78616 174.054)"><rect x="0" y="0" width="853.516" height="852.102" fill="url(#paint9_diamond_349_117)" opacity="1" shape-rendering="crispEdges"/><rect x="0" y="0" width="853.516" height="852.102" transform="scale(1 -1)" fill="url(#paint9_diamond_349_117)" opacity="1" shape-rendering="crispEdges"/><rect x="0" y="0" width="853.516" height="852.102" transform="scale(-1 1)" fill="url(#paint9_diamond_349_117)" opacity="1" shape-rendering="crispEdges"/><rect x="0" y="0" width="853.516" height="852.102" transform="scale(-1)" fill="url(#paint9_diamond_349_117)" opacity="1" shape-rendering="crispEdges"/></g></g><path d="M5.88405 144.122C6.48275 142.279 9.08957 142.279 9.68827 144.122L15.3716 161.613C15.6394 162.437 16.4073 162.995 17.2737 162.995H35.6655C37.6029 162.995 38.4084 165.474 36.841 166.613L21.9618 177.424C21.2608 177.933 20.9675 178.836 21.2353 179.66L26.9186 197.151C27.5173 198.994 25.4084 200.526 23.8409 199.387L8.96173 188.577C8.26075 188.068 7.31157 188.068 6.61059 188.577L-8.26862 199.387C-9.83605 200.526 -11.945 198.994 -11.3463 197.151L-5.66295 179.66C-5.3952 178.836 -5.68852 177.933 -6.38949 177.424L-21.2687 166.613C-22.8361 165.474 -22.0306 162.995 -20.0931 162.995H-1.70142C-0.834963 162.995 -0.0670528 162.437 0.200695 161.613L5.88405 144.122Z" data-figma-gradient-fill="{&#34;type&#34;:&#34;GRADIENT_DIAMOND&#34;,&#34;stops&#34;:[{&#34;color&#34;:{&#34;r&#34;:1.0,&#34;g&#34;:0.95294117927551270,&#34;b&#34;:0.70980393886566162,&#34;a&#34;:1.0},&#34;position&#34;:0.0},{&#34;color&#34;:{&#34;r&#34;:0.90980392694473267,&#34;g&#34;:0.55686277151107788,&#34;b&#34;:0.12941177189350128,&#34;a&#34;:1.0},&#34;position&#34;:1.0}],&#34;stopsVar&#34;:[{&#34;color&#34;:{&#34;r&#34;:1.0,&#34;g&#34;:0.95294117927551270,&#34;b&#34;:0.70980393886566162,&#34;a&#34;:1.0},&#34;position&#34;:0.0},{&#34;color&#34;:{&#34;r&#34;:0.90980392694473267,&#34;g&#34;:0.55686277151107788,&#34;b&#34;:0.12941177189350128,&#34;a&#34;:1.0},&#34;position&#34;:1.0}],&#34;transform&#34;:{&#34;m00&#34;:-0.78921002149581909,&#34;m01&#34;:-87.115905761718750,&#34;m02&#34;:51.738719940185547,&#34;m10&#34;:87.115905761718750,&#34;m11&#34;:-0.93511897325515747,&#34;m12&#34;:130.96334838867188},&#34;opacity&#34;:1.0,&#34;blendMode&#34;:&#34;NORMAL&#34;,&#34;visible&#34;:true}"/>
</g>
</g>
<defs>
<filter id="filter0_d_349_117" x="-26.0967" y="76.4722" width="233.813" height="211.762" filterUnits="userSpaceOnUse" color-interpolation-filters="sRGB">
<feFlood flood-opacity="0" result="BackgroundImageFix"/>
<feColorMatrix in="SourceAlpha" type="matrix" values="0 0 0 0 0 0 0 0 0 0 0 0 0 0 0 0 0 0 127 0" result="hardAlpha"/>
<feOffset/>
<feGaussianBlur stdDeviation="2"/>
<feComposite in2="hardAlpha" operator="out"/>
<feColorMatrix type="matrix" values="0 0 0 0 0 0 0 0 0 0 0 0 0 0 0 0 0 0 0.25 0"/>
<feBlend mode="normal" in2="BackgroundImageFix" result="effect1_dropShadow_349_117"/>
<feBlend mode="normal" in="SourceGraphic" in2="effect1_dropShadow_349_117" result="shape"/>
</filter>
<clipPath id="paint3_diamond_349_117_clip_path"><path d="M50.259 81.8541C50.8578 80.0115 53.4646 80.0115 54.0633 81.8541L59.7466 99.3457C60.0144 100.17 60.7823 100.728 61.6487 100.728H80.0405C81.9779 100.728 82.7834 103.207 81.216 104.346L66.3368 115.156C65.6358 115.665 65.3425 116.568 65.6103 117.392L71.2936 134.884C71.8923 136.726 69.7834 138.259 68.2159 137.12L53.3367 126.309C52.6358 125.8 51.6866 125.8 50.9856 126.309L36.1064 137.12C34.5389 138.259 32.43 136.726 33.0287 134.884L38.712 117.392C38.9798 116.568 38.6865 115.665 37.9855 115.156L23.1063 104.346C21.5389 103.207 22.3444 100.728 24.2819 100.728H42.6736C43.54 100.728 44.3079 100.17 44.5757 99.3457L50.259 81.8541Z"/></clipPath><clipPath id="paint4_diamond_349_117_clip_path"><path d="M144.019 228.578C144.618 226.735 147.224 226.735 147.823 228.578L153.506 246.069C153.774 246.893 154.542 247.451 155.409 247.451H173.8C175.738 247.451 176.543 249.93 174.976 251.069L160.097 261.88C159.396 262.389 159.102 263.292 159.37 264.116L165.053 281.607C165.652 283.45 163.543 284.982 161.976 283.843L147.096 273.033C146.396 272.524 145.446 272.524 144.745 273.033L129.866 283.843C128.299 284.982 126.19 283.45 126.788 281.607L132.472 264.116C132.74 263.292 132.446 262.389 131.745 261.88L116.866 251.069C115.299 249.93 116.104 247.451 118.042 247.451H136.433C137.3 247.451 138.068 246.893 138.335 246.069L144.019 228.578Z"/></clipPath><clipPath id="paint5_diamond_349_117_clip_path"><path d="M171.932 153.426C172.531 151.583 175.137 151.583 175.736 153.426L181.419 170.917C181.687 171.741 182.455 172.299 183.322 172.299H201.713C203.651 172.299 204.456 174.779 202.889 175.917L188.01 186.728C187.309 187.237 187.015 188.14 187.283 188.964L192.966 206.455C193.565 208.298 191.456 209.83 189.889 208.692L175.01 197.881C174.309 197.372 173.359 197.372 172.658 197.881L157.779 208.692C156.212 209.83 154.103 208.298 154.702 206.455L160.385 188.964C160.653 188.14 160.359 187.237 159.658 186.728L144.779 175.917C143.212 174.779 144.017 172.299 145.955 172.299H164.346C165.213 172.299 165.981 171.741 166.249 170.917L171.932 153.426Z"/></clipPath><clipPath id="paint6_diamond_349_117_clip_path"><path d="M41.6702 228.578C42.2689 226.735 44.8757 226.735 45.4744 228.578L51.1578 246.069C51.4255 246.893 52.1934 247.451 53.0599 247.451H71.4516C73.389 247.451 74.1946 249.93 72.6272 251.069L57.7479 261.88C57.047 262.389 56.7537 263.292 57.0214 264.116L62.7048 281.607C63.3035 283.45 61.1945 284.982 59.6271 283.843L44.7479 273.033C44.0469 272.524 43.0977 272.524 42.3967 273.033L27.5175 283.843C25.9501 284.982 23.8411 283.45 24.4398 281.607L30.1232 264.116C30.3909 263.292 30.0976 262.389 29.3966 261.88L14.5174 251.069C12.95 249.93 13.7556 247.451 15.693 247.451H34.0847C34.9512 247.451 35.7191 246.893 35.9868 246.069L41.6702 228.578Z"/></clipPath><clipPath id="paint7_diamond_349_117_clip_path"><path d="M144.019 81.8541C144.618 80.0115 147.224 80.0115 147.823 81.8541L153.506 99.3457C153.774 100.17 154.542 100.728 155.409 100.728H173.8C175.738 100.728 176.543 103.207 174.976 104.346L160.097 115.156C159.396 115.665 159.102 116.568 159.37 117.392L165.053 134.884C165.652 136.726 163.543 138.259 161.976 137.12L147.096 126.309C146.396 125.8 145.446 125.8 144.745 126.309L129.866 137.12C128.299 138.259 126.19 136.726 126.788 134.884L132.472 117.392C132.74 116.568 132.446 115.665 131.745 115.156L116.866 104.346C115.299 103.207 116.104 100.728 118.042 100.728H136.433C137.3 100.728 138.068 100.17 138.335 99.3457L144.019 81.8541Z"/></clipPath><clipPath id="paint8_diamond_349_117_clip_path"><path d="M88.9094 157.005C89.5081 155.162 92.115 155.162 92.7137 157.005L98.397 174.497C98.6648 175.321 99.4327 175.879 100.299 175.879H118.691C120.628 175.879 121.434 178.358 119.866 179.497L104.987 190.307C104.286 190.816 103.993 191.719 104.261 192.543L109.944 210.035C110.543 211.877 108.434 213.409 106.866 212.271L91.9871 201.46C91.2861 200.951 90.337 200.951 89.636 201.46L74.7568 212.271C73.1893 213.409 71.0804 211.877 71.6791 210.035L77.3624 192.543C77.6302 191.719 77.3369 190.816 76.6359 190.307L61.7567 179.497C60.1893 178.358 60.9948 175.879 62.9323 175.879H81.324C82.1904 175.879 82.9583 175.321 83.2261 174.497L88.9094 157.005Z"/></clipPath><clipPath id="paint9_diamond_349_117_clip_path"><path d="M5.88405 144.122C6.48275 142.279 9.08957 142.279 9.68827 144.122L15.3716 161.613C15.6394 162.437 16.4073 162.995 17.2737 162.995H35.6655C37.6029 162.995 38.4084 165.474 36.841 166.613L21.9618 177.424C21.2608 177.933 20.9675 178.836 21.2353 179.66L26.9186 197.151C27.5173 198.994 25.4084 200.526 23.8409 199.387L8.96173 188.577C8.26075 188.068 7.31157 188.068 6.61059 188.577L-8.26862 199.387C-9.83605 200.526 -11.945 198.994 -11.3463 197.151L-5.66295 179.66C-5.3952 178.836 -5.68852 177.933 -6.38949 177.424L-21.2687 166.613C-22.8361 165.474 -22.0306 162.995 -20.0931 162.995H-1.70142C-0.834963 162.995 -0.0670528 162.437 0.200695 161.613L5.88405 144.122Z"/></clipPath><linearGradient id="paint0_linear_349_117" x1="92.5" y1="1" x2="93" y2="77" gradientUnits="userSpaceOnUse">
<stop stop-color="white"/>
<stop offset="1" stop-color="#C3C3C3"/>
</linearGradient>
<linearGradient id="paint1_linear_349_117" x1="90.5" y1="63" x2="91" y2="117.5" gradientUnits="userSpaceOnUse">
<stop stop-color="#FFF3B5"/>
<stop offset="1" stop-color="#FFB863"/>
</linearGradient>
<radialGradient id="paint2_radial_349_117" cx="0" cy="0" r="1" gradientUnits="userSpaceOnUse" gradientTransform="translate(90.5 185) rotate(89.768) scale(123.501 121.487)">
<stop stop-color="#601014"/>
<stop offset="1" stop-color="#D03942"/>
</radialGradient>
<linearGradient id="paint3_diamond_349_117" x1="0" y1="0" x2="500" y2="500" gradientUnits="userSpaceOnUse">
<stop stop-color="#FFF3B5"/>
<stop offset="1" stop-color="#E88E21"/>
</linearGradient>
<linearGradient id="paint4_diamond_349_117" x1="0" y1="0" x2="500" y2="500" gradientUnits="userSpaceOnUse">
<stop stop-color="#FFF3B5"/>
<stop offset="1" stop-color="#E88E21"/>
</linearGradient>
<linearGradient id="paint5_diamond_349_117" x1="0" y1="0" x2="500" y2="500" gradientUnits="userSpaceOnUse">
<stop stop-color="#FFF3B5"/>
<stop offset="1" stop-color="#E88E21"/>
</linearGradient>
<linearGradient id="paint6_diamond_349_117" x1="0" y1="0" x2="500" y2="500" gradientUnits="userSpaceOnUse">
<stop stop-color="#FFF3B5"/>
<stop offset="1" stop-color="#E88E21"/>
</linearGradient>
<linearGradient id="paint7_diamond_349_117" x1="0" y1="0" x2="500" y2="500" gradientUnits="userSpaceOnUse">
<stop stop-color="#FFF3B5"/>
<stop offset="1" stop-color="#E88E21"/>
</linearGradient>
<linearGradient id="paint8_diamond_349_117" x1="0" y1="0" x2="500" y2="500" gradientUnits="userSpaceOnUse">
<stop stop-color="#FFF3B5"/>
<stop offset="1" stop-color="#E88E21"/>
</linearGradient>
<linearGradient id="paint9_diamond_349_117" x1="0" y1="0" x2="500" y2="500" gradientUnits="userSpaceOnUse">
<stop stop-color="#FFF3B5"/>
<stop offset="1" stop-color="#E88E21"/>
</linearGradient>
</defs>
</svg>
