<svg width="181" height="184" viewBox="0 0 181 184" fill="none" xmlns="http://www.w3.org/2000/svg">
<ellipse cx="90.5" cy="92" rx="90.5" ry="92" fill="url(#paint0_radial_901_322)"/>
<g style="mix-blend-mode:overlay" filter="url(#filter0_d_901_322)">
<path d="M56.7636 125.357C60.6496 124.077 64.0597 119.365 64.0387 115.358L63.8648 82.1562L63.8444 78.2636C63.8186 73.3406 62.7744 70.7127 60.8269 70.494C59.9104 70.3843 60.0201 69.4678 60.7076 69.5787C65.5203 70.3549 70.6669 69.2975 73.7389 65.6177C62.9608 62.5828 48.7168 53.6126 38.3223 58.2467C34.6671 59.8688 32.0488 62.7448 32.4151 67.0936C33.0139 72.1281 38.0718 75.9943 42.9846 74.0222C47.3262 72.2821 47.6361 65.8689 44.6522 64.5106C43.8484 64.0569 43.7315 63.5995 44.7619 63.5941C54.8339 62.9689 57.189 75.4362 50.4588 80.1656C44.7547 84.0882 35.2402 81.8482 31.8858 75.3398C29.9185 71.3429 28.8545 64.9369 30.4352 60.6924C35.8557 46.3525 49.231 42.5042 62.4243 47.5872C69.1929 50.1851 82.1673 57.2156 88.8131 58.2112C101.074 60.0933 95.1543 44.7824 88.8892 50.8833C87.978 51.804 87.7389 49.8589 88.6512 49.1672C91.6165 46.9763 94.7113 47.647 96.5605 50.9576C98.0633 53.6976 98.0771 56.3308 97.293 59.6552C96.1733 64.4697 91.2653 67.3577 86.5731 67.7258C83.941 67.9685 80.2744 67.4153 75.2297 66.0678L75.5426 82.095L75.7154 115.068C75.737 119.189 78.9679 123.981 83.096 125.219L56.7636 125.357Z" fill="#FFF7CF"/>
<path d="M128.774 148.117C118.676 143.705 117.257 135.125 116.94 118.411C116.822 117.725 116.819 117.038 116.701 116.352C113.984 122.32 110.109 125.66 105.189 126.258C94.4346 127.803 84.6707 121.672 84.6101 110.108L84.4469 78.9674C84.4253 74.8458 82.925 72.5638 80.1761 72.3492C79.0306 72.2407 78.6775 70.4107 80.1653 70.2884C86.003 70.0288 90.2433 70.8081 92.7722 72.7412C94.9559 74.3326 95.6524 76.1608 96.0103 78.9068L96.1747 110.277C96.2898 132.259 114.687 125.293 116.442 110.628L116.275 78.8006C116.253 74.679 114.867 72.3964 112.004 72.1824C110.858 72.074 110.505 70.2439 111.994 70.2361C117.945 69.8615 122.071 70.6413 124.6 72.5744C126.784 74.1659 127.48 75.9941 127.953 78.7394C127.995 86.8681 125.973 137.942 132.537 145.121C141.516 154.462 151.18 141.474 144.416 139.792C142.811 139.342 141.329 140.609 140.879 142.215C140.544 143.705 139.508 142.794 139.16 141.88C135.809 136.059 140.934 130.88 146.899 133.024C157.222 136.519 148.626 156.715 128.774 148.117Z" fill="#FFF7CF"/>
</g>
<defs>
<filter id="filter0_d_901_322" x="19.4227" y="34.5273" width="147.219" height="133.475" filterUnits="userSpaceOnUse" color-interpolation-filters="sRGB">
<feFlood flood-opacity="0" result="BackgroundImageFix"/>
<feColorMatrix in="SourceAlpha" type="matrix" values="0 0 0 0 0 0 0 0 0 0 0 0 0 0 0 0 0 0 127 0" result="hardAlpha"/>
<feOffset dy="1.60879"/>
<feGaussianBlur stdDeviation="4.65731"/>
<feComposite in2="hardAlpha" operator="out"/>
<feColorMatrix type="matrix" values="0 0 0 0 0.564706 0 0 0 0 0.117647 0 0 0 0 0.145098 0 0 0 1 0"/>
<feBlend mode="normal" in2="BackgroundImageFix" result="effect1_dropShadow_901_322"/>
<feBlend mode="normal" in="SourceGraphic" in2="effect1_dropShadow_901_322" result="shape"/>
</filter>
<radialGradient id="paint0_radial_901_322" cx="0" cy="0" r="1" gradientUnits="userSpaceOnUse" gradientTransform="translate(90.5 92) rotate(89.6886) scale(92.0014 90.5013)">
<stop stop-color="#FF878E"/>
<stop offset="1" stop-color="#901E25"/>
</radialGradient>
</defs>
</svg>
