<svg width="252" height="265" viewBox="0 0 252 265" fill="none" xmlns="http://www.w3.org/2000/svg">
<g filter="url(#filter0_d_638_628)">
<path d="M198.511 108.469C217.735 125.53 183.994 143.179 190.284 154.942C196.574 166.704 212.241 161.227 218.928 155.681C225.616 150.135 254.992 102.785 212.255 78.1105C169.517 53.4357 96.829 140.554 69.5993 166.57C42.3697 192.586 48.425 198.145 52.2667 202.637C62.3328 214.405 81.5818 198.693 94.3426 188.173C107.103 177.654 179.287 91.407 198.511 108.469Z" fill="url(#paint0_linear_638_628)"/>
<mask id="mask0_638_628" style="mask-type:alpha" maskUnits="userSpaceOnUse" x="48" y="73" width="187" height="134">
<path d="M198.511 108.468C217.735 125.53 183.994 143.179 190.284 154.941C196.574 166.704 212.241 161.226 218.928 155.681C225.616 150.135 254.992 102.785 212.255 78.1103C169.517 53.4355 96.829 140.554 69.5993 166.57C42.3697 192.586 48.425 198.145 52.2667 202.636C62.3328 214.405 81.5818 198.693 94.3426 188.173C107.103 177.653 179.287 91.4068 198.511 108.468Z" fill="#D9D9D9"/>
</mask>
<g mask="url(#mask0_638_628)">
<g filter="url(#filter1_i_638_628)">
<path d="M86.2852 140.157L57.524 147.609C57.524 147.609 55.0304 163.239 59.7945 177.443C64.5587 191.646 76.3004 203.588 76.3004 203.588L105.062 196.136C88.0503 177.506 81.762 165.976 86.2852 140.157Z" fill="url(#paint1_linear_638_628)"/>
</g>
<g filter="url(#filter2_i_638_628)">
<path d="M130.849 101.925L101.809 108.504C101.809 108.504 98.8136 124.023 103.131 138.335C107.449 152.648 118.826 164.911 118.826 164.911L147.865 158.332C131.424 139.239 125.495 127.549 130.849 101.925Z" fill="url(#paint2_linear_638_628)"/>
</g>
<g filter="url(#filter3_i_638_628)">
<path d="M183.838 75.0627L154.291 79.7311C154.291 79.7311 149.459 91.6612 152.014 102.762C154.569 113.864 164.361 123.483 164.361 123.483L193.908 118.815C179.923 103.856 175.457 94.7548 183.838 75.0627Z" fill="url(#paint3_linear_638_628)"/>
</g>
<g filter="url(#filter4_i_638_628)">
<path d="M240.797 120.446L231.077 94.7533C231.077 94.7533 217.245 91.8304 205.472 95.3699C193.699 98.9094 184.678 108.703 184.678 108.703L194.397 134.396C208.62 120.269 217.902 115.262 240.797 120.446Z" fill="url(#paint4_linear_638_628)"/>
</g>
<g filter="url(#filter5_i_638_628)">
<path d="M205.675 182.846L222.747 159.741C222.747 159.741 217.635 147.334 208.015 140.441C198.395 133.549 184.833 132.577 184.833 132.577L167.761 155.682C187.994 158.013 197.516 162.098 205.675 182.846Z" fill="url(#paint5_linear_638_628)"/>
</g>
</g>
<g filter="url(#filter6_d_638_628)">
<path d="M109.447 137.559L111.796 142.14C111.796 142.14 100.986 147.776 87.0414 147.391C69.118 146.895 52.1876 166.097 52.1876 166.097L54.7478 148.674L39.676 145.389C39.676 145.389 57.7964 125.02 81.3875 133.075C97.8745 138.704 109.447 137.559 109.447 137.559Z" fill="url(#paint6_linear_638_628)"/>
</g>
<g filter="url(#filter7_d_638_628)">
<path d="M116.745 144.825L112.07 142.414C112.07 142.414 105.871 152.64 105.814 166.082C105.742 183.36 85.272 199.038 85.272 199.038L103.427 197.142L106.341 211.765C106.341 211.765 128.061 194.979 120.478 171.996C115.178 155.933 116.745 144.825 116.745 144.825Z" fill="url(#paint7_linear_638_628)"/>
</g>
<path d="M76.0695 96.6628C76.0695 96.6628 64.8834 96.5601 71.6875 110.172C78.4916 123.783 105.042 141.394 105.042 141.394L111.738 136.637C111.738 136.637 102.07 123.767 97.3824 110.883C92.695 97.9994 101.538 94.424 101.538 94.424L76.0695 96.6628Z" fill="url(#paint8_linear_638_628)"/>
<path d="M76.0695 96.6628C76.0695 96.6628 64.8834 96.5601 71.6875 110.172C78.4916 123.783 105.042 141.394 105.042 141.394L111.738 136.637C111.738 136.637 102.07 123.767 97.3824 110.883C92.695 97.9994 101.538 94.424 101.538 94.424L76.0695 96.6628Z" fill="url(#paint9_linear_638_628)"/>
<g filter="url(#filter8_d_638_628)">
<path d="M93.7175 82.9008C93.7175 82.9008 102.28 77.9443 110.595 86.2227C123.115 98.6883 112.427 138.965 112.427 138.965L105.249 142.966C105.249 142.966 97.2346 119.886 86.5074 105.803C79.3025 96.3441 71.4189 98.1359 71.4189 98.1359L93.7175 82.9008Z" fill="url(#paint10_linear_638_628)"/>
<path d="M93.7175 82.9008C93.7175 82.9008 102.28 77.9443 110.595 86.2227C123.115 98.6883 112.427 138.965 112.427 138.965L105.249 142.966C105.249 142.966 97.2346 119.886 86.5074 105.803C79.3025 96.3441 71.4189 98.1359 71.4189 98.1359L93.7175 82.9008Z" fill="url(#paint11_linear_638_628)"/>
</g>
<path d="M159.73 179.925C159.73 179.925 159.471 190.702 145.576 183.704C131.68 176.705 114.282 150.559 114.282 150.559L119.435 144.265C119.435 144.265 132.468 153.998 145.678 158.934C158.888 163.87 162.886 155.47 162.886 155.47L159.73 179.925Z" fill="url(#paint12_linear_638_628)"/>
<path d="M159.73 179.925C159.73 179.925 159.471 190.702 145.576 183.704C131.68 176.705 114.282 150.559 114.282 150.559L119.435 144.265C119.435 144.265 132.468 153.998 145.678 158.934C158.888 163.87 162.886 155.47 162.886 155.47L159.73 179.925Z" fill="url(#paint13_linear_638_628)"/>
<g filter="url(#filter9_d_638_628)">
<path d="M174.583 163.38C174.583 163.38 180.004 155.296 171.69 147.017C159.17 134.551 117.045 143.527 117.045 143.527L112.66 150.31C112.66 150.31 136.336 158.783 150.593 169.575C160.168 176.823 158.052 184.357 158.052 184.357L174.583 163.38Z" fill="url(#paint14_linear_638_628)"/>
<path d="M174.583 163.38C174.583 163.38 180.004 155.296 171.69 147.017C159.17 134.551 117.045 143.527 117.045 143.527L112.66 150.31C112.66 150.31 136.336 158.783 150.593 169.575C160.168 176.823 158.052 184.357 158.052 184.357L174.583 163.38Z" fill="url(#paint15_linear_638_628)"/>
</g>
<g filter="url(#filter10_d_638_628)">
<path d="M112.115 134.211C113.767 132.67 116.404 132.713 118.005 134.307L119.677 135.972L121.349 137.636C122.95 139.23 122.908 141.772 121.256 143.312L114.205 149.888C112.552 151.429 109.915 151.386 108.314 149.792L106.643 148.127L104.971 146.463C103.37 144.869 103.411 142.328 105.064 140.787L112.115 134.211Z" fill="url(#paint16_linear_638_628)"/>
</g>
</g>
<g filter="url(#filter11_d_638_628)">
<path d="M120.651 61C120.651 67.0751 121.248 72 121.984 72C122.72 72 123.317 67.0751 123.317 61C123.317 54.9249 122.72 50 121.984 50C121.248 50 120.651 54.9249 120.651 61Z" fill="#FFFAE0"/>
<path d="M113.999 61.0148C113.999 61.6435 117.581 62.1532 121.999 62.1532C126.417 62.1532 129.999 61.6435 129.999 61.0148C129.999 60.386 126.417 59.8763 121.999 59.8763C117.581 59.8763 113.999 60.386 113.999 61.0148Z" fill="#FFFAE0"/>
</g>
<g filter="url(#filter12_d_638_628)">
<path d="M12.3473 156C12.3473 162.075 11.7504 167 11.014 167C10.2776 167 9.68067 162.075 9.68067 156C9.68067 149.925 10.2776 145 11.014 145C11.7504 145 12.3473 149.925 12.3473 156Z" fill="#FFFAE0"/>
<path d="M18.999 156.015C18.999 156.644 15.4173 157.153 10.999 157.153C6.58075 157.153 2.99902 156.644 2.99902 156.015C2.99902 155.386 6.58075 154.876 10.999 154.876C15.4173 154.876 18.999 155.386 18.999 156.015Z" fill="#FFFAE0"/>
</g>
<g filter="url(#filter13_d_638_628)">
<path d="M207.111 201C207.111 212.598 205.955 222 204.528 222C203.101 222 201.945 212.598 201.945 201C201.945 189.402 203.101 180 204.528 180C205.955 180 207.111 189.402 207.111 201Z" fill="#FFFAE0"/>
<path d="M219.999 201.028C219.999 202.229 213.059 203.202 204.499 203.202C195.939 203.202 188.999 202.229 188.999 201.028C188.999 199.828 195.939 198.855 204.499 198.855C213.059 198.855 219.999 199.828 219.999 201.028Z" fill="#FFFAE0"/>
</g>
<g filter="url(#filter14_d_638_628)">
<path d="M147.685 30.5C147.685 47.3447 148.721 61 149.999 61C151.277 61 152.313 47.3447 152.313 30.5C152.313 13.6553 151.277 0 149.999 0C148.721 0 147.685 13.6553 147.685 30.5Z" fill="#FFFAE0"/>
<path d="M149.999 28.087C137.296 28.087 126.999 29.189 126.999 30.5483C126.999 31.9076 137.296 33.0095 149.999 33.0095C162.702 33.0095 172.999 31.9076 172.999 30.5483C172.999 29.189 162.702 28.087 149.999 28.087Z" fill="#FFFAE0"/>
<path d="M148.828 29.185C141.694 36.7745 136.459 43.5111 137.136 44.2315C137.814 44.952 144.146 39.3835 151.28 31.794C158.415 24.2045 163.649 17.4679 162.972 16.7475C162.295 16.027 155.962 21.5955 148.828 29.185Z" fill="#FFFAE0"/>
<path d="M151.281 29.185C158.415 36.7745 163.649 43.5111 162.972 44.2315C162.295 44.952 155.962 39.3835 148.828 31.794C141.694 24.2045 136.459 17.4679 137.137 16.7475C137.814 16.027 144.146 21.5955 151.281 29.185Z" fill="#FFFAE0"/>
</g>
<defs>
<filter id="filter0_d_638_628" x="35.6758" y="73.7574" width="203.317" height="146.007" filterUnits="userSpaceOnUse" color-interpolation-filters="sRGB">
<feFlood flood-opacity="0" result="BackgroundImageFix"/>
<feColorMatrix in="SourceAlpha" type="matrix" values="0 0 0 0 0 0 0 0 0 0 0 0 0 0 0 0 0 0 127 0" result="hardAlpha"/>
<feOffset dy="4"/>
<feGaussianBlur stdDeviation="2"/>
<feComposite in2="hardAlpha" operator="out"/>
<feColorMatrix type="matrix" values="0 0 0 0 0 0 0 0 0 0 0 0 0 0 0 0 0 0 0.25 0"/>
<feBlend mode="normal" in2="BackgroundImageFix" result="effect1_dropShadow_638_628"/>
<feBlend mode="normal" in="SourceGraphic" in2="effect1_dropShadow_638_628" result="shape"/>
</filter>
<filter id="filter1_i_638_628" x="56.8721" y="140.157" width="48.1895" height="63.431" filterUnits="userSpaceOnUse" color-interpolation-filters="sRGB">
<feFlood flood-opacity="0" result="BackgroundImageFix"/>
<feBlend mode="normal" in="SourceGraphic" in2="BackgroundImageFix" result="shape"/>
<feColorMatrix in="SourceAlpha" type="matrix" values="0 0 0 0 0 0 0 0 0 0 0 0 0 0 0 0 0 0 127 0" result="hardAlpha"/>
<feOffset/>
<feGaussianBlur stdDeviation="1.63628"/>
<feComposite in2="hardAlpha" operator="arithmetic" k2="-1" k3="1"/>
<feColorMatrix type="matrix" values="0 0 0 0 0 0 0 0 0 0 0 0 0 0 0 0 0 0 0.25 0"/>
<feBlend mode="normal" in2="shape" result="effect1_innerShadow_638_628"/>
</filter>
<filter id="filter2_i_638_628" x="100.798" y="101.925" width="47.0674" height="62.9852" filterUnits="userSpaceOnUse" color-interpolation-filters="sRGB">
<feFlood flood-opacity="0" result="BackgroundImageFix"/>
<feBlend mode="normal" in="SourceGraphic" in2="BackgroundImageFix" result="shape"/>
<feColorMatrix in="SourceAlpha" type="matrix" values="0 0 0 0 0 0 0 0 0 0 0 0 0 0 0 0 0 0 127 0" result="hardAlpha"/>
<feOffset/>
<feGaussianBlur stdDeviation="1.63628"/>
<feComposite in2="hardAlpha" operator="arithmetic" k2="-1" k3="1"/>
<feColorMatrix type="matrix" values="0 0 0 0 0 0 0 0 0 0 0 0 0 0 0 0 0 0 0.25 0"/>
<feBlend mode="normal" in2="shape" result="effect1_innerShadow_638_628"/>
</filter>
<filter id="filter3_i_638_628" x="151.269" y="75.0627" width="42.6387" height="48.4205" filterUnits="userSpaceOnUse" color-interpolation-filters="sRGB">
<feFlood flood-opacity="0" result="BackgroundImageFix"/>
<feBlend mode="normal" in="SourceGraphic" in2="BackgroundImageFix" result="shape"/>
<feColorMatrix in="SourceAlpha" type="matrix" values="0 0 0 0 0 0 0 0 0 0 0 0 0 0 0 0 0 0 127 0" result="hardAlpha"/>
<feOffset/>
<feGaussianBlur stdDeviation="1.63628"/>
<feComposite in2="hardAlpha" operator="arithmetic" k2="-1" k3="1"/>
<feColorMatrix type="matrix" values="0 0 0 0 0 0 0 0 0 0 0 0 0 0 0 0 0 0 0.25 0"/>
<feBlend mode="normal" in2="shape" result="effect1_innerShadow_638_628"/>
</filter>
<filter id="filter4_i_638_628" x="184.678" y="93.6193" width="56.1191" height="40.7766" filterUnits="userSpaceOnUse" color-interpolation-filters="sRGB">
<feFlood flood-opacity="0" result="BackgroundImageFix"/>
<feBlend mode="normal" in="SourceGraphic" in2="BackgroundImageFix" result="shape"/>
<feColorMatrix in="SourceAlpha" type="matrix" values="0 0 0 0 0 0 0 0 0 0 0 0 0 0 0 0 0 0 127 0" result="hardAlpha"/>
<feOffset/>
<feGaussianBlur stdDeviation="1.63628"/>
<feComposite in2="hardAlpha" operator="arithmetic" k2="-1" k3="1"/>
<feColorMatrix type="matrix" values="0 0 0 0 0 0 0 0 0 0 0 0 0 0 0 0 0 0 0.25 0"/>
<feBlend mode="normal" in2="shape" result="effect1_innerShadow_638_628"/>
</filter>
<filter id="filter5_i_638_628" x="167.761" y="132.577" width="54.9863" height="50.2685" filterUnits="userSpaceOnUse" color-interpolation-filters="sRGB">
<feFlood flood-opacity="0" result="BackgroundImageFix"/>
<feBlend mode="normal" in="SourceGraphic" in2="BackgroundImageFix" result="shape"/>
<feColorMatrix in="SourceAlpha" type="matrix" values="0 0 0 0 0 0 0 0 0 0 0 0 0 0 0 0 0 0 127 0" result="hardAlpha"/>
<feOffset/>
<feGaussianBlur stdDeviation="1.63628"/>
<feComposite in2="hardAlpha" operator="arithmetic" k2="-1" k3="1"/>
<feColorMatrix type="matrix" values="0 0 0 0 0 0 0 0 0 0 0 0 0 0 0 0 0 0 0.25 0"/>
<feBlend mode="normal" in2="shape" result="effect1_innerShadow_638_628"/>
</filter>
<filter id="filter6_d_638_628" x="36.4032" y="131.19" width="78.6652" height="41.452" filterUnits="userSpaceOnUse" color-interpolation-filters="sRGB">
<feFlood flood-opacity="0" result="BackgroundImageFix"/>
<feColorMatrix in="SourceAlpha" type="matrix" values="0 0 0 0 0 0 0 0 0 0 0 0 0 0 0 0 0 0 127 0" result="hardAlpha"/>
<feOffset dy="3.27256"/>
<feGaussianBlur stdDeviation="1.63628"/>
<feComposite in2="hardAlpha" operator="out"/>
<feColorMatrix type="matrix" values="0 0 0 0 0 0 0 0 0 0 0 0 0 0 0 0 0 0 0.25 0"/>
<feBlend mode="normal" in2="BackgroundImageFix" result="effect1_dropShadow_638_628"/>
<feBlend mode="normal" in="SourceGraphic" in2="effect1_dropShadow_638_628" result="shape"/>
</filter>
<filter id="filter7_d_638_628" x="81.9999" y="142.414" width="43.3576" height="75.8961" filterUnits="userSpaceOnUse" color-interpolation-filters="sRGB">
<feFlood flood-opacity="0" result="BackgroundImageFix"/>
<feColorMatrix in="SourceAlpha" type="matrix" values="0 0 0 0 0 0 0 0 0 0 0 0 0 0 0 0 0 0 127 0" result="hardAlpha"/>
<feOffset dy="3.27256"/>
<feGaussianBlur stdDeviation="1.63628"/>
<feComposite in2="hardAlpha" operator="out"/>
<feColorMatrix type="matrix" values="0 0 0 0 0 0 0 0 0 0 0 0 0 0 0 0 0 0 0.25 0"/>
<feBlend mode="normal" in2="BackgroundImageFix" result="effect1_dropShadow_638_628"/>
<feBlend mode="normal" in="SourceGraphic" in2="effect1_dropShadow_638_628" result="shape"/>
</filter>
<filter id="filter8_d_638_628" x="68.1464" y="76.5202" width="51.8039" height="68.0823" filterUnits="userSpaceOnUse" color-interpolation-filters="sRGB">
<feFlood flood-opacity="0" result="BackgroundImageFix"/>
<feColorMatrix in="SourceAlpha" type="matrix" values="0 0 0 0 0 0 0 0 0 0 0 0 0 0 0 0 0 0 127 0" result="hardAlpha"/>
<feOffset dy="-1.63628"/>
<feGaussianBlur stdDeviation="1.63628"/>
<feComposite in2="hardAlpha" operator="out"/>
<feColorMatrix type="matrix" values="0 0 0 0 0 0 0 0 0 0 0 0 0 0 0 0 0 0 0.25 0"/>
<feBlend mode="normal" in2="BackgroundImageFix" result="effect1_dropShadow_638_628"/>
<feBlend mode="normal" in="SourceGraphic" in2="effect1_dropShadow_638_628" result="shape"/>
</filter>
<filter id="filter9_d_638_628" x="109.387" y="135.492" width="70.2053" height="50.5013" filterUnits="userSpaceOnUse" color-interpolation-filters="sRGB">
<feFlood flood-opacity="0" result="BackgroundImageFix"/>
<feColorMatrix in="SourceAlpha" type="matrix" values="0 0 0 0 0 0 0 0 0 0 0 0 0 0 0 0 0 0 127 0" result="hardAlpha"/>
<feOffset dy="-1.63628"/>
<feGaussianBlur stdDeviation="1.63628"/>
<feComposite in2="hardAlpha" operator="out"/>
<feColorMatrix type="matrix" values="0 0 0 0 0 0 0 0 0 0 0 0 0 0 0 0 0 0 0.25 0"/>
<feBlend mode="normal" in2="BackgroundImageFix" result="effect1_dropShadow_638_628"/>
<feBlend mode="normal" in="SourceGraphic" in2="effect1_dropShadow_638_628" result="shape"/>
</filter>
<filter id="filter10_d_638_628" x="100.524" y="129.81" width="25.2707" height="24.4782" filterUnits="userSpaceOnUse" color-interpolation-filters="sRGB">
<feFlood flood-opacity="0" result="BackgroundImageFix"/>
<feColorMatrix in="SourceAlpha" type="matrix" values="0 0 0 0 0 0 0 0 0 0 0 0 0 0 0 0 0 0 127 0" result="hardAlpha"/>
<feOffset/>
<feGaussianBlur stdDeviation="1.63628"/>
<feComposite in2="hardAlpha" operator="out"/>
<feColorMatrix type="matrix" values="0 0 0 0 0 0 0 0 0 0 0 0 0 0 0 0 0 0 0.52 0"/>
<feBlend mode="normal" in2="BackgroundImageFix" result="effect1_dropShadow_638_628"/>
<feBlend mode="normal" in="SourceGraphic" in2="effect1_dropShadow_638_628" result="shape"/>
</filter>
<filter id="filter11_d_638_628" x="113.999" y="50" width="16" height="23" filterUnits="userSpaceOnUse" color-interpolation-filters="sRGB">
<feFlood flood-opacity="0" result="BackgroundImageFix"/>
<feColorMatrix in="SourceAlpha" type="matrix" values="0 0 0 0 0 0 0 0 0 0 0 0 0 0 0 0 0 0 127 0" result="hardAlpha"/>
<feOffset dy="1"/>
<feComposite in2="hardAlpha" operator="out"/>
<feColorMatrix type="matrix" values="0 0 0 0 0 0 0 0 0 0 0 0 0 0 0 0 0 0 0.25 0"/>
<feBlend mode="normal" in2="BackgroundImageFix" result="effect1_dropShadow_638_628"/>
<feBlend mode="normal" in="SourceGraphic" in2="effect1_dropShadow_638_628" result="shape"/>
</filter>
<filter id="filter12_d_638_628" x="2.99902" y="145" width="16" height="23" filterUnits="userSpaceOnUse" color-interpolation-filters="sRGB">
<feFlood flood-opacity="0" result="BackgroundImageFix"/>
<feColorMatrix in="SourceAlpha" type="matrix" values="0 0 0 0 0 0 0 0 0 0 0 0 0 0 0 0 0 0 127 0" result="hardAlpha"/>
<feOffset dy="1"/>
<feComposite in2="hardAlpha" operator="out"/>
<feColorMatrix type="matrix" values="0 0 0 0 0 0 0 0 0 0 0 0 0 0 0 0 0 0 0.25 0"/>
<feBlend mode="normal" in2="BackgroundImageFix" result="effect1_dropShadow_638_628"/>
<feBlend mode="normal" in="SourceGraphic" in2="effect1_dropShadow_638_628" result="shape"/>
</filter>
<filter id="filter13_d_638_628" x="188.999" y="180" width="31" height="43" filterUnits="userSpaceOnUse" color-interpolation-filters="sRGB">
<feFlood flood-opacity="0" result="BackgroundImageFix"/>
<feColorMatrix in="SourceAlpha" type="matrix" values="0 0 0 0 0 0 0 0 0 0 0 0 0 0 0 0 0 0 127 0" result="hardAlpha"/>
<feOffset dy="1"/>
<feComposite in2="hardAlpha" operator="out"/>
<feColorMatrix type="matrix" values="0 0 0 0 0 0 0 0 0 0 0 0 0 0 0 0 0 0 0.25 0"/>
<feBlend mode="normal" in2="BackgroundImageFix" result="effect1_dropShadow_638_628"/>
<feBlend mode="normal" in="SourceGraphic" in2="effect1_dropShadow_638_628" result="shape"/>
</filter>
<filter id="filter14_d_638_628" x="126.999" y="0" width="46" height="62" filterUnits="userSpaceOnUse" color-interpolation-filters="sRGB">
<feFlood flood-opacity="0" result="BackgroundImageFix"/>
<feColorMatrix in="SourceAlpha" type="matrix" values="0 0 0 0 0 0 0 0 0 0 0 0 0 0 0 0 0 0 127 0" result="hardAlpha"/>
<feOffset dy="1"/>
<feComposite in2="hardAlpha" operator="out"/>
<feColorMatrix type="matrix" values="0 0 0 0 0 0 0 0 0 0 0 0 0 0 0 0 0 0 0.25 0"/>
<feBlend mode="normal" in2="BackgroundImageFix" result="effect1_dropShadow_638_628"/>
<feBlend mode="normal" in="SourceGraphic" in2="effect1_dropShadow_638_628" result="shape"/>
</filter>
<linearGradient id="paint0_linear_638_628" x1="85.8984" y1="85.4592" x2="135.827" y2="190.466" gradientUnits="userSpaceOnUse">
<stop stop-color="white"/>
<stop offset="1" stop-color="#F2E7D1"/>
</linearGradient>
<linearGradient id="paint1_linear_638_628" x1="68.8465" y1="176.433" x2="93.0266" y2="214.347" gradientUnits="userSpaceOnUse">
<stop stop-color="#F36E76"/>
<stop offset="1" stop-color="#770000"/>
</linearGradient>
<linearGradient id="paint2_linear_638_628" x1="112.736" y1="106.029" x2="137.75" y2="169.692" gradientUnits="userSpaceOnUse">
<stop stop-color="#F36E76"/>
<stop offset="1" stop-color="#9F242B"/>
</linearGradient>
<linearGradient id="paint3_linear_638_628" x1="165.408" y1="77.9746" x2="172.398" y2="122.213" gradientUnits="userSpaceOnUse">
<stop stop-color="#F36E76"/>
<stop offset="1" stop-color="#9F242B"/>
</linearGradient>
<linearGradient id="paint4_linear_638_628" x1="219.875" y1="103.186" x2="197.474" y2="126.086" gradientUnits="userSpaceOnUse">
<stop stop-color="#F36E76"/>
<stop offset="1" stop-color="#9F242B"/>
</linearGradient>
<linearGradient id="paint5_linear_638_628" x1="189.482" y1="162.879" x2="207.523" y2="140.053" gradientUnits="userSpaceOnUse">
<stop stop-color="#9F242B"/>
<stop offset="1" stop-color="#F36E76"/>
</linearGradient>
<linearGradient id="paint6_linear_638_628" x1="108.868" y1="134.15" x2="44.2335" y2="157.829" gradientUnits="userSpaceOnUse">
<stop stop-color="#63191E"/>
<stop offset="1" stop-color="#E64852"/>
</linearGradient>
<linearGradient id="paint7_linear_638_628" x1="120.261" y1="145.494" x2="96.7036" y2="208.14" gradientUnits="userSpaceOnUse">
<stop stop-color="#6A1D22"/>
<stop offset="1" stop-color="#EB535C"/>
</linearGradient>
<linearGradient id="paint8_linear_638_628" x1="90.9176" y1="140.753" x2="77.091" y2="87.1231" gradientUnits="userSpaceOnUse">
<stop stop-color="#9F242B"/>
<stop offset="1" stop-color="#390D0F"/>
</linearGradient>
<linearGradient id="paint9_linear_638_628" x1="90.9176" y1="140.753" x2="77.091" y2="87.1231" gradientUnits="userSpaceOnUse">
<stop stop-color="#9F242B"/>
<stop offset="1" stop-color="#390D0F"/>
</linearGradient>
<linearGradient id="paint10_linear_638_628" x1="117.224" y1="92.1669" x2="93.2093" y2="120.968" gradientUnits="userSpaceOnUse">
<stop stop-color="#FF878E"/>
<stop offset="1" stop-color="#901E25"/>
</linearGradient>
<linearGradient id="paint11_linear_638_628" x1="117.224" y1="92.1669" x2="93.2093" y2="120.968" gradientUnits="userSpaceOnUse">
<stop stop-color="#FF878E"/>
<stop offset="1" stop-color="#901E25"/>
</linearGradient>
<linearGradient id="paint12_linear_638_628" x1="124.524" y1="154.751" x2="161.532" y2="189" gradientUnits="userSpaceOnUse">
<stop stop-color="#901E25"/>
<stop offset="1" stop-color="#2A090B"/>
</linearGradient>
<linearGradient id="paint13_linear_638_628" x1="124.524" y1="154.751" x2="161.532" y2="189" gradientUnits="userSpaceOnUse">
<stop stop-color="#901E25"/>
<stop offset="1" stop-color="#2A090B"/>
</linearGradient>
<linearGradient id="paint14_linear_638_628" x1="161.255" y1="147.796" x2="136.124" y2="165.894" gradientUnits="userSpaceOnUse">
<stop stop-color="#FF7880"/>
<stop offset="1" stop-color="#901E25"/>
</linearGradient>
<linearGradient id="paint15_linear_638_628" x1="161.255" y1="147.796" x2="136.124" y2="165.894" gradientUnits="userSpaceOnUse">
<stop stop-color="#FF7880"/>
<stop offset="1" stop-color="#901E25"/>
</linearGradient>
<linearGradient id="paint16_linear_638_628" x1="119.677" y1="135.972" x2="107.11" y2="148.593" gradientUnits="userSpaceOnUse">
<stop stop-color="#F36E76"/>
<stop offset="1" stop-color="#8D4044"/>
</linearGradient>
</defs>
</svg>
