<svg width="24" height="23" viewBox="0 0 24 23" fill="none" xmlns="http://www.w3.org/2000/svg">
<path d="M23.0422 9.50922H22.1448V9.46298H12.1177V13.9194H18.4142C17.4956 16.5137 15.0273 18.3759 12.1177 18.3759C8.42612 18.3759 5.43304 15.3828 5.43304 11.6912C5.43304 7.99959 8.42612 5.00651 12.1177 5.00651C13.8218 5.00651 15.3721 5.64936 16.5525 6.69941L19.7038 3.54814C17.714 1.69369 15.0523 0.550049 12.1177 0.550049C5.96503 0.550049 0.976562 5.53851 0.976562 11.6912C0.976562 17.8439 5.96503 22.8324 12.1177 22.8324C18.2705 22.8324 23.2589 17.8439 23.2589 11.6912C23.2589 10.9442 23.1821 10.215 23.0422 9.50922Z" fill="#FFB863"/>
<path d="M2.26367 6.50531L5.92411 9.18978C6.91456 6.73761 9.31326 5.00627 12.1203 5.00627C13.8243 5.00627 15.3746 5.64912 16.555 6.69917L19.7063 3.54789C17.7165 1.69345 15.0549 0.549805 12.1203 0.549805C7.84095 0.549805 4.12982 2.96577 2.26367 6.50531Z" fill="#E88E21"/>
<path d="M12.1186 22.8316C14.9964 22.8316 17.6112 21.7303 19.5882 19.9393L16.1401 17.0215C15.0215 17.8687 13.6311 18.3751 12.1186 18.3751C9.22082 18.3751 6.76028 16.5274 5.83334 13.9487L2.2002 16.7479C4.04406 20.356 7.78862 22.8316 12.1186 22.8316Z" fill="#FFF3B6"/>
<path d="M23.0417 9.50913H22.1443V9.46289H12.1172V13.9194H18.4136C17.9724 15.1655 17.1708 16.2401 16.1369 17.0227C16.1375 17.0222 16.138 17.0222 16.1386 17.0216L19.5868 19.9395C19.3428 20.1612 23.2584 17.2617 23.2584 11.6911C23.2584 10.9441 23.1815 10.2149 23.0417 9.50913Z" fill="white"/>
</svg>
