<svg xmlns="http://www.w3.org/2000/svg" fill="none" viewBox="1.65 9.04 112.27 18.26">
<path d="M1.90709 26V21.6319C1.90709 20.5333 2.12506 19.6876 2.561 19.0947C2.99695 18.5018 3.61598 18.0833 4.41812 17.8392L4.44427 17.7345L1.64552 16.7144V16.0344C1.64552 15.1799 1.89837 14.3952 2.40406 13.6803C2.90976 12.9653 3.65086 12.3986 4.62737 11.9801C5.62132 11.5442 6.82452 11.3262 8.23697 11.3262C9.56224 11.3262 10.7044 11.5354 11.6635 11.9539C12.6226 12.355 13.3637 12.9653 13.8868 13.7849C14.4274 14.587 14.6976 15.6071 14.6976 16.8452V26H10.7742V17.0806C10.7742 16.2087 10.5387 15.5548 10.0679 15.1189C9.61455 14.6829 8.96935 14.465 8.13234 14.465C7.33021 14.465 6.72861 14.6393 6.32754 14.9881C5.92648 15.3194 5.70851 15.7292 5.67363 16.2175L8.00156 17.2899L7.71384 18.99C7.08608 19.0249 6.61527 19.2516 6.30139 19.6701C5.98751 20.0886 5.83057 20.6553 5.83057 21.3703V26H1.90709ZM22.3621 26.34C20.3742 26.34 18.8659 25.9041 17.837 25.0322C16.8256 24.1429 16.32 22.8699 16.32 21.2134V20.1932C16.32 19.4783 16.3984 18.8854 16.5554 18.4146C16.7297 17.9438 16.9564 17.5166 17.2354 17.1329C17.5144 16.7493 17.7411 16.4093 17.9155 16.1128C18.1073 15.799 18.2032 15.4764 18.2032 15.145C18.2032 14.8312 18.1248 14.6132 17.9678 14.4911C17.8283 14.3516 17.6365 14.2819 17.3924 14.2819C17.218 14.2819 17.0349 14.308 16.8431 14.3603C16.6687 14.4127 16.4682 14.4911 16.2415 14.5958L15.6137 12.137C16.102 11.8755 16.6251 11.7011 17.1831 11.6139C17.7586 11.5093 18.2643 11.457 18.7002 11.457C19.4675 11.457 20.0778 11.579 20.5312 11.8232C21.002 12.0673 21.342 12.416 21.5513 12.8694C21.7605 13.3228 21.8651 13.8634 21.8651 14.4911C21.8651 15.0317 21.7867 15.5112 21.6297 15.9297C21.4728 16.3308 21.2723 16.7493 21.0281 17.1852C20.8014 17.5863 20.6009 17.9612 20.4265 18.31C20.2696 18.6587 20.1911 19.1644 20.1911 19.8271V20.821C20.1911 21.3964 20.2696 21.8673 20.4265 22.2335C20.6009 22.5997 20.8538 22.8699 21.1851 23.0443C21.5164 23.2013 21.9087 23.2797 22.3621 23.2797C23.1119 23.2797 23.6438 23.0792 23.9577 22.6781C24.289 22.2596 24.4546 21.7016 24.4546 21.0041V18.4669C24.4546 17.9438 24.3326 17.534 24.0884 17.2376C23.8618 16.9237 23.4694 16.7667 22.9114 16.7667H22.7806V14.7004H22.9376C23.4781 14.7004 23.8792 14.5522 24.1408 14.2557C24.4023 13.9593 24.568 13.5844 24.6377 13.131C24.7249 12.6602 24.7685 12.1719 24.7685 11.6662H28.6658C28.6658 12.7299 28.5263 13.6105 28.2473 14.308C27.9683 15.0055 27.4801 15.4764 26.7826 15.7205V15.8251C27.2011 15.9472 27.5237 16.139 27.7504 16.4006C27.977 16.6447 28.134 16.9411 28.2212 17.2899C28.3084 17.6386 28.352 18.0223 28.352 18.4408V21.1087C28.352 22.8351 27.8463 24.1429 26.8349 25.0322C25.8235 25.9041 24.3326 26.34 22.3621 26.34ZM31.8942 26.2415C31.2812 26.2415 30.7548 26.0248 30.3152 25.5913C29.8817 25.1516 29.665 24.6253 29.665 24.0123C29.665 23.4054 29.8817 22.8852 30.3152 22.4518C30.7548 22.0183 31.2812 21.8016 31.8942 21.8016C32.4887 21.8016 33.0088 22.0183 33.4547 22.4518C33.9005 22.8852 34.1235 23.4054 34.1235 24.0123C34.1235 24.4209 34.0182 24.7956 33.8077 25.1362C33.6033 25.4706 33.3339 25.7399 32.9996 25.9443C32.6652 26.1424 32.2967 26.2415 31.8942 26.2415Z" fill="#FFFAE2"/>
<path d="M46.7156 16.176L45.6933 12.6526H46.6642L47.4422 15.398H47.4807C47.5493 15.398 47.6136 15.3787 47.6736 15.3402C47.7336 15.3016 47.7851 15.2502 47.8279 15.1859C47.9137 15.0658 47.978 14.9244 48.0208 14.7615C48.0637 14.5943 48.0851 14.4293 48.0851 14.2664C48.0851 13.9792 48.0294 13.7585 47.918 13.6042C47.8108 13.4498 47.6608 13.3727 47.4679 13.3727C47.4293 13.3727 47.3929 13.3748 47.3586 13.3791C47.3286 13.3834 47.3007 13.392 47.275 13.4048L47.095 12.6654C47.1935 12.6354 47.2857 12.6183 47.3714 12.614C47.4614 12.6054 47.5343 12.6011 47.59 12.6011C47.8172 12.6011 48.0144 12.6311 48.1816 12.6911C48.3487 12.7511 48.4923 12.8412 48.6124 12.9612C48.7624 13.1069 48.8738 13.2891 48.9467 13.5077C49.0239 13.7263 49.0624 13.9728 49.0624 14.2471C49.0624 14.5943 49.0067 14.8987 48.8953 15.1601C48.7881 15.4173 48.6574 15.6209 48.5031 15.771C48.3745 15.8953 48.2116 15.9939 48.0144 16.0667C47.8215 16.1396 47.5557 16.176 47.2171 16.176H46.7156ZM50.7167 16.176V13.8485C50.7167 13.6684 50.6739 13.5377 50.5881 13.4563C50.5067 13.3748 50.3717 13.3341 50.1831 13.3341C50.0416 13.3341 49.9109 13.3534 49.7908 13.392C49.6751 13.4306 49.5658 13.4777 49.4629 13.5334V12.7619C49.5572 12.719 49.6901 12.6761 49.8616 12.6333C50.033 12.5904 50.2345 12.569 50.466 12.569C50.7017 12.569 50.9096 12.6033 51.0896 12.6718C51.274 12.7404 51.4176 12.8562 51.5204 13.0191C51.6276 13.1776 51.6812 13.3963 51.6812 13.6749V16.176H50.7167ZM53.7809 16.2403C53.5194 16.2403 53.2987 16.191 53.1187 16.0924C52.9429 15.9896 52.8079 15.8374 52.7136 15.6359C52.6236 15.4345 52.5786 15.188 52.5786 14.8965V12.6526H53.543V14.7293C53.543 14.9651 53.5902 15.1366 53.6845 15.2437C53.7788 15.3509 53.9159 15.4045 54.096 15.4045C54.3232 15.4045 54.4989 15.3187 54.6232 15.1473C54.7475 14.9715 54.8097 14.7015 54.8097 14.3371V12.6526H55.7741V16.176H55.0411L54.9383 15.6359H54.8804C54.8075 15.8074 54.6811 15.951 54.501 16.0667C54.3253 16.1825 54.0853 16.2403 53.7809 16.2403ZM56.7031 16.176V15.1023C56.7031 14.8322 56.7567 14.6243 56.8639 14.4786C56.971 14.3328 57.1232 14.23 57.3204 14.17L57.3268 14.1442L56.6388 13.8935V13.7263C56.6388 13.5163 56.701 13.3234 56.8253 13.1476C56.9496 12.9719 57.1318 12.8326 57.3718 12.7297C57.6161 12.6226 57.9119 12.569 58.2591 12.569C58.5849 12.569 58.8656 12.6204 59.1014 12.7233C59.3371 12.8219 59.5193 12.9719 59.6479 13.1734C59.7808 13.3705 59.8472 13.6213 59.8472 13.9256V16.176H58.8828V13.9835C58.8828 13.7692 58.8249 13.6084 58.7092 13.5013C58.5977 13.3941 58.4391 13.3405 58.2334 13.3405C58.0362 13.3405 57.8883 13.3834 57.7897 13.4691C57.6911 13.5506 57.6376 13.6513 57.629 13.7713L58.2012 14.0349L58.1305 14.4529C57.9762 14.4614 57.8605 14.5172 57.7833 14.62C57.7061 14.7229 57.6676 14.8622 57.6676 15.038V16.176H56.7031ZM56.8008 12.1639V11.7588L57.4502 11.4888H59.7456V12.1639H56.8008ZM61.0369 16.176V14.6972H60.6704V14.1057H61.9049V15.443H61.9499C62.0913 15.443 62.2114 15.4045 62.3099 15.3273C62.4128 15.2502 62.49 15.1366 62.5414 14.9865C62.5928 14.8322 62.6186 14.6393 62.6186 14.4079C62.6186 14.1421 62.58 13.9321 62.5028 13.7778C62.43 13.6192 62.3207 13.5056 62.1749 13.437C62.0292 13.3684 61.8491 13.3341 61.6348 13.3341C61.4119 13.3341 61.2105 13.3663 61.0304 13.4306C60.8504 13.4906 60.6897 13.5634 60.5482 13.6492V12.8454C60.6897 12.7726 60.8676 12.7083 61.0819 12.6526C61.2962 12.5968 61.5427 12.569 61.8213 12.569C62.2371 12.569 62.5736 12.6354 62.8307 12.7683C63.0922 12.9012 63.2851 13.1026 63.4094 13.3727C63.5337 13.6427 63.5959 13.9814 63.5959 14.3886C63.5959 14.7701 63.538 15.0958 63.4223 15.3659C63.3108 15.6316 63.1265 15.8331 62.8693 15.9703C62.6164 16.1074 62.2778 16.176 61.8534 16.176H61.0369ZM64.307 16.176V15.1023C64.307 14.8322 64.3605 14.6243 64.4677 14.4786C64.5749 14.3328 64.727 14.23 64.9242 14.17L64.9306 14.1442L64.2427 13.8935V13.7263C64.2427 13.5163 64.3048 13.3234 64.4291 13.1476C64.5534 12.9719 64.7356 12.8326 64.9757 12.7297C65.22 12.6226 65.5157 12.569 65.8629 12.569C66.1887 12.569 66.4695 12.6204 66.7052 12.7233C66.941 12.8219 67.1232 12.9719 67.2518 13.1734C67.3846 13.3705 67.4511 13.6213 67.4511 13.9256V16.176H66.4866V13.9835C66.4866 13.7692 66.4288 13.6084 66.313 13.5013C66.2016 13.3941 66.043 13.3405 65.8372 13.3405C65.6401 13.3405 65.4922 13.3834 65.3936 13.4691C65.295 13.5506 65.2414 13.6513 65.2328 13.7713L65.8051 14.0349L65.7344 14.4529C65.58 14.4614 65.4643 14.5172 65.3872 14.62C65.31 14.7229 65.2714 14.8622 65.2714 15.038V16.176H64.307ZM69.5602 16.2596C69.3073 16.2596 69.0522 16.2317 68.795 16.176C68.5421 16.1203 68.3171 16.041 68.1199 15.9381L68.39 15.173C68.4757 15.2201 68.5786 15.2694 68.6986 15.3209C68.8186 15.3723 68.9493 15.4152 69.0908 15.4495C69.2323 15.4838 69.3758 15.5009 69.5216 15.5009C69.693 15.5009 69.8216 15.4773 69.9074 15.4302C69.9974 15.3787 70.0424 15.3016 70.0424 15.1987C70.0424 15.1216 70.0124 15.0594 69.9524 15.0123C69.8967 14.9608 69.8131 14.9137 69.7016 14.8708C69.5902 14.8236 69.4573 14.7744 69.303 14.7229C69.0758 14.6415 68.8808 14.5536 68.7179 14.4593C68.555 14.365 68.4285 14.2493 68.3385 14.1121C68.2528 13.9749 68.2099 13.8035 68.2099 13.5977C68.2099 13.362 68.2699 13.1691 68.39 13.0191C68.51 12.869 68.6793 12.7576 68.8979 12.6847C69.1165 12.6076 69.3716 12.569 69.663 12.569C69.9031 12.569 70.1195 12.5883 70.3124 12.6268C70.5053 12.6654 70.6554 12.7147 70.7625 12.7747V13.5334C70.6896 13.4991 70.5932 13.4648 70.4732 13.4306C70.3574 13.3963 70.231 13.3684 70.0938 13.347C69.9609 13.3212 69.8324 13.3084 69.708 13.3084C69.5323 13.3084 69.3994 13.332 69.3094 13.3791C69.2194 13.4263 69.1744 13.4927 69.1744 13.5784C69.1744 13.647 69.2044 13.7049 69.2644 13.752C69.3287 13.7992 69.4209 13.8442 69.5409 13.8871C69.6609 13.9256 69.8045 13.9749 69.9717 14.0349C70.1946 14.1121 70.3832 14.1978 70.5375 14.2921C70.6918 14.3864 70.8075 14.5022 70.8847 14.6393C70.9661 14.7765 71.0068 14.9458 71.0068 15.1473C71.0068 15.3402 70.9618 15.5223 70.8718 15.6938C70.7861 15.861 70.6382 15.9981 70.4282 16.1053C70.2181 16.2082 69.9288 16.2596 69.5602 16.2596ZM72.888 16.2596C72.6351 16.2596 72.3801 16.2317 72.1229 16.176C71.87 16.1203 71.645 16.041 71.4478 15.9381L71.7178 15.173C71.8036 15.2201 71.9064 15.2694 72.0265 15.3209C72.1465 15.3723 72.2772 15.4152 72.4187 15.4495C72.5601 15.4838 72.7037 15.5009 72.8495 15.5009C73.0209 15.5009 73.1495 15.4773 73.2352 15.4302C73.3252 15.3787 73.3703 15.3016 73.3703 15.1987C73.3703 15.1216 73.3402 15.0594 73.2802 15.0123C73.2245 14.9608 73.1409 14.9137 73.0295 14.8708C72.918 14.8236 72.7852 14.7744 72.6308 14.7229C72.4037 14.6415 72.2086 14.5536 72.0457 14.4593C71.8829 14.365 71.7564 14.2493 71.6664 14.1121C71.5807 13.9749 71.5378 13.8035 71.5378 13.5977C71.5378 13.362 71.5978 13.1691 71.7178 13.0191C71.8378 12.869 72.0072 12.7576 72.2258 12.6847C72.4444 12.6076 72.6994 12.569 72.9909 12.569C73.2309 12.569 73.4474 12.5883 73.6403 12.6268C73.8332 12.6654 73.9832 12.7147 74.0904 12.7747V13.5334C74.0175 13.4991 73.9211 13.4648 73.801 13.4306C73.6853 13.3963 73.5589 13.3684 73.4217 13.347C73.2888 13.3212 73.1602 13.3084 73.0359 13.3084C72.8602 13.3084 72.7273 13.332 72.6373 13.3791C72.5473 13.4263 72.5022 13.4927 72.5022 13.5784C72.5022 13.647 72.5323 13.7049 72.5923 13.752C72.6566 13.7992 72.7487 13.8442 72.8687 13.8871C72.9888 13.9256 73.1324 13.9749 73.2995 14.0349C73.5224 14.1121 73.711 14.1978 73.8653 14.2921C74.0197 14.3864 74.1354 14.5022 74.2125 14.6393C74.294 14.7765 74.3347 14.9458 74.3347 15.1473C74.3347 15.3402 74.2897 15.5223 74.1997 15.6938C74.114 15.861 73.9661 15.9981 73.756 16.1053C73.546 16.2082 73.2567 16.2596 72.888 16.2596ZM77.0839 16.2403C76.7796 16.2403 76.5331 16.1825 76.3445 16.0667C76.1602 15.951 76.0294 15.8031 75.9523 15.6231H75.9008L75.798 16.176H75.065V12.6526H76.0294V14.3371C76.0294 14.5815 76.0573 14.7829 76.113 14.9415C76.1687 15.0958 76.2502 15.2116 76.3573 15.2887C76.4645 15.3659 76.5931 15.4045 76.7431 15.4045C76.9232 15.4045 77.0603 15.3509 77.1546 15.2437C77.2489 15.1366 77.2961 14.9651 77.2961 14.7293V12.6526H78.2605V14.9415C78.2605 15.2201 78.2155 15.4559 78.1255 15.6488C78.0398 15.8417 77.909 15.9896 77.7333 16.0924C77.5576 16.191 77.3411 16.2403 77.0839 16.2403ZM79.5239 16.176L78.913 12.6526H79.8518L80.0254 13.8935C80.0382 13.9964 80.0532 14.1378 80.0704 14.3178C80.0918 14.4936 80.1111 14.6993 80.1283 14.9351H80.1475C80.1861 14.7765 80.2204 14.6329 80.2504 14.5043C80.2804 14.3714 80.3083 14.2536 80.334 14.1507C80.364 14.0435 80.3897 13.9514 80.4112 13.8742L80.7584 12.6526H81.3435L81.6907 13.8742C81.7121 13.9514 81.7357 14.0435 81.7614 14.1507C81.7914 14.2536 81.8214 14.3714 81.8514 14.5043C81.8857 14.6329 81.92 14.7765 81.9543 14.9351H81.9736C81.995 14.6993 82.0121 14.4936 82.025 14.3178C82.0422 14.1378 82.0593 13.9964 82.0764 13.8935L82.2565 12.6526H83.1888L82.5844 16.176H81.6392L81.2342 14.7422C81.1913 14.575 81.157 14.4229 81.1313 14.2857C81.1099 14.1442 81.0884 14.0006 81.067 13.8549H81.0413C81.0241 13.9535 81.007 14.0478 80.9898 14.1378C80.977 14.2278 80.9598 14.3221 80.9384 14.4207C80.917 14.515 80.8891 14.6222 80.8548 14.7422L80.4433 16.176H79.5239ZM81.9951 12.1639C81.7937 12.1639 81.6351 12.1339 81.5193 12.0739C81.4036 12.0139 81.3221 11.9389 81.275 11.8488C81.2236 11.7545 81.1978 11.656 81.1978 11.5531C81.1978 11.4802 81.2086 11.4031 81.23 11.3216C81.2514 11.2359 81.2836 11.1566 81.3264 11.0837L82.0273 11.1737C82.0187 11.2037 82.0123 11.2359 82.008 11.2702C81.9994 11.3002 81.9951 11.328 81.9951 11.3538C81.9951 11.4138 82.0144 11.4609 82.053 11.4952C82.0873 11.5252 82.1473 11.5402 82.233 11.5402H83.6154V12.1639H81.9951ZM85.147 16.2403C84.7784 16.2403 84.4891 16.1632 84.279 16.0089C84.0733 15.8545 83.9275 15.6381 83.8418 15.3595C83.7604 15.0765 83.7196 14.7465 83.7196 14.3693C83.7196 13.9492 83.7604 13.6084 83.8418 13.347C83.9232 13.0855 84.0433 12.8947 84.2019 12.7747C84.3605 12.6504 84.5555 12.5883 84.787 12.5883C84.937 12.5883 85.0656 12.6183 85.1727 12.6783C85.2842 12.734 85.3742 12.839 85.4428 12.9933H85.4685C85.5285 12.8347 85.6271 12.7276 85.7643 12.6718C85.9014 12.6161 86.0429 12.5883 86.1886 12.5883C86.463 12.5883 86.673 12.6676 86.8187 12.8262C86.9645 12.9848 87.0373 13.2162 87.0373 13.5206V14.5557C87.0373 14.7272 87.0631 14.8772 87.1145 15.0058C87.1659 15.1301 87.2367 15.2287 87.3267 15.3016C87.4167 15.3702 87.5217 15.4045 87.6417 15.4045C87.7746 15.4045 87.8839 15.3595 87.9697 15.2694C88.0554 15.1794 88.0982 15.0315 88.0982 14.8258V12.6526H89.0627V15.038C89.0627 15.3037 89.0241 15.5266 88.947 15.7067C88.8741 15.8867 88.7605 16.0217 88.6062 16.1117C88.4519 16.1975 88.259 16.2403 88.0275 16.2403C87.7446 16.2403 87.5174 16.1803 87.346 16.0603C87.1788 15.9403 87.0566 15.7945 86.9795 15.6231H86.928L86.8252 16.176H86.0858V13.7006C86.0858 13.5634 86.0665 13.4734 86.0279 13.4306C85.9893 13.3834 85.9357 13.3598 85.8671 13.3598C85.7986 13.3598 85.7428 13.3834 85.7 13.4306C85.6614 13.4777 85.6357 13.557 85.6228 13.6684H85.2499C85.2328 13.5441 85.2027 13.4627 85.1599 13.4241C85.117 13.3813 85.0677 13.3598 85.012 13.3598C84.9434 13.3598 84.8834 13.392 84.832 13.4563C84.7848 13.5163 84.7484 13.6192 84.7227 13.7649C84.6969 13.9063 84.6841 14.1035 84.6841 14.3564C84.6841 14.6093 84.7012 14.8215 84.7355 14.993C84.7698 15.1644 84.832 15.293 84.922 15.3787C85.012 15.4645 85.1406 15.5073 85.3078 15.5073C85.3549 15.5073 85.3978 15.5052 85.4364 15.5009C85.4792 15.4923 85.5178 15.4816 85.5521 15.4688L85.6485 16.1567C85.58 16.1867 85.5049 16.2082 85.4235 16.221C85.3421 16.2339 85.2499 16.2403 85.147 16.2403ZM91.0969 16.2403C90.8355 16.2403 90.6147 16.191 90.4347 16.0924C90.2589 15.9896 90.1239 15.8374 90.0296 15.6359C89.9396 15.4345 89.8946 15.188 89.8946 14.8965V12.6526H90.859V14.7293C90.859 14.9651 90.9062 15.1366 91.0005 15.2437C91.0948 15.3509 91.232 15.4045 91.412 15.4045C91.6392 15.4045 91.8149 15.3187 91.9392 15.1473C92.0635 14.9715 92.1257 14.7015 92.1257 14.3371V12.6526H93.0901V16.176H92.3572L92.2543 15.6359H92.1964C92.1235 15.8074 91.9971 15.951 91.8171 16.0667C91.6413 16.1825 91.4013 16.2403 91.0969 16.2403ZM94.9836 16.176V13.8485C94.9836 13.6684 94.9407 13.5377 94.855 13.4563C94.7735 13.3748 94.6385 13.3341 94.4499 13.3341C94.3085 13.3341 94.1777 13.3534 94.0577 13.392C93.942 13.4306 93.8327 13.4777 93.7298 13.5334V12.7619C93.8241 12.719 93.957 12.6761 94.1284 12.6333C94.2999 12.5904 94.5014 12.569 94.7328 12.569C94.9686 12.569 95.1765 12.6033 95.3565 12.6718C95.5408 12.7404 95.6844 12.8562 95.7873 13.0191C95.8945 13.1776 95.948 13.3963 95.948 13.6749V16.176H94.9836ZM96.8776 16.176V13.437C96.8776 13.2184 96.914 13.0469 96.9869 12.9226C97.064 12.7983 97.1691 12.7126 97.3019 12.6654C97.4348 12.614 97.587 12.5883 97.7584 12.5883C97.8785 12.5883 97.9856 12.6011 98.0799 12.6268C98.1742 12.6483 98.2514 12.674 98.3114 12.704L98.1828 13.3341C98.1485 13.3255 98.1142 13.3191 98.0799 13.3148C98.0456 13.3105 98.0178 13.3084 97.9963 13.3084C97.9149 13.3084 97.857 13.3298 97.8227 13.3727C97.7927 13.4155 97.7777 13.4777 97.7777 13.5591V14.1571C97.7777 14.2643 97.7734 14.3929 97.7649 14.5429C97.7563 14.6886 97.7413 14.8729 97.7199 15.0958H97.752C97.8377 14.8944 97.9128 14.7336 97.9771 14.6136C98.0456 14.4893 98.1056 14.38 98.1571 14.2857L98.395 13.8549H98.755L98.9929 14.2857C99.053 14.3886 99.1044 14.4829 99.1473 14.5686C99.1901 14.65 99.2308 14.7315 99.2694 14.8129C99.308 14.8944 99.3509 14.9887 99.398 15.0958H99.4302C99.4087 14.8729 99.3937 14.6886 99.3852 14.5429C99.3766 14.3929 99.3723 14.2643 99.3723 14.1571V12.6526H100.272V16.176H99.353L98.5879 14.7744H98.5622L97.797 16.176H96.8776ZM99.2862 17.8799C98.9433 17.8799 98.6926 17.8285 98.534 17.7256C98.3754 17.6227 98.2961 17.4877 98.2961 17.3205V17.2112C98.2961 17.1383 98.2768 17.0933 98.2382 17.0762C98.1996 17.0633 98.1482 17.0655 98.0839 17.0826L98.0389 16.6518C98.0989 16.6261 98.1761 16.609 98.2704 16.6004C98.3647 16.5918 98.4418 16.5875 98.5018 16.5875C98.6904 16.5875 98.8276 16.6218 98.9133 16.6904C98.9948 16.759 99.0355 16.8554 99.0355 16.9797V17.1276C99.0355 17.2005 99.0526 17.2562 99.0869 17.2948C99.1169 17.3377 99.1748 17.3591 99.2605 17.3591C99.3505 17.3591 99.4127 17.3377 99.447 17.2948C99.4813 17.2562 99.4984 17.2005 99.4984 17.1276V16.6068H100.283V17.2305C100.283 17.4405 100.204 17.6013 100.045 17.7127C99.8864 17.8242 99.6334 17.8799 99.2862 17.8799ZM98.3347 12.1703V11.8488C98.3947 11.8317 98.4611 11.8081 98.534 11.7781C98.6068 11.7481 98.6711 11.7074 98.7269 11.656C98.7826 11.6045 98.8104 11.5402 98.8104 11.4631C98.8104 11.4031 98.7933 11.3559 98.759 11.3216C98.7247 11.2873 98.6819 11.2702 98.6304 11.2702C98.5961 11.2702 98.5597 11.2766 98.5211 11.2895C98.4825 11.3023 98.4482 11.3152 98.4182 11.328L98.2961 10.8973C98.3818 10.8244 98.489 10.7772 98.6176 10.7558C98.7419 10.7301 98.8469 10.7172 98.9326 10.7172C99.1255 10.7172 99.2777 10.7622 99.3891 10.8522C99.4963 10.9423 99.5499 11.0751 99.5499 11.2509C99.5499 11.3452 99.5263 11.4331 99.4791 11.5145C99.4277 11.5959 99.3505 11.6624 99.2477 11.7138L99.2219 11.5467H100.437V12.1703H98.3347ZM102.218 16.2403C102.025 16.2403 101.863 16.2103 101.73 16.1503C101.597 16.0903 101.496 16.0003 101.427 15.8803C101.359 15.756 101.325 15.6016 101.325 15.4173V12.6526H102.289V15.3016C102.289 15.383 102.306 15.443 102.34 15.4816C102.379 15.5202 102.437 15.5395 102.514 15.5395C102.548 15.5395 102.585 15.5352 102.623 15.5266C102.662 15.5181 102.698 15.5073 102.733 15.4945L102.823 16.1117C102.741 16.1546 102.649 16.1867 102.546 16.2082C102.443 16.2296 102.334 16.2403 102.218 16.2403ZM104.603 16.2596C104.35 16.2596 104.095 16.2317 103.838 16.176C103.585 16.1203 103.36 16.041 103.163 15.9381L103.433 15.173C103.519 15.2201 103.622 15.2694 103.742 15.3209C103.862 15.3723 103.992 15.4152 104.134 15.4495C104.275 15.4838 104.419 15.5009 104.565 15.5009C104.736 15.5009 104.865 15.4773 104.95 15.4302C105.04 15.3787 105.085 15.3016 105.085 15.1987C105.085 15.1216 105.055 15.0594 104.995 15.0123C104.94 14.9608 104.856 14.9137 104.745 14.8708C104.633 14.8236 104.5 14.7744 104.346 14.7229C104.119 14.6415 103.924 14.5536 103.761 14.4593C103.598 14.365 103.472 14.2493 103.382 14.1121C103.296 13.9749 103.253 13.8035 103.253 13.5977C103.253 13.362 103.313 13.1691 103.433 13.0191C103.553 12.869 103.722 12.7576 103.941 12.6847C104.16 12.6076 104.415 12.569 104.706 12.569C104.946 12.569 105.163 12.5883 105.355 12.6268C105.548 12.6654 105.698 12.7147 105.806 12.7747V13.5334C105.733 13.4991 105.636 13.4648 105.516 13.4306C105.4 13.3963 105.274 13.3684 105.137 13.347C105.004 13.3212 104.875 13.3084 104.751 13.3084C104.575 13.3084 104.442 13.332 104.352 13.3791C104.262 13.4263 104.217 13.4927 104.217 13.5784C104.217 13.647 104.247 13.7049 104.307 13.752C104.372 13.7992 104.464 13.8442 104.584 13.8871C104.704 13.9256 104.848 13.9749 105.015 14.0349C105.238 14.1121 105.426 14.1978 105.581 14.2921C105.735 14.3864 105.851 14.5022 105.928 14.6393C106.009 14.7765 106.05 14.9458 106.05 15.1473C106.05 15.3402 106.005 15.5223 105.915 15.6938C105.829 15.861 105.681 15.9981 105.471 16.1053C105.261 16.2082 104.972 16.2596 104.603 16.2596ZM102.882 12.1639V11.7588L103.532 11.4888H105.827V12.1639H102.882ZM105.004 11.7717V11.0451H105.827V11.7717H105.004ZM108.214 16.2596C107.828 16.2596 107.52 16.2146 107.288 16.1246C107.057 16.0303 106.887 15.8995 106.78 15.7324C106.677 15.5652 106.626 15.3723 106.626 15.1537C106.626 14.9651 106.654 14.8129 106.709 14.6972C106.769 14.5815 106.844 14.4936 106.934 14.4336C107.029 14.3693 107.123 14.3264 107.217 14.305V14.2664C107.119 14.2321 107.024 14.185 106.934 14.125C106.844 14.0649 106.769 13.9835 106.709 13.8806C106.654 13.7778 106.626 13.6492 106.626 13.4948C106.626 13.3362 106.662 13.1884 106.735 13.0512C106.812 12.914 106.934 12.8047 107.102 12.7233C107.269 12.6376 107.49 12.5947 107.764 12.5947C107.897 12.5947 108.025 12.6054 108.15 12.6268C108.274 12.644 108.37 12.6697 108.439 12.704L108.291 13.3534C108.257 13.3448 108.21 13.3362 108.15 13.3277C108.094 13.3148 108.036 13.3084 107.976 13.3084C107.843 13.3084 107.745 13.3405 107.68 13.4048C107.616 13.4648 107.584 13.5441 107.584 13.6427C107.584 13.7456 107.612 13.8249 107.667 13.8806C107.723 13.9364 107.794 13.9749 107.88 13.9964C107.97 14.0178 108.062 14.0285 108.156 14.0285H108.291V14.6265H108.156C107.972 14.6265 107.832 14.6586 107.738 14.7229C107.648 14.7872 107.603 14.8922 107.603 15.038C107.603 15.1151 107.62 15.1923 107.655 15.2694C107.693 15.3423 107.757 15.4045 107.847 15.4559C107.937 15.5031 108.066 15.5266 108.233 15.5266C108.392 15.5266 108.516 15.5031 108.606 15.4559C108.696 15.4087 108.76 15.3466 108.799 15.2694C108.838 15.188 108.857 15.098 108.857 14.9994V12.6526H109.821V14.9672C109.821 15.4087 109.691 15.7345 109.429 15.9446C109.172 16.1546 108.767 16.2596 108.214 16.2596ZM111.924 16.2403C111.663 16.2403 111.442 16.191 111.262 16.0924C111.086 15.9896 110.951 15.8374 110.857 15.6359C110.767 15.4345 110.722 15.188 110.722 14.8965V12.6526H111.686V14.7293C111.686 14.9651 111.734 15.1366 111.828 15.2437C111.922 15.3509 112.059 15.4045 112.239 15.4045C112.467 15.4045 112.642 15.3187 112.767 15.1473C112.891 14.9715 112.953 14.7015 112.953 14.3371V12.6526H113.918V16.176H113.185L113.082 15.6359H113.024C112.951 15.8074 112.824 15.951 112.644 16.0667C112.469 16.1825 112.229 16.2403 111.924 16.2403ZM46.3684 21.2955V20.0353C46.3684 19.7781 46.3062 19.5938 46.1819 19.4824C46.0619 19.3709 45.9076 19.3152 45.719 19.3152V19.0709L46.1948 18.8651H47.9115V19.3152H46.6063L46.5999 19.3409C46.6942 19.4052 46.7735 19.5038 46.8378 19.6367C46.9063 19.7653 46.9406 19.9346 46.9406 20.1446V21.2955H46.3684ZM47.0692 24.2403C46.9535 24.2403 46.8421 24.221 46.7349 24.1825C46.6277 24.1439 46.5399 24.0753 46.4713 23.9767C46.4027 23.8781 46.3684 23.741 46.3684 23.5652V20.6526H46.9406V23.4945C46.9406 23.5931 46.9621 23.6638 47.0049 23.7067C47.0478 23.7495 47.1164 23.771 47.2107 23.771C47.2493 23.771 47.29 23.7667 47.3329 23.7581C47.3757 23.7495 47.4164 23.7388 47.455 23.7259L47.5322 24.1439C47.4507 24.1825 47.3714 24.2082 47.2943 24.221C47.2171 24.2339 47.1421 24.2403 47.0692 24.2403ZM49.0872 24.2403C48.8343 24.2403 48.5985 24.2167 48.3799 24.1696C48.1656 24.1182 47.9834 24.0581 47.8334 23.9896L48.0006 23.5266C48.0906 23.5609 48.1935 23.5974 48.3092 23.6359C48.4249 23.6745 48.5492 23.7067 48.6821 23.7324C48.8193 23.7538 48.9586 23.7645 49.1001 23.7645C49.3272 23.7645 49.5158 23.7217 49.6659 23.6359C49.8159 23.5502 49.8909 23.4259 49.8909 23.263C49.8909 23.1644 49.863 23.0808 49.8073 23.0123C49.7559 22.9394 49.6744 22.8729 49.563 22.8129C49.4515 22.7529 49.308 22.6951 49.1322 22.6393C48.8622 22.5536 48.6328 22.4636 48.4442 22.3693C48.2599 22.2707 48.1185 22.155 48.0199 22.0221C47.9256 21.8849 47.8784 21.7156 47.8784 21.5141C47.8784 21.3341 47.9256 21.1755 48.0199 21.0383C48.1185 20.8969 48.2685 20.7876 48.47 20.7104C48.6757 20.629 48.9372 20.5883 49.2544 20.5883C49.4601 20.5883 49.653 20.6076 49.833 20.6461C50.0174 20.6804 50.161 20.7297 50.2638 20.794V21.2762C50.191 21.2419 50.0988 21.2077 49.9874 21.1734C49.8802 21.1391 49.7623 21.1112 49.6337 21.0898C49.5051 21.0683 49.3722 21.0576 49.2351 21.0576C48.9479 21.0576 48.7443 21.1026 48.6243 21.1927C48.5085 21.2784 48.4507 21.377 48.4507 21.4884C48.4507 21.5827 48.4764 21.662 48.5278 21.7263C48.5835 21.7906 48.6757 21.8528 48.8043 21.9128C48.9372 21.9728 49.1151 22.0414 49.338 22.1185C49.5437 22.1871 49.7323 22.2664 49.9038 22.3564C50.0752 22.4464 50.2103 22.56 50.3088 22.6972C50.4117 22.8301 50.4632 23.0015 50.4632 23.2116C50.4632 23.3916 50.4181 23.5609 50.3281 23.7195C50.2424 23.8738 50.0988 24.0003 49.8973 24.0989C49.6959 24.1932 49.4258 24.2403 49.0872 24.2403ZM51.8152 24.176L50.7157 20.6526H51.2944L52.246 23.6809H52.3231C52.426 23.6809 52.5267 23.6574 52.6253 23.6102C52.7239 23.5588 52.8075 23.4945 52.8761 23.4173C53.0047 23.2759 53.099 23.098 53.159 22.8837C53.219 22.665 53.249 22.4507 53.249 22.2407C53.249 21.8849 53.1676 21.6063 53.0047 21.4048C52.8461 21.1991 52.6253 21.0962 52.3424 21.0962C52.2867 21.0962 52.231 21.1005 52.1753 21.1091C52.1238 21.1176 52.081 21.1284 52.0467 21.1412L51.9052 20.6847C51.9952 20.659 52.0788 20.6418 52.156 20.6333C52.2374 20.6247 52.3103 20.6204 52.3746 20.6204C52.5889 20.6204 52.7796 20.6526 52.9468 20.7169C53.1183 20.7769 53.264 20.8669 53.384 20.9869C53.5341 21.1326 53.6434 21.3148 53.712 21.5334C53.7848 21.752 53.8213 21.9942 53.8213 22.26C53.8213 22.5943 53.7698 22.8922 53.6669 23.1537C53.5641 23.4109 53.4355 23.6166 53.2812 23.771C53.1569 23.8953 53.0047 23.9939 52.8247 24.0667C52.6446 24.1396 52.4153 24.176 52.1367 24.176H51.8152ZM55.4872 24.2403C55.3715 24.2403 55.2601 24.221 55.1529 24.1825C55.0457 24.1439 54.9579 24.0753 54.8893 23.9767C54.8207 23.8781 54.7864 23.741 54.7864 23.5652V20.6526H55.3587V23.4945C55.3587 23.5931 55.3801 23.6638 55.4229 23.7067C55.4658 23.7495 55.5344 23.771 55.6287 23.771C55.6673 23.771 55.708 23.7667 55.7509 23.7581C55.7937 23.7495 55.8344 23.7388 55.873 23.7259L55.9502 24.1439C55.8687 24.1825 55.7894 24.2082 55.7123 24.221C55.6351 24.2339 55.5601 24.2403 55.4872 24.2403ZM57.5136 24.2403C57.2607 24.2403 57.0249 24.2167 56.8063 24.1696C56.592 24.1182 56.4098 24.0581 56.2598 23.9896L56.427 23.5266C56.517 23.5609 56.6199 23.5974 56.7356 23.6359C56.8513 23.6745 56.9757 23.7067 57.1085 23.7324C57.2457 23.7538 57.385 23.7645 57.5265 23.7645C57.7536 23.7645 57.9422 23.7217 58.0923 23.6359C58.2423 23.5502 58.3173 23.4259 58.3173 23.263C58.3173 23.1644 58.2894 23.0808 58.2337 23.0123C58.1823 22.9394 58.1008 22.8729 57.9894 22.8129C57.8779 22.7529 57.7344 22.6951 57.5586 22.6393C57.2886 22.5536 57.0592 22.4636 56.8706 22.3693C56.6863 22.2707 56.5449 22.155 56.4463 22.0221C56.352 21.8849 56.3048 21.7156 56.3048 21.5141C56.3048 21.3341 56.352 21.1755 56.4463 21.0383C56.5449 20.8969 56.6949 20.7876 56.8964 20.7104C57.1021 20.629 57.3636 20.5883 57.6808 20.5883C57.8865 20.5883 58.0794 20.6076 58.2594 20.6461C58.4438 20.6804 58.5874 20.7297 58.6902 20.794V21.2762C58.6174 21.2419 58.5252 21.2077 58.4138 21.1734C58.3066 21.1391 58.1887 21.1112 58.0601 21.0898C57.9315 21.0683 57.7987 21.0576 57.6615 21.0576C57.3743 21.0576 57.1707 21.1026 57.0507 21.1927C56.9349 21.2784 56.8771 21.377 56.8771 21.4884C56.8771 21.5827 56.9028 21.662 56.9542 21.7263C57.0099 21.7906 57.1021 21.8528 57.2307 21.9128C57.3636 21.9728 57.5415 22.0414 57.7644 22.1185C57.9701 22.1871 58.1587 22.2664 58.3302 22.3564C58.5016 22.4464 58.6367 22.56 58.7352 22.6972C58.8381 22.8301 58.8896 23.0015 58.8896 23.2116C58.8896 23.3916 58.8445 23.5609 58.7545 23.7195C58.6688 23.8738 58.5252 24.0003 58.3237 24.0989C58.1223 24.1932 57.8522 24.2403 57.5136 24.2403ZM56.1512 20.0932V19.8424L56.6206 19.6367H58.8838V20.0932H56.1512ZM58.3502 19.8424V19.1159H58.8903V19.8424H58.3502ZM61.0196 24.2339C60.6724 24.2339 60.3938 24.1889 60.1837 24.0989C59.978 24.0089 59.828 23.8824 59.7336 23.7195C59.6436 23.5566 59.5986 23.3637 59.5986 23.1408C59.5986 22.9437 59.6265 22.7872 59.6822 22.6715C59.7422 22.5515 59.8151 22.4636 59.9008 22.4079C59.9908 22.3521 60.083 22.3157 60.1773 22.2986V22.2728C60.0916 22.2471 60.0016 22.2043 59.9073 22.1442C59.8129 22.0842 59.7336 22.0006 59.6694 21.8935C59.6093 21.7863 59.5793 21.6513 59.5793 21.4884C59.5793 21.3384 59.6136 21.1969 59.6822 21.0641C59.7508 20.9312 59.8622 20.8219 60.0166 20.7361C60.1709 20.6504 60.3745 20.6076 60.6274 20.6076C60.7303 20.6076 60.8374 20.6161 60.9489 20.6333C61.0603 20.6461 61.146 20.6697 61.206 20.704L61.1032 21.1476C61.056 21.1305 60.9939 21.1155 60.9167 21.1026C60.8438 21.0855 60.7667 21.0769 60.6852 21.0769C60.5052 21.0769 60.3723 21.1198 60.2866 21.2055C60.2009 21.287 60.158 21.3963 60.158 21.5334C60.158 21.6835 60.1944 21.797 60.2673 21.8742C60.3445 21.9514 60.4409 22.0049 60.5566 22.0349C60.6767 22.0607 60.801 22.0735 60.9296 22.0735H61.0517V22.4914H60.9296C60.6724 22.4914 60.4816 22.5386 60.3573 22.6329C60.2373 22.7229 60.1773 22.8751 60.1773 23.0894C60.1773 23.2137 60.2009 23.3273 60.248 23.4302C60.2995 23.5331 60.3852 23.6145 60.5052 23.6745C60.6295 23.7345 60.801 23.7645 61.0196 23.7645C61.2382 23.7645 61.4075 23.7345 61.5275 23.6745C61.6518 23.6145 61.7397 23.5288 61.7911 23.4173C61.8426 23.3016 61.8683 23.1644 61.8683 23.0058V20.6526H62.4405V22.9672C62.4405 23.4173 62.3248 23.741 62.0933 23.9381C61.8662 24.1353 61.5082 24.2339 61.0196 24.2339ZM64.6958 24.2403C64.4429 24.2403 64.2242 24.1975 64.0399 24.1117C63.8599 24.0217 63.7206 23.8867 63.622 23.7067C63.5277 23.5266 63.4805 23.293 63.4805 23.0058V20.6526H64.0528V22.9737C64.0528 23.2309 64.1171 23.4259 64.2457 23.5588C64.3786 23.6917 64.5693 23.7581 64.8179 23.7581C65.118 23.7581 65.3494 23.6617 65.5123 23.4688C65.6795 23.2759 65.7631 23.0165 65.7631 22.6908V20.6526H66.3353V24.176H65.8595L65.8338 23.6552H65.8017C65.7245 23.8267 65.5895 23.9681 65.3966 24.0796C65.208 24.1867 64.9744 24.2403 64.6958 24.2403ZM68.221 24.2403C68.1053 24.2403 67.9938 24.221 67.8867 24.1825C67.7795 24.1439 67.6917 24.0753 67.6231 23.9767C67.5545 23.8781 67.5202 23.741 67.5202 23.5652V20.6526H68.0924V23.4945C68.0924 23.5931 68.1139 23.6638 68.1567 23.7067C68.1996 23.7495 68.2682 23.771 68.3625 23.771C68.4011 23.771 68.4418 23.7667 68.4846 23.7581C68.5275 23.7495 68.5682 23.7388 68.6068 23.7259L68.684 24.1439C68.6025 24.1825 68.5232 24.2082 68.4461 24.221C68.3689 24.2339 68.2939 24.2403 68.221 24.2403ZM70.5046 24.2403C70.1445 24.2403 69.8659 24.1589 69.6687 23.996C69.4715 23.8288 69.3344 23.6038 69.2572 23.3209C69.1801 23.0337 69.1415 22.7079 69.1415 22.3436C69.1415 21.9235 69.1801 21.5849 69.2572 21.3277C69.3387 21.0705 69.4565 20.884 69.6108 20.7683C69.7652 20.6483 69.9538 20.5883 70.1767 20.5883C70.3267 20.5883 70.4531 20.614 70.556 20.6654C70.6632 20.7169 70.7382 20.8026 70.7811 20.9226H70.8068C70.8496 20.7983 70.9268 20.7126 71.0382 20.6654C71.1497 20.614 71.2804 20.5883 71.4304 20.5883C71.7091 20.5883 71.9234 20.6633 72.0734 20.8133C72.2277 20.959 72.3049 21.1841 72.3049 21.4884V24.176H71.7326V21.4948C71.7326 21.3277 71.6962 21.2141 71.6233 21.1541C71.5505 21.0941 71.4583 21.0641 71.3469 21.0641C71.2226 21.0641 71.1304 21.0941 71.0704 21.1541C71.0147 21.2141 70.9804 21.3127 70.9675 21.4498H70.6074C70.5903 21.2998 70.5453 21.1991 70.4724 21.1476C70.3996 21.0919 70.3181 21.0641 70.2281 21.0641C70.0566 21.0641 69.928 21.1648 69.8423 21.3663C69.7566 21.5634 69.7137 21.8913 69.7137 22.35C69.7137 22.6458 69.7352 22.8987 69.778 23.1087C69.8252 23.3187 69.9109 23.4816 70.0352 23.5974C70.1595 23.7088 70.3395 23.7645 70.5753 23.7645C70.661 23.7645 70.7318 23.7602 70.7875 23.7517C70.8432 23.7431 70.8968 23.7324 70.9482 23.7195L71.0061 24.1567C70.9418 24.1867 70.8646 24.2082 70.7746 24.221C70.6846 24.2339 70.5946 24.2403 70.5046 24.2403ZM74.335 24.2403C74.0821 24.2403 73.8464 24.2167 73.6277 24.1696C73.4134 24.1182 73.2312 24.0581 73.0812 23.9896L73.2484 23.5266C73.3384 23.5609 73.4413 23.5974 73.557 23.6359C73.6728 23.6745 73.7971 23.7067 73.9299 23.7324C74.0671 23.7538 74.2064 23.7645 74.3479 23.7645C74.575 23.7645 74.7637 23.7217 74.9137 23.6359C75.0637 23.5502 75.1387 23.4259 75.1387 23.263C75.1387 23.1644 75.1109 23.0808 75.0551 23.0123C75.0037 22.9394 74.9223 22.8729 74.8108 22.8129C74.6994 22.7529 74.5558 22.6951 74.38 22.6393C74.11 22.5536 73.8806 22.4636 73.692 22.3693C73.5077 22.2707 73.3663 22.155 73.2677 22.0221C73.1734 21.8849 73.1262 21.7156 73.1262 21.5141C73.1262 21.3341 73.1734 21.1755 73.2677 21.0383C73.3663 20.8969 73.5163 20.7876 73.7178 20.7104C73.9235 20.629 74.185 20.5883 74.5022 20.5883C74.7079 20.5883 74.9008 20.6076 75.0809 20.6461C75.2652 20.6804 75.4088 20.7297 75.5116 20.794V21.2762C75.4388 21.2419 75.3466 21.2077 75.2352 21.1734C75.128 21.1391 75.0101 21.1112 74.8815 21.0898C74.7529 21.0683 74.6201 21.0576 74.4829 21.0576C74.1957 21.0576 73.9921 21.1026 73.8721 21.1927C73.7563 21.2784 73.6985 21.377 73.6985 21.4884C73.6985 21.5827 73.7242 21.662 73.7756 21.7263C73.8313 21.7906 73.9235 21.8528 74.0521 21.9128C74.185 21.9728 74.3629 22.0414 74.5858 22.1185C74.7915 22.1871 74.9801 22.2664 75.1516 22.3564C75.323 22.4464 75.4581 22.56 75.5566 22.6972C75.6595 22.8301 75.711 23.0015 75.711 23.2116C75.711 23.3916 75.666 23.5609 75.5759 23.7195C75.4902 23.8738 75.3466 24.0003 75.1451 24.0989C74.9437 24.1932 74.6736 24.2403 74.335 24.2403ZM72.9726 20.0932V19.8424L73.442 19.6367H75.7052V20.0932H72.9726ZM75.1716 19.8424V19.1159H75.7117V19.8424H75.1716ZM77.841 24.2339C77.4938 24.2339 77.2152 24.1889 77.0051 24.0989C76.7994 24.0089 76.6494 23.8824 76.5551 23.7195C76.465 23.5566 76.42 23.3637 76.42 23.1408C76.42 22.9437 76.4479 22.7872 76.5036 22.6715C76.5636 22.5515 76.6365 22.4636 76.7222 22.4079C76.8122 22.3521 76.9044 22.3157 76.9987 22.2986V22.2728C76.913 22.2471 76.823 22.2043 76.7287 22.1442C76.6344 22.0842 76.5551 22.0006 76.4908 21.8935C76.4307 21.7863 76.4007 21.6513 76.4007 21.4884C76.4007 21.3384 76.435 21.1969 76.5036 21.0641C76.5722 20.9312 76.6837 20.8219 76.838 20.7361C76.9923 20.6504 77.1959 20.6076 77.4488 20.6076C77.5517 20.6076 77.6588 20.6161 77.7703 20.6333C77.8817 20.6461 77.9674 20.6697 78.0275 20.704L77.9246 21.1476C77.8774 21.1305 77.8153 21.1155 77.7381 21.1026C77.6652 21.0855 77.5881 21.0769 77.5066 21.0769C77.3266 21.0769 77.1937 21.1198 77.108 21.2055C77.0223 21.287 76.9794 21.3963 76.9794 21.5334C76.9794 21.6835 77.0159 21.797 77.0887 21.8742C77.1659 21.9514 77.2623 22.0049 77.3781 22.0349C77.4981 22.0607 77.6224 22.0735 77.751 22.0735H77.8731V22.4914H77.751C77.4938 22.4914 77.303 22.5386 77.1787 22.6329C77.0587 22.7229 76.9987 22.8751 76.9987 23.0894C76.9987 23.2137 77.0223 23.3273 77.0694 23.4302C77.1209 23.5331 77.2066 23.6145 77.3266 23.6745C77.4509 23.7345 77.6224 23.7645 77.841 23.7645C78.0596 23.7645 78.2289 23.7345 78.3489 23.6745C78.4732 23.6145 78.5611 23.5288 78.6126 23.4173C78.664 23.3016 78.6897 23.1644 78.6897 23.0058V20.6526H79.262V22.9672C79.262 23.4173 79.1462 23.741 78.9148 23.9381C78.6876 24.1353 78.3296 24.2339 77.841 24.2339ZM81.9994 24.2403C81.7251 24.2403 81.4872 24.1867 81.2857 24.0796C81.0885 23.9681 80.9535 23.8138 80.8806 23.6166H80.8549L80.8228 24.176H80.3534V20.6526H80.9256V22.6908C80.9256 22.9051 80.9621 23.0937 81.0349 23.2566C81.1121 23.4152 81.2214 23.5395 81.3629 23.6295C81.5086 23.7152 81.6822 23.7581 81.8837 23.7581C82.1366 23.7581 82.3252 23.6917 82.4495 23.5588C82.5738 23.4259 82.6359 23.2309 82.6359 22.9737V20.6526H83.2082V23.0123C83.2082 23.2952 83.1589 23.5266 83.0603 23.7067C82.966 23.8867 82.8288 24.0217 82.6488 24.1117C82.4688 24.1975 82.2523 24.2403 81.9994 24.2403ZM85.4988 24.2403C85.0359 24.2403 84.6887 24.1203 84.4572 23.8803C84.23 23.6359 84.1164 23.2544 84.1164 22.7358C84.1164 22.65 84.1186 22.5579 84.1228 22.4593C84.1314 22.3564 84.14 22.2557 84.1486 22.1571H85.4988V22.6072H84.6887V22.7358C84.6887 23.0058 84.7187 23.218 84.7787 23.3723C84.8387 23.5223 84.9266 23.6274 85.0423 23.6874C85.1623 23.7474 85.3102 23.7774 85.4859 23.7774C85.6788 23.7774 85.846 23.741 85.9875 23.6681C86.1289 23.5952 86.2382 23.4623 86.3154 23.2694C86.3925 23.0765 86.4311 22.8001 86.4311 22.44C86.4311 22.1228 86.3968 21.8635 86.3282 21.662C86.2596 21.4606 86.1461 21.3105 85.9875 21.2119C85.8331 21.1134 85.6231 21.0641 85.3573 21.0641C85.2202 21.0641 85.0873 21.0769 84.9587 21.1026C84.8301 21.1241 84.7058 21.1584 84.5858 21.2055C84.4658 21.2484 84.3479 21.3041 84.2321 21.3727V20.839C84.3179 20.7919 84.4229 20.7511 84.5472 20.7169C84.6715 20.6783 84.8087 20.6483 84.9587 20.6268C85.1087 20.6011 85.2652 20.5883 85.4281 20.5883C85.8053 20.5883 86.1096 20.6654 86.3411 20.8197C86.5768 20.9698 86.7483 21.1841 86.8555 21.4627C86.9626 21.737 87.0162 22.0628 87.0162 22.44C87.0162 22.8172 86.9669 23.1408 86.8683 23.4109C86.7697 23.6809 86.609 23.8867 86.3861 24.0281C86.1675 24.1696 85.8717 24.2403 85.4988 24.2403ZM86.041 25.8542V25.1726C86.041 25.0655 85.9938 25.0119 85.8995 25.0119C85.8781 25.0119 85.8566 25.014 85.8352 25.0183C85.8095 25.0226 85.7859 25.029 85.7645 25.0376L85.7195 24.6518C85.7838 24.6304 85.8545 24.6132 85.9316 24.6004C86.0045 24.5918 86.0645 24.5875 86.1117 24.5875C86.2617 24.5875 86.3732 24.6218 86.446 24.6904C86.5146 24.7633 86.5489 24.8619 86.5489 24.9862V25.8542H86.041ZM89.1458 24.2403C88.8029 24.2403 88.5329 24.161 88.3357 24.0024C88.1428 23.8395 88.0056 23.6209 87.9242 23.3466C87.847 23.0723 87.8085 22.7701 87.8085 22.44C87.8085 22.0757 87.8449 21.7756 87.9178 21.5399C87.9949 21.2998 88.1021 21.1112 88.2392 20.974C88.3807 20.8326 88.5479 20.734 88.7408 20.6783C88.9379 20.6183 89.1544 20.5883 89.3902 20.5883C89.7331 20.5883 90.0117 20.6397 90.226 20.7426C90.4446 20.8412 90.6054 20.9826 90.7082 21.1669C90.8111 21.3513 90.8626 21.572 90.8626 21.8292V24.176H90.2967V21.8806C90.2967 21.6149 90.2303 21.4134 90.0974 21.2762C89.9645 21.1348 89.7352 21.0641 89.4095 21.0641C89.2123 21.0641 89.0344 21.1005 88.8758 21.1734C88.7215 21.2462 88.5993 21.3813 88.5093 21.5784C88.4236 21.7756 88.3807 22.0649 88.3807 22.4464C88.3807 22.6951 88.4043 22.9201 88.4514 23.1216C88.5029 23.3187 88.5907 23.4752 88.715 23.5909C88.8394 23.7067 89.013 23.7645 89.2359 23.7645C89.3001 23.7645 89.3602 23.7602 89.4159 23.7517C89.4716 23.7431 89.5252 23.7302 89.5766 23.7131L89.6345 24.1567C89.5659 24.1867 89.4866 24.2082 89.3966 24.221C89.3109 24.2339 89.2273 24.2403 89.1458 24.2403ZM93.603 24.2403C93.3286 24.2403 93.0907 24.1867 92.8893 24.0796C92.6921 23.9681 92.5571 23.8138 92.4842 23.6166H92.4585L92.4263 24.176H91.957V20.6526H92.5292V22.6908C92.5292 22.9051 92.5656 23.0937 92.6385 23.2566C92.7157 23.4152 92.825 23.5395 92.9664 23.6295C93.1122 23.7152 93.2858 23.7581 93.4872 23.7581C93.7401 23.7581 93.9287 23.6917 94.053 23.5588C94.1773 23.4259 94.2395 23.2309 94.2395 22.9737V20.6526H94.8117V23.0123C94.8117 23.2952 94.7624 23.5266 94.6639 23.7067C94.5696 23.8867 94.4324 24.0217 94.2524 24.1117C94.0723 24.1975 93.8559 24.2403 93.603 24.2403ZM95.855 24.176V21.9256C95.855 21.4927 95.9707 21.1626 96.2022 20.9355C96.4337 20.704 96.8023 20.5883 97.3081 20.5883C97.5482 20.5883 97.7539 20.6183 97.9254 20.6783C98.0968 20.734 98.2318 20.8304 98.3304 20.9676C98.4847 21.0448 98.5941 21.1669 98.6583 21.3341C98.7269 21.5013 98.7612 21.6985 98.7612 21.9256V24.176H98.189V21.9256C98.189 21.6384 98.114 21.4241 97.9639 21.2827C97.8182 21.1369 97.5996 21.0641 97.3081 21.0641C97.0166 21.0641 96.7959 21.1369 96.6459 21.2827C96.5001 21.4241 96.4272 21.6384 96.4272 21.9256V22.6393L96.4465 22.6458C96.5451 22.4786 96.6609 22.3693 96.7937 22.3178C96.9309 22.2621 97.1238 22.2343 97.3724 22.2343H97.5846V22.7036H97.3724C97.1152 22.7036 96.918 22.7401 96.7809 22.8129C96.6437 22.8858 96.5494 22.9822 96.498 23.1023C96.4508 23.218 96.4272 23.3487 96.4272 23.4945V24.176H95.855ZM98.3304 21.1476L98.009 20.8454C98.1204 20.8283 98.2254 20.7854 98.324 20.7169C98.4226 20.6483 98.4719 20.5497 98.4719 20.4211H99.0313C99.0313 20.554 98.9991 20.6718 98.9348 20.7747C98.8705 20.8733 98.7848 20.9548 98.6776 21.0191C98.5748 21.0791 98.459 21.1219 98.3304 21.1476ZM95.9977 20.0932V19.8424L96.467 19.6367H97.7465L97.663 19.7974C97.6415 19.7503 97.6287 19.7074 97.6244 19.6688C97.6158 19.626 97.6115 19.5917 97.6115 19.5659C97.6115 19.4073 97.6651 19.2787 97.7723 19.1802C97.8751 19.0816 98.0187 19.0323 98.203 19.0323C98.3916 19.0323 98.5417 19.0837 98.6531 19.1866C98.7603 19.2852 98.8139 19.4138 98.8139 19.5724C98.8139 19.7181 98.7646 19.8424 98.666 19.9453C98.5674 20.0439 98.4238 20.0932 98.2352 20.0932H95.9977ZM98.2159 19.8167C98.3016 19.8167 98.3681 19.7931 98.4152 19.746C98.4624 19.6945 98.486 19.6345 98.486 19.5659C98.486 19.4931 98.4624 19.4331 98.4152 19.3859C98.3638 19.3388 98.2952 19.3152 98.2095 19.3152C98.1237 19.3152 98.0573 19.3388 98.0102 19.3859C97.963 19.4288 97.9394 19.4866 97.9394 19.5595C97.9394 19.6281 97.963 19.6881 98.0102 19.7395C98.053 19.791 98.1216 19.8167 98.2159 19.8167ZM99.8602 24.176V22.9544C99.8602 22.6843 99.9203 22.4893 100.04 22.3693C100.16 22.245 100.312 22.1592 100.497 22.1121L100.503 22.0928L99.7959 21.8228V21.6106C99.7959 21.4348 99.8538 21.2698 99.9696 21.1155C100.085 20.9569 100.25 20.8304 100.465 20.7361C100.683 20.6376 100.943 20.5883 101.243 20.5883C101.504 20.5883 101.746 20.6311 101.969 20.7169C102.192 20.7983 102.37 20.929 102.503 21.1091C102.64 21.2848 102.709 21.5163 102.709 21.8035V24.176H102.136V21.8613C102.136 21.5741 102.048 21.3705 101.873 21.2505C101.701 21.1262 101.489 21.0641 101.236 21.0641C100.975 21.0641 100.767 21.1198 100.613 21.2312C100.458 21.3384 100.381 21.4756 100.381 21.6427L101.075 21.9899L101.024 22.2986C100.865 22.2986 100.726 22.3521 100.606 22.4593C100.49 22.5622 100.432 22.7272 100.432 22.9544V24.176H99.8602ZM105.214 24.2403C104.862 24.2403 104.577 24.1867 104.359 24.0796C104.144 23.9724 103.988 23.8181 103.889 23.6166C103.795 23.4109 103.748 23.1623 103.748 22.8708V20.6526H104.32V22.8772C104.32 23.1773 104.391 23.4002 104.532 23.5459C104.674 23.6917 104.901 23.7645 105.214 23.7645C105.527 23.7645 105.754 23.6917 105.895 23.5459C106.037 23.4002 106.107 23.1773 106.107 22.8772V20.6526H106.68V22.8708C106.68 23.1623 106.63 23.4109 106.532 23.6166C106.437 23.8181 106.283 23.9724 106.069 24.0796C105.854 24.1867 105.569 24.2403 105.214 24.2403ZM105.606 22.7229C105.426 22.7229 105.282 22.6972 105.175 22.6458C105.072 22.59 104.999 22.5193 104.956 22.4336C104.914 22.3479 104.892 22.2578 104.892 22.1635C104.892 22.0992 104.901 22.0328 104.918 21.9642C104.935 21.8956 104.959 21.8378 104.989 21.7906L105.452 21.8742C105.443 21.8913 105.434 21.9192 105.426 21.9578C105.417 21.9921 105.413 22.0264 105.413 22.0607C105.413 22.1164 105.428 22.1678 105.458 22.215C105.492 22.2621 105.55 22.2857 105.632 22.2857H107.091V22.7229H105.606ZM108.857 24.176V21.6749C108.857 21.4648 108.808 21.3105 108.709 21.2119C108.615 21.1134 108.454 21.0641 108.227 21.0641C108.073 21.0641 107.927 21.0855 107.79 21.1284C107.657 21.1669 107.528 21.2227 107.404 21.2955V20.7812C107.49 20.7383 107.612 20.6954 107.77 20.6526C107.929 20.6097 108.118 20.5883 108.336 20.5883C108.559 20.5883 108.752 20.6204 108.915 20.6847C109.078 20.749 109.204 20.8562 109.294 21.0062C109.384 21.1519 109.429 21.347 109.429 21.5913V24.176H108.857Z" fill="#FFFAE2"/>
<line x1="39.7252" y1="9.49495" x2="39.7252" y2="26.8464" stroke="#FFFAE2" stroke-width="0.913232" stroke-linecap="round"/>
</svg>