<svg width="103" height="103" viewBox="0 0 103 103" fill="none" xmlns="http://www.w3.org/2000/svg">
<mask id="mask0_907_6008" style="mask-type:alpha" maskUnits="userSpaceOnUse" x="1" y="1" width="101" height="101">
<circle cx="51.3041" cy="51.3041" r="50" transform="rotate(1.51456 51.3041 51.3041)" fill="url(#paint0_radial_907_6008)"/>
</mask>
<g mask="url(#mask0_907_6008)">
<circle cx="51.3041" cy="51.3041" r="50" transform="rotate(1.51456 51.3041 51.3041)" fill="url(#paint1_radial_907_6008)"/>
<g filter="url(#filter0_f_907_6008)">
<path d="M17.2734 34.915C23.4808 31.783 27.1819 57.3202 52.5711 61.8516C67.008 64.4283 97.6126 42.0359 92.4663 66.4082C87.32 90.7805 61.0227 101.589 32.7582 92.3389C9.28472 84.6567 -2.49777 44.8905 17.2734 34.915Z" fill="#957F0C"/>
</g>
<g filter="url(#filter1_f_907_6008)">
<path d="M87.2393 35.9686C87.0641 42.5939 67.8735 35.4566 61.2484 35.2814C54.6233 35.1062 32.0914 21.9204 32.2665 15.2951C32.4417 8.66983 55.5105 6.37072 66.434 9.41043C80.3366 13.2793 87.4145 29.3433 87.2393 35.9686Z" fill="#FFFAE2"/>
</g>
<g filter="url(#filter2_f_907_6008)">
<path d="M36.7402 54.0688C36.565 60.6941 25.6459 62.3096 19.0208 62.1344C12.3957 61.9593 10.2725 52.4956 10.4477 45.8703C10.6229 39.245 13.283 33.2237 24.2064 36.2635C38.109 40.1324 36.9154 47.4435 36.7402 54.0688Z" fill="#FFF3B5"/>
</g>
</g>
<defs>
<filter id="filter0_f_907_6008" x="-9.1291" y="18.263" width="118.558" height="93.746" filterUnits="userSpaceOnUse" color-interpolation-filters="sRGB">
<feFlood flood-opacity="0" result="BackgroundImageFix"/>
<feBlend mode="normal" in="SourceGraphic" in2="BackgroundImageFix" result="shape"/>
<feGaussianBlur stdDeviation="0.0991116" result="effect1_foregroundBlur_907_6008"/>
</filter>
<filter id="filter1_f_907_6008" x="24.8648" y="0.687558" width="69.7782" height="45.493" filterUnits="userSpaceOnUse" color-interpolation-filters="sRGB">
<feFlood flood-opacity="0" result="BackgroundImageFix"/>
<feBlend mode="normal" in="SourceGraphic" in2="BackgroundImageFix" result="shape"/>
<feGaussianBlur stdDeviation="3.70017" result="effect1_foregroundBlur_907_6008"/>
</filter>
<filter id="filter2_f_907_6008" x="3.03769" y="28.0528" width="41.203" height="41.4945" filterUnits="userSpaceOnUse" color-interpolation-filters="sRGB">
<feFlood flood-opacity="0" result="BackgroundImageFix"/>
<feBlend mode="normal" in="SourceGraphic" in2="BackgroundImageFix" result="shape"/>
<feGaussianBlur stdDeviation="3.70017" result="effect1_foregroundBlur_907_6008"/>
</filter>
<radialGradient id="paint0_radial_907_6008" cx="0" cy="0" r="1" gradientUnits="userSpaceOnUse" gradientTransform="translate(58.8041 40.8041) rotate(97.0667) scale(60.9631)">
<stop stop-color="#FFF3B5"/>
<stop offset="1" stop-color="#C1A726"/>
</radialGradient>
<radialGradient id="paint1_radial_907_6008" cx="0" cy="0" r="1" gradientUnits="userSpaceOnUse" gradientTransform="translate(58.8041 40.8041) rotate(97.0667) scale(60.9631)">
<stop stop-color="#FFF3B5"/>
<stop offset="1" stop-color="#C1A726"/>
</radialGradient>
</defs>
</svg>
