<svg width="356" height="132" viewBox="0 0 356 132" fill="none" xmlns="http://www.w3.org/2000/svg">
<path d="M96.3802 22.3686L97.0011 22.4376C97.1391 28.5775 90.7922 34.9934 84.8592 34.9934C78.9952 34.9934 75.9597 31.3371 75.9597 26.5769C75.9597 17.6774 86.5839 4.98359 109.143 4.98359C113.42 4.98359 116.87 5.67347 119.698 6.84627C122.665 5.19056 125.7 4.22472 128.736 4.22472C131.219 4.22472 133.358 5.39752 134.531 7.60514L133.841 7.95008C132.668 5.88044 130.598 5.32853 128.322 5.32853C126.114 5.32853 123.906 6.22538 121.561 7.74312C127.08 10.8476 129.495 16.2287 129.495 22.3686C129.495 37.822 114.455 58.0355 96.8631 58.0355C92.6548 58.0355 88.6535 55.4829 88.6535 50.3778L89.3434 50.4468C89.3434 55.138 92.9998 56.9317 97.1391 56.9317C109.557 56.9317 125.217 35.2004 125.217 20.161C125.217 15.4698 123.7 11.3995 120.043 8.84693C104.935 20.9199 88.8605 59.5532 69.2679 59.5532C61.4722 59.5532 57.9538 54.4481 57.9538 48.998C57.9538 42.8581 62.438 36.3732 70.3027 36.3732C74.028 36.3732 77.5464 38.5808 77.4085 43.134H76.6496C76.7186 39.2017 72.8552 37.477 70.0957 37.477C63.1969 37.477 59.0576 43.41 59.0576 48.998C59.0576 53.8962 62.1621 58.4494 69.2679 58.4494C82.1686 58.4494 99.3467 19.816 118.111 7.74312C115.835 6.63931 112.868 6.01842 109.143 6.01842C91.4131 6.01842 78.5813 20.299 78.5813 28.4396C78.5813 31.682 80.5819 33.8896 85.1351 33.8896C90.2403 33.8896 96.3802 27.8187 96.3802 22.3686Z" fill="white"/>
<path d="M45.4433 56.6305L44.7638 57.1741C43.4049 55.3395 41.6382 53.9126 38.5126 53.9126C33.9602 53.9126 31.6499 56.2907 31.6499 59.1445C31.6499 61.3868 33.0768 63.9009 35.9986 65.8713C46.8702 55.8831 62.4981 49.3601 74.6607 49.3601C78.1261 49.428 79.8927 51.8062 79.8927 54.3203C79.8927 60.5035 70.7198 70.152 48.7727 70.152C45.3074 70.152 42.3857 69.6764 39.9395 68.861C32.2615 76.7429 26.7577 86.0518 26.7577 94.4773C26.7577 99.3695 29.4077 102.631 35.7947 102.631C44.7638 102.631 52.5778 90.7401 52.5778 84.5569C52.5778 82.3826 51.6265 80.8877 49.3843 80.8877C45.7151 80.8877 41.3664 83.8095 40.5511 88.6338L39.4639 88.4979C40.5511 82.8582 44.9677 79.8006 49.5202 79.8006C53.9367 79.8006 55.9752 82.5185 55.9752 86.1197C55.9752 93.1863 48.2291 103.718 35.523 103.718C26.7577 103.718 22.9527 98.1464 22.9527 91.4876C22.9527 82.2467 27.9128 73.5494 35.2512 66.6188C32.1256 64.4444 30.5628 61.5906 30.5628 59.0766C30.5628 55.6792 33.2807 52.8254 38.5126 52.8254C41.978 52.8254 43.8126 54.2523 45.4433 56.6305ZM74.7287 50.4472C64.6045 50.4472 50.9471 57.9894 40.8229 67.9777C42.9972 68.6572 45.7151 69.0649 48.7727 69.0649C66.9147 69.0649 78.3299 58.601 78.3299 53.369C78.3299 51.8741 77.1748 50.4472 74.7287 50.4472Z" fill="white"/>
<path d="M272.026 75.6398H272.725C272.305 81.1605 268.392 84.1654 263.5 84.1654C257.211 84.1654 253.437 79.2737 253.437 73.8928C253.437 67.1142 259.377 59.4971 273.913 59.4971C287.12 59.4971 306.687 71.7264 316.82 71.7264C324.717 71.7264 327.372 66.695 325.136 64.5985L325.765 64.0394C326.743 65.0877 327.233 66.3455 327.233 67.6733C327.233 70.818 324.367 74.1024 318.777 74.1024C311.998 74.1024 305.639 70.3288 297.183 67.0444C285.932 70.2589 267.693 114.843 246.1 114.843C237.714 114.843 233.94 109.393 233.94 103.802C233.94 97.7225 238.413 91.4331 246.309 91.4331C251.69 91.4331 254.346 95.2067 254.346 98.9803C254.346 102.544 251.9 106.108 247.008 106.108V104.99C251.061 104.99 253.228 101.985 253.228 98.9105C253.228 95.7658 250.922 92.5512 246.03 92.5512C239.182 92.5512 235.058 98.3514 235.058 103.872C235.058 108.904 238.483 113.725 246.309 113.725C257.63 113.725 276.219 81.5099 288.518 68.5119C290.125 66.8347 291.872 65.9263 293.48 65.7166C287.959 63.8997 281.67 62.5719 273.913 62.5719C260.216 62.5719 254.556 69.0709 254.556 74.7314C254.556 79.1339 257.98 83.0473 263.71 83.0473C267.973 83.0473 271.746 80.3219 272.026 75.6398Z" fill="white"/>
<path d="M84.5418 100.937C79.1925 100.888 77.7949 101.322 77.2648 95.6354V82.4308C77.2648 75.3948 70.8553 81.6598 68.783 83.3947V96.7438C68.783 98.4305 70.1806 100.406 71.8673 100.937H60.7832C62.5181 100.406 63.8674 98.3824 63.8674 96.6474V78.3345C63.8674 74.0454 64.3976 70.3347 69.3613 68.7925C72.4938 67.8769 77.8913 68.7925 77.9395 72.4069C77.9395 74.8647 75.6745 76.696 73.2649 76.0213C70.6625 75.2502 70.2288 72.4551 72.542 70.8166C72.9757 70.5274 72.8793 71.0094 72.8311 71.2021C72.4456 73.4671 75.819 72.7443 74.807 70.4311C74.4215 69.5636 73.554 69.0817 72.2528 69.0817C70.6143 69.0817 69.5541 69.9009 69.0722 71.5395C68.5902 72.4069 68.783 81.1297 68.783 82.479C72.7347 78.8646 82.1322 71.1539 82.1322 82.4308V95.8282C82.1322 98.9125 82.3249 98.9125 84.5418 100.937ZM85.6355 100.937C87.3222 100.406 88.7198 98.4305 88.7198 96.7438V82.0453C88.6234 80.6959 87.8523 79.7321 86.4548 79.1538C89.2017 78.961 91.9004 78.0454 94.551 76.455C93.539 78.4791 93.6353 79.3466 93.6353 81.467V82.2863C95.4666 79.0092 98.1654 75.4912 102.214 75.1539C109.539 74.5274 109.201 86.9127 101.683 85.5633C99.1774 85.1296 97.9726 82.6236 98.9847 80.3586C99.3702 79.5875 99.7075 79.8285 100.045 80.2622C101.491 82.0935 103.563 81.4188 104.189 79.8285C104.864 78.2863 104.141 76.7924 102.888 76.2141C99.3702 74.6719 93.6353 83.1055 93.6353 85.1296V96.6474C93.6353 98.3824 94.9847 100.406 96.7196 100.937H85.6355ZM108.555 100.937C110.242 100.406 111.639 98.4305 111.639 96.7438V82.5272C111.639 81.5634 111.013 80.7441 109.711 80.1176C109.519 80.0212 109.519 79.8767 109.711 79.7803C111.157 79.7803 112.41 79.2984 113.615 78.4309C115.013 77.3225 115.976 76.0695 116.555 74.6237C115.976 75.3466 115.109 75.8285 114.097 75.8285C112.362 75.8285 110.964 74.431 110.964 72.6961C110.964 70.9612 112.362 69.6118 114.097 69.6118C117.133 69.6118 118.482 73.178 117.278 75.8285C116.699 77.6598 116.458 79.8767 116.555 82.5272V96.6474C116.555 98.3824 117.904 100.406 119.639 100.937H108.555ZM130.249 100.937C119.31 101.081 118.779 90.9608 124.032 90.4307C126.779 90.0933 129.141 91.9728 128.081 94.4306C127.743 95.2499 127.502 95.2017 126.924 94.6234C125.719 93.4186 124.177 93.7077 123.406 94.6716C121.575 96.9366 124.996 100.358 130.249 100.31C134.683 100.262 137.478 97.4185 135.165 93.274C132.852 89.2259 125.767 89.3705 123.454 84.1657C121.912 80.6477 123.502 75.8285 131.213 75.7322C140.755 75.6358 141.237 83.2983 136.514 84.3103C133.767 84.8886 130.924 82.7682 131.984 80.3104C132.321 79.4429 132.562 79.5393 133.141 80.1176C134.297 81.3224 135.888 81.0333 136.659 80.0694C138.442 77.8044 134.104 76.3105 131.261 76.3587C127.309 76.4068 125.623 78.6719 127.068 81.9971C128.707 85.7561 136.032 85.6115 138.683 90.3343C141.189 94.8162 137.141 100.84 130.249 100.937ZM151.898 100.888C148.235 100.84 146.597 101.177 145.296 99.1052C144.621 97.7077 144.621 95.539 144.621 93.9969V78.1899H142.356V77.4671C145.344 77.4671 148.091 77.0333 149.151 73.6117C149.295 73.178 149.585 72.3105 149.585 73.4189V77.4189H152.669V78.2863H149.536L149.488 96.3101C149.488 98.9125 149.922 99.1052 151.898 100.888ZM187.872 107.539C185.028 106.479 183.004 103.057 183.004 100.069V82.4308C183.004 75.3466 176.498 81.7561 174.474 83.3947V96.6474C174.474 98.3824 175.872 100.406 177.559 100.937H166.474C168.161 100.406 169.607 98.4305 169.607 96.7438V82.4308C169.607 75.3466 163.101 81.7561 161.077 83.3947V96.6474C161.077 98.3824 162.426 100.406 164.161 100.937H153.077C154.764 100.406 156.161 98.4305 156.161 96.7438V82.0453C156.065 80.6959 155.294 79.7321 153.896 79.1538C156.643 78.961 159.342 78.0454 161.993 76.455C160.981 78.5273 161.077 79.3947 161.077 81.5634V82.479C164.98 78.9128 174.474 71.1057 174.474 82.4308V82.479C178.426 78.9128 187.92 71.1057 187.92 82.4308V100.31C187.92 102.575 188.643 106.623 191.149 107.105C193.076 107.442 195.1 106.479 195.004 105.081C194.908 103.683 193.558 103.443 192.98 104.262C192.691 104.695 192.257 104.744 192.161 104.165C191.438 100.599 197.606 100.455 196.691 104.792C195.968 108.021 191.1 108.744 187.872 107.539ZM208.127 105.997C206.151 104.358 205.09 102.19 205.09 99.4426V97.2739C203.789 99.6353 201.283 101.129 198.585 101.129C196.512 101.129 194.633 100.262 193.283 98.9125C191.934 97.5631 191.115 95.6836 191.115 93.6595C191.115 91.5873 191.934 89.7078 193.283 88.3584C194.633 87.0091 196.512 86.1898 198.585 86.1898C201.283 86.1898 203.789 87.6838 205.09 90.0452V83.1055C205.09 81.3706 205.187 78.1418 202.825 77.949C200.898 77.8044 200.03 80.8405 202.295 81.7561C202.488 81.8525 202.922 81.9489 202.584 82.1899C198.006 86.1898 195.163 77.6598 202.536 77.1297C204.609 76.9851 207.548 77.9008 208.753 79.7321C209.524 80.8887 210.006 82.2863 210.006 83.6838V99.4426C210.006 101.997 210.584 103.732 211.789 104.647C212.608 105.322 214.391 105.997 215.452 105.467C215.644 105.37 215.693 105.418 215.548 105.659C214.343 107.876 209.958 107.539 208.127 105.997ZM201.187 99.8763C203.115 99.1052 204.56 97.4185 205.09 95.3945V91.8764C204.464 89.515 202.584 87.6838 200.223 87.0573C197.283 86.3344 196.368 91.009 196.416 93.0812C196.512 97.9004 198.103 100.165 201.187 99.8763ZM222.539 100.937C211.599 101.081 211.069 90.9608 216.322 90.4307C219.069 90.0933 221.43 91.9728 220.37 94.4306C220.033 95.2499 219.792 95.2017 219.213 94.6234C218.008 93.4186 216.466 93.7077 215.695 94.6716C213.864 96.9366 217.286 100.358 222.539 100.31C226.972 100.262 229.767 97.4185 227.454 93.274C225.141 89.2259 218.057 89.3705 215.743 84.1657C214.201 80.6477 215.792 75.8285 223.502 75.7322C233.044 75.6358 233.526 83.2983 228.803 84.3103C226.057 84.8886 223.213 82.7682 224.273 80.3104C224.611 79.4429 224.852 79.5393 225.43 80.1176C226.587 81.3224 228.177 81.0333 228.948 80.0694C230.731 77.8044 226.394 76.3105 223.551 76.3587C219.599 76.4068 217.912 78.6719 219.358 81.9971C220.996 85.7561 228.322 85.6115 230.972 90.3343C233.478 94.8162 229.43 100.84 222.539 100.937Z" fill="white"/>
<path d="M288.649 104C290.343 103.468 291.746 101.484 291.746 99.7904V85.0328C291.649 83.678 290.875 82.7102 289.472 82.1296C292.23 81.9361 294.939 81.0167 297.601 79.42C296.585 81.4522 296.681 82.3232 296.681 84.4521V85.2747C298.52 81.9845 301.23 78.4523 305.294 78.1136C312.649 77.4846 312.31 89.9197 304.762 88.5649C302.246 88.1295 301.036 85.6134 302.052 83.3393C302.439 82.5651 302.778 82.807 303.117 83.2425C304.568 85.0811 306.649 84.4037 307.278 82.807C307.955 81.2587 307.229 79.7587 305.971 79.1781C302.439 77.6297 296.681 86.0972 296.681 88.1295V99.6937C296.681 101.436 298.036 103.468 299.778 104H288.649ZM323.669 103.903C316.604 104.774 312.298 98.7259 312.298 92.0971C312.298 88.9036 313.314 86.0005 314.911 83.8715C318.54 79.1781 328.217 79.0329 330.588 83.4844C332.959 87.8875 331.168 94.468 325.652 95.4841C322.749 95.968 320.04 95.3389 317.62 93.5487C318.491 97.4679 321.201 100.419 326.814 98.7743C329.088 98.1453 330.588 97.0808 331.217 95.5325C331.314 95.3873 331.507 95.2906 331.555 95.5325C332.233 100.032 327.83 103.419 323.669 103.903ZM317.378 91.71C321.975 97.4679 328.217 93.0648 326.668 85.2263C325.798 81.0651 320.717 79.6135 318.782 83.5328C317.765 85.7102 317.136 88.8069 317.378 91.71ZM346.066 103.903C339.002 104.774 334.695 98.7259 334.695 92.0971C334.695 88.9036 335.711 86.0005 337.308 83.8715C340.937 79.1781 350.614 79.0329 352.985 83.4844C355.356 87.8875 353.566 94.468 348.05 95.4841C345.147 95.968 342.437 95.3389 340.018 93.5487C340.889 97.4679 343.598 100.419 349.211 98.7743C351.485 98.1453 352.985 97.0808 353.614 95.5325C353.711 95.3873 353.904 95.2906 353.953 95.5325C354.63 100.032 350.227 103.419 346.066 103.903ZM339.776 91.71C344.372 97.4679 350.614 93.0648 349.066 85.2263C348.195 81.0651 343.114 79.6135 341.179 83.5328C340.163 85.7102 339.534 88.8069 339.776 91.71Z" fill="white"/>
<path d="M140.388 56.6879C133.716 57.5105 129.649 51.7979 129.649 45.5369C129.649 42.5206 130.608 39.7785 132.116 37.7677C135.544 33.3347 144.684 33.1976 146.924 37.4021C149.163 41.5609 147.472 47.7762 142.262 48.7359C139.52 49.1929 136.961 48.5988 134.676 46.9079C135.498 50.6097 138.058 53.3974 143.359 51.8436C145.507 51.2495 146.924 50.2441 147.518 48.7816C147.609 48.6445 147.792 48.5531 147.838 48.7816C148.477 53.0318 144.319 56.2309 140.388 56.6879ZM134.447 45.1713C138.789 50.6097 144.684 46.4509 143.222 39.0473C142.399 35.117 137.601 33.746 135.773 37.4478C134.813 39.5043 134.219 42.4292 134.447 45.1713ZM164.422 56.0938C161.497 57.2363 157.978 56.9621 155.465 54.997C152.951 53.0318 151.26 49.5585 151.26 45.5369C151.26 42.5206 152.22 39.7785 153.728 37.7677C157.338 33.1062 167.256 33.1519 168.809 38.1333C169.678 40.7383 167.073 42.612 164.605 42.3835C162.594 42.155 160.675 40.8297 161.04 38.8645C163.097 39.7785 164.925 37.7677 164.056 36.3053C162.685 33.9288 158.481 35.2541 157.384 37.4478C155.008 42.4292 155.099 52.849 162.777 52.2549C165.153 52.0721 168.17 51.0667 169.175 48.7359C169.312 48.5988 169.403 48.5988 169.449 48.7816C169.952 52.0721 167.347 54.9513 164.422 56.0938ZM181.335 56.7793C176.445 56.7793 172.515 51.7979 172.515 45.6283C172.515 39.4586 176.445 34.4772 181.335 34.4772C186.91 34.4772 190.155 40.4641 190.155 45.6283C190.155 51.7979 186.225 56.7793 181.335 56.7793ZM181.335 56.0938C183.666 56.0938 185.585 51.4323 185.585 45.6283C185.585 39.8242 183.666 35.1627 181.335 35.1627C180.512 35.1627 179.69 35.7569 179.05 36.8537C178.776 38.5903 181.426 38.9559 181.061 37.0365C181.061 36.8537 180.924 36.3967 181.381 36.6709C185.128 39.3215 180.787 43.4346 177.542 40.9668C177.268 42.3835 177.13 43.9373 177.13 45.6283C177.13 51.4323 179.004 56.0938 181.335 56.0938ZM191.784 56.7793C193.384 56.2766 194.709 54.4028 194.709 52.8033V38.8645C194.618 37.5849 193.886 36.6709 192.561 36.1225C195.166 35.9397 197.725 35.0713 200.239 33.5632C199.279 35.4827 199.37 36.3053 199.37 38.3161V39.093C201.107 35.9854 203.666 32.6492 207.505 32.3293C214.452 31.7352 214.132 43.4803 207.002 42.2007C204.626 41.7894 203.484 39.4129 204.443 37.265C204.809 36.5338 205.129 36.7623 205.449 37.1736C206.82 38.9102 208.785 38.2704 209.379 36.7623C210.019 35.2998 209.333 33.8831 208.145 33.3347C204.809 31.8723 199.37 39.8699 199.37 41.7894V52.7119C199.37 54.3571 200.65 56.2766 202.295 56.7793H191.784ZM227.487 61.5779C225.613 60.0241 224.608 57.9675 224.608 55.3626V53.306C223.374 55.5454 220.997 56.9621 218.438 56.9621C216.473 56.9621 214.691 56.1395 213.411 54.8599C212.131 53.5802 211.354 51.7979 211.354 49.8785C211.354 47.9133 212.131 46.131 213.411 44.8513C214.691 43.5717 216.473 42.7948 218.438 42.7948C220.997 42.7948 223.374 44.2115 224.608 46.4509V39.8699C224.608 38.2247 224.699 35.1627 222.46 34.9799C220.632 34.8428 219.809 37.722 221.957 38.5903C222.14 38.6817 222.551 38.7731 222.231 39.0016C217.89 42.7948 215.193 34.7057 222.186 34.203C224.151 34.0659 226.938 34.9342 228.081 36.6709C228.812 37.7677 229.269 39.093 229.269 40.4184V55.3626C229.269 57.7847 229.818 59.43 230.96 60.2983C231.737 60.9381 233.428 61.5779 234.433 61.0752C234.616 60.9838 234.662 61.0295 234.525 61.258C233.382 63.3602 229.224 63.0403 227.487 61.5779ZM220.906 55.7739C222.734 55.0427 224.105 53.4431 224.608 51.5237V48.1875C224.014 45.9482 222.231 44.2115 219.992 43.6174C217.204 42.9319 216.336 47.3649 216.382 49.33C216.473 53.9001 217.981 56.0481 220.906 55.7739ZM241.611 56.7336C238.138 56.6879 236.584 57.0078 235.35 55.0427C234.71 53.7173 234.71 51.6608 234.71 50.1984V35.2084H232.562V34.5229C235.396 34.5229 238.001 34.1116 239.006 30.8669C239.143 30.4555 239.417 29.6329 239.417 30.6841V34.4772H242.342V35.2998H239.372L239.326 52.392C239.326 54.8599 239.737 55.0427 241.611 56.7336ZM253.545 56.6879C246.872 57.5105 242.805 51.7979 242.805 45.5369C242.805 42.5206 243.765 39.7785 245.273 37.7677C248.7 33.3347 257.841 33.1976 260.08 37.4021C262.319 41.5609 260.628 47.7762 255.418 48.7359C252.676 49.1929 250.117 48.5988 247.832 46.9079C248.655 50.6097 251.214 53.3974 256.515 51.8436C258.663 51.2495 260.08 50.2441 260.674 48.7816C260.765 48.6445 260.948 48.5531 260.994 48.7816C261.634 53.0318 257.475 56.2309 253.545 56.6879ZM247.604 45.1713C251.945 50.6097 257.841 46.4509 256.378 39.0473C255.555 35.117 250.757 33.746 248.929 37.4478C247.969 39.5043 247.375 42.4292 247.604 45.1713Z" fill="white"/>
<path d="M276.025 54.3671C273.843 54.2943 273.916 50.7784 276.122 50.7542C277.286 50.7057 277.771 51.6513 277.431 52.694C277.359 52.9607 277.262 52.7425 277.189 52.6455C276.656 51.6271 275.54 52.9365 276.656 53.5427C277.48 53.9064 278.498 53.0577 278.789 52.3303C279.008 51.7968 279.323 51.0452 279.686 50.0753C277.892 44.862 273.794 36.6906 272 36.6664C273.988 35.1873 276.098 36.3511 277.092 38.3879C278.571 41.5159 279.468 44.1346 280.705 47.4808L280.753 47.3838C281.457 45.5652 282.329 43.3102 283.348 40.6187C283.59 40.0125 282.936 39.3578 282.305 39.0911H285.894C285.069 39.3578 284.027 39.8428 283.712 40.6915L280.972 47.7717C280.753 48.3294 280.584 48.8629 280.341 49.3963L279.202 52.2333C278.644 53.5912 277.625 54.4398 276.025 54.3671Z" fill="white"/>
<path d="M289.478 54.8225C286.884 54.8225 284.798 52.1795 284.798 48.9061C284.798 45.6327 286.884 42.9897 289.478 42.9897C292.436 42.9897 294.158 46.1661 294.158 48.9061C294.158 52.1795 292.072 54.8225 289.478 54.8225ZM289.478 54.4588C290.715 54.4588 291.733 51.9855 291.733 48.9061C291.733 45.8266 290.715 43.3534 289.478 43.3534C289.042 43.3534 288.605 43.6686 288.266 44.2506C288.12 45.172 289.526 45.3659 289.333 44.3475C289.333 44.2506 289.26 44.0081 289.502 44.1536C291.491 45.5599 289.187 47.7422 287.465 46.4328C287.32 47.1845 287.247 48.0089 287.247 48.9061C287.247 51.9855 288.241 54.4588 289.478 54.4588Z" fill="white"/>
<path d="M306.865 62.6545C304.731 61.7088 304.44 59.8902 304.392 56.3501C304.367 56.2046 304.367 56.0591 304.343 55.9136C303.761 57.1745 302.937 57.8777 301.894 57.9989C299.615 58.3141 297.554 57.0048 297.554 54.5558V47.9604C297.554 47.0875 297.239 46.6026 296.657 46.5541C296.414 46.5298 296.341 46.1419 296.657 46.1176C297.893 46.0691 298.79 46.2389 299.324 46.6511C299.785 46.9905 299.93 47.3785 300.003 47.9604V54.6043C300.003 59.2598 303.907 57.8049 304.295 54.7013V47.9604C304.295 47.0875 304.004 46.6026 303.397 46.5541C303.155 46.5298 303.082 46.1419 303.397 46.1419C304.658 46.0691 305.531 46.2389 306.065 46.6511C306.525 46.9905 306.671 47.3785 306.768 47.9604C306.768 49.682 306.283 60.4964 307.665 62.024C309.556 64.0123 311.617 61.2723 310.187 60.9086C309.847 60.8116 309.532 61.0784 309.435 61.4178C309.362 61.733 309.144 61.5391 309.071 61.3451C308.368 60.1085 309.459 59.0173 310.72 59.478C312.902 60.2297 311.06 64.4973 306.865 62.6545Z" fill="white"/>
<path d="M312.472 61.524C313.32 61.2573 314.024 60.2632 314.024 59.4145V52.019C313.975 51.3401 313.587 50.8551 312.884 50.5641C314.266 50.4671 315.624 50.0064 316.958 49.2063C316.448 50.2247 316.497 50.6611 316.497 51.728V52.1402C317.418 50.4914 318.776 48.7213 320.813 48.5516C324.499 48.2364 324.329 54.468 320.546 53.7891C319.285 53.5708 318.679 52.31 319.188 51.1703C319.382 50.7824 319.552 50.9036 319.722 51.1218C320.449 52.0432 321.492 51.7038 321.807 50.9036C322.147 50.1277 321.783 49.376 321.152 49.085C319.382 48.3091 316.497 52.5524 316.497 53.5708V59.366C316.497 60.2389 317.176 61.2573 318.049 61.524H312.472Z" fill="white"/>
<path d="M149.252 23H142.525V22.4496H144.462V11.3186H144.115C143.653 11.3186 143.259 11.407 142.933 11.5837C142.457 11.8555 142.07 12.4263 141.771 13.2961L141.139 15.1309H140.527L140.609 10.7682H151.169L151.25 15.1309H150.639L150.007 13.2961C149.912 13.0379 149.823 12.8136 149.742 12.6234C149.334 11.7535 148.641 11.3186 147.662 11.3186H147.316V22.4496H148.702C148.987 22.4768 149.171 22.6602 149.252 23ZM157.244 22.47C157.325 22.47 157.4 22.4768 157.468 22.4903C157.645 22.5175 157.733 22.6874 157.733 23H151.964V22.47C152.141 22.47 152.297 22.4564 152.433 22.4292C152.908 22.3476 153.146 22.0079 153.146 21.4099V14.7639H151.964V14.2339H155.531L155.674 16.1298C155.824 15.7493 156.041 15.3959 156.327 15.0697C156.965 14.4038 157.706 14.0708 158.549 14.0708C158.725 14.0708 158.895 14.0912 159.058 14.1319C159.724 14.3086 160.057 14.7367 160.057 15.4163C160.057 15.6066 160.016 15.79 159.935 15.9667C159.704 16.4832 159.317 16.7414 158.773 16.7414C158.61 16.7414 158.46 16.721 158.324 16.6802C158.039 16.5715 157.774 16.2997 157.529 15.8648C157.353 15.5522 157.19 15.3959 157.04 15.3959C156.959 15.3959 156.87 15.4163 156.775 15.4571C156.177 15.7696 155.83 16.6395 155.735 18.0665V22.47H157.244ZM165.195 22.47C165.276 22.47 165.351 22.4768 165.419 22.4903C165.596 22.5175 165.684 22.6874 165.684 23H160.669V22.47C160.846 22.47 161.002 22.4564 161.138 22.4292C161.613 22.3476 161.851 22.0079 161.851 21.4099V14.7639H160.669V14.2339H164.44V22.47H165.195ZM164.624 11.5633C164.624 11.8215 164.556 12.0661 164.42 12.2972C164.135 12.8 163.693 13.0515 163.095 13.0515C162.85 13.0515 162.612 12.9903 162.381 12.868C161.851 12.5962 161.586 12.1613 161.586 11.5633C161.586 11.305 161.647 11.0604 161.77 10.8294C162.069 10.2993 162.51 10.0343 163.095 10.0343C163.353 10.0343 163.598 10.1023 163.829 10.2382C164.359 10.5236 164.624 10.9653 164.624 11.5633ZM174.001 23.2039C172.914 23.1359 172.228 22.5175 171.942 21.3487C171.875 21.539 171.786 21.7225 171.677 21.8991C171.134 22.769 170.284 23.2039 169.129 23.2039C168.749 23.2039 168.402 23.1563 168.089 23.0612C167.029 22.7214 166.499 21.9467 166.499 20.7371C166.513 18.9567 168.266 18.0325 171.759 17.9646V16.6395C171.759 16.2453 171.732 15.9056 171.677 15.6201C171.542 14.8455 171.154 14.4581 170.515 14.4581C170.325 14.4581 170.155 14.4921 170.006 14.5601C169.775 14.696 169.584 15.0357 169.435 15.5794C169.381 15.7696 169.34 15.9056 169.313 15.9871C169.109 16.5579 168.715 16.8433 168.13 16.8433C167.994 16.8433 167.865 16.8229 167.743 16.7822C167.24 16.6463 166.989 16.3133 166.989 15.7832C166.989 15.5522 167.05 15.3347 167.172 15.1309C167.648 14.329 168.81 13.9281 170.658 13.9281C171.134 13.9281 171.576 13.9757 171.983 14.0708C173.56 14.4649 174.348 15.5114 174.348 17.2103V21.471C174.348 22.1234 174.498 22.4632 174.797 22.4903C175.191 22.4768 175.429 22.0011 175.51 21.0633L176.04 21.0837C175.999 21.505 175.938 21.8516 175.857 22.1234C175.612 22.8437 174.994 23.2039 174.001 23.2039ZM170.189 22.3273C170.284 22.3273 170.393 22.3069 170.515 22.2661C171.086 22.0486 171.501 21.4642 171.759 20.5129V18.5354C171.147 18.5626 170.645 18.6373 170.25 18.7596C169.516 19.0315 169.15 19.6159 169.15 20.5129C169.163 21.6953 169.51 22.3001 170.189 22.3273ZM180.688 22.47C180.77 22.47 180.844 22.4768 180.912 22.4903C181.089 22.5175 181.177 22.6874 181.177 23H176.55V22.47C176.659 22.47 176.76 22.4632 176.856 22.4496C177.44 22.3816 177.732 22.035 177.732 21.4099V14.7639H176.55V14.2339H180.179L180.28 15.7221C180.878 14.5397 181.83 13.9417 183.135 13.9281C183.352 13.9281 183.569 13.9553 183.787 14.0096C184.616 14.2543 185.194 14.8591 185.52 15.824C186.172 14.5737 187.157 13.9417 188.476 13.9281C188.951 13.9281 189.393 14.0572 189.801 14.3154C190.684 14.8727 191.126 15.8172 191.126 17.1491V22.47H191.799C191.88 22.47 191.962 22.4768 192.043 22.4903C192.22 22.5175 192.308 22.6874 192.308 23H187.66V22.47C187.878 22.47 188.048 22.4496 188.17 22.4088C188.428 22.3001 188.557 21.9671 188.557 21.4099V16.9045C188.557 16.5647 188.517 16.2521 188.435 15.9667C188.218 15.2736 187.817 14.927 187.232 14.927C187.096 14.927 186.96 14.9542 186.824 15.0086C186.186 15.2804 185.819 15.9803 185.724 17.1084V17.2511V22.47H186.07C186.152 22.47 186.233 22.4768 186.315 22.4903C186.492 22.5175 186.58 22.6874 186.58 23H182.258V22.47C182.475 22.47 182.645 22.4496 182.768 22.4088C183.026 22.3001 183.155 21.9671 183.155 21.4099V16.9045C183.155 16.5375 183.107 16.2046 183.012 15.9056C182.795 15.2804 182.435 14.9678 181.932 14.9678C181.755 14.9678 181.578 15.0154 181.402 15.1105C180.777 15.4367 180.423 16.1366 180.342 17.2103L180.321 22.47H180.688ZM196.793 11.3186V10.7682H202.909V11.3186H201.278V18.3519C201.278 19.1266 201.34 19.7926 201.462 20.3498C201.788 21.8448 202.637 22.5923 204.01 22.5923C206.185 22.5787 207.279 21.1652 207.292 18.3519V11.3186H205.661V10.7682H209.678V11.3186H208.047V18.2296C208.047 19.1946 207.938 20.0168 207.72 20.6963C207.15 22.368 205.77 23.2039 203.582 23.2039C200.171 23.1903 198.451 21.6273 198.424 18.515V11.3186H196.793ZM217.465 23L217.18 21.0837C217.112 21.2604 217.03 21.4303 216.935 21.5933C216.324 22.667 215.386 23.2039 214.122 23.2039C213.361 23.2039 212.668 22.9728 212.042 22.5107C210.942 21.7089 210.391 20.4653 210.391 18.78C210.391 17.4209 210.744 16.2929 211.451 15.3959C212.267 14.4038 213.32 13.9077 214.611 13.9077C215.576 13.9077 216.405 14.2067 217.098 14.8047V10.2789H215.243V9.74889H219.687V22.4496H220.625C220.72 22.4496 220.802 22.4564 220.87 22.47C221.033 22.5107 221.114 22.6874 221.114 23H217.465ZM213.184 18.5354C213.184 19.0518 213.218 19.5207 213.286 19.9421C213.517 21.4914 214.108 22.2661 215.06 22.2661C215.345 22.2661 215.61 22.1913 215.855 22.0418C216.711 21.4846 217.139 20.1867 217.139 18.1481C217.139 17.686 217.112 17.2511 217.057 16.8433C216.826 15.3347 216.222 14.5804 215.243 14.5804C214.971 14.5804 214.713 14.6484 214.468 14.7843C213.612 15.3008 213.184 16.5511 213.184 18.5354ZM224.825 18.5762C224.825 19.8537 224.906 20.7847 225.069 21.3691C225.314 22.2389 225.858 22.6738 226.7 22.6738C227.176 22.6738 227.563 22.5311 227.862 22.2457C228.379 21.7293 228.637 20.4789 228.637 18.4946C228.637 17.2579 228.555 16.3541 228.392 15.7832C228.148 14.8998 227.59 14.4581 226.721 14.4581C226.204 14.4581 225.803 14.6144 225.518 14.927C225.056 15.4571 224.825 16.6734 224.825 18.5762ZM226.822 13.9281C227.991 13.9281 228.99 14.2475 229.819 14.8862C230.893 15.7425 231.43 16.9317 231.43 18.4538C231.43 19.5955 231.09 20.6012 230.41 21.471C229.5 22.6263 228.243 23.2039 226.639 23.2039C225.47 23.2039 224.464 22.8505 223.622 22.1438C222.562 21.2468 222.032 20.0304 222.032 18.4946C222.032 17.4074 222.344 16.456 222.969 15.6405C223.866 14.4989 225.151 13.9281 226.822 13.9281ZM236.588 22.47C236.669 22.47 236.744 22.4768 236.812 22.4903C236.988 22.5175 237.077 22.6874 237.077 23H232.449V22.47C232.558 22.47 232.66 22.4632 232.755 22.4496C233.339 22.3816 233.631 22.035 233.631 21.4099V14.7639H232.449V14.2339H236.078L236.18 15.7221C236.778 14.5397 237.729 13.9417 239.034 13.9281C239.251 13.9281 239.469 13.9553 239.686 14.0096C240.515 14.2543 241.093 14.8591 241.419 15.824C242.071 14.5737 243.057 13.9417 244.375 13.9281C244.851 13.9281 245.292 14.0572 245.7 14.3154C246.584 14.8727 247.025 15.8172 247.025 17.1491V22.47H247.698C247.78 22.47 247.861 22.4768 247.943 22.4903C248.119 22.5175 248.208 22.6874 248.208 23H243.56V22.47C243.777 22.47 243.947 22.4496 244.069 22.4088C244.328 22.3001 244.457 21.9671 244.457 21.4099V16.9045C244.457 16.5647 244.416 16.2521 244.334 15.9667C244.117 15.2736 243.716 14.927 243.132 14.927C242.996 14.927 242.86 14.9542 242.724 15.0086C242.085 15.2804 241.718 15.9803 241.623 17.1084V17.2511V22.47H241.97C242.051 22.47 242.133 22.4768 242.214 22.4903C242.391 22.5175 242.479 22.6874 242.479 23H238.157V22.47C238.375 22.47 238.545 22.4496 238.667 22.4088C238.925 22.3001 239.054 21.9671 239.054 21.4099V16.9045C239.054 16.5375 239.007 16.2046 238.912 15.9056C238.694 15.2804 238.334 14.9678 237.831 14.9678C237.654 14.9678 237.478 15.0154 237.301 15.1105C236.676 15.4367 236.322 16.1366 236.241 17.2103L236.221 22.47H236.588ZM259.298 23.1019H258.87C258.557 23.1019 258.319 23.0476 258.156 22.9388C257.966 22.8029 257.701 22.3001 257.361 21.4303L253.325 11.3186H252.285V10.7682H257.789V11.3186H256.179L259.665 19.9421L262.743 11.3186H261.112V10.7682H264.578V11.3186H263.559L259.298 23.1019ZM269.756 14.4581C268.669 14.4989 268.078 15.6473 267.982 17.9034L269.287 17.9646C269.831 17.9918 270.239 17.9578 270.51 17.8626C270.891 17.7131 271.081 17.319 271.081 16.6802C271.068 15.226 270.626 14.4853 269.756 14.4581ZM273.568 20.9002C273.487 21.1177 273.378 21.3283 273.242 21.5322C272.549 22.6466 271.407 23.2039 269.817 23.2039C268.92 23.2039 268.118 23.0204 267.412 22.6534C265.93 21.8788 265.19 20.5061 265.19 18.5354C265.19 17.3258 265.516 16.3133 266.168 15.4978C267.024 14.4513 268.22 13.9281 269.756 13.9281C270.599 13.9281 271.353 14.0708 272.019 14.3562C273.201 14.8862 273.793 15.7289 273.793 16.8841C273.793 17.1151 273.752 17.3258 273.67 17.5161C273.317 18.2772 272.046 18.6237 269.858 18.5558L267.982 18.4946C267.996 19.2829 268.064 19.9624 268.186 20.5333C268.499 21.9195 269.199 22.6127 270.286 22.6127C270.626 22.6127 270.959 22.5515 271.285 22.4292C272.1 22.1302 272.698 21.5662 273.079 20.7371L273.568 20.9002ZM279.97 22.47C280.051 22.47 280.126 22.4768 280.194 22.4903C280.371 22.5175 280.459 22.6874 280.459 23H274.69V22.47C274.866 22.47 275.023 22.4564 275.158 22.4292C275.634 22.3476 275.872 22.0079 275.872 21.4099V14.7639H274.69V14.2339H278.257L278.4 16.1298C278.549 15.7493 278.767 15.3959 279.052 15.0697C279.691 14.4038 280.432 14.0708 281.274 14.0708C281.451 14.0708 281.621 14.0912 281.784 14.1319C282.45 14.3086 282.783 14.7367 282.783 15.4163C282.783 15.6066 282.742 15.79 282.661 15.9667C282.43 16.4832 282.042 16.7414 281.499 16.7414C281.335 16.7414 281.186 16.721 281.05 16.6802C280.765 16.5715 280.5 16.2997 280.255 15.8648C280.078 15.5522 279.915 15.3959 279.766 15.3959C279.684 15.3959 279.596 15.4163 279.501 15.4571C278.903 15.7696 278.556 16.6395 278.461 18.0665V22.47H279.97ZM286.269 21.6749C286.269 21.9195 286.215 22.1506 286.106 22.368C285.834 22.8573 285.406 23.1019 284.822 23.1019C284.591 23.1019 284.373 23.0476 284.169 22.9388C283.653 22.6806 283.395 22.2593 283.395 21.6749C283.395 21.4438 283.449 21.2196 283.558 21.0021C283.829 20.4857 284.251 20.2275 284.822 20.2275C285.053 20.2275 285.277 20.2818 285.494 20.3906C286.011 20.676 286.269 21.1041 286.269 21.6749Z" fill="white"/>
</svg>
