<svg width="362" height="491" viewBox="0 0 362 491" fill="none" xmlns="http://www.w3.org/2000/svg">
<ellipse cx="178.5" cy="467.5" rx="131.5" ry="23.3893" fill="url(#paint0_linear_694_409)"/>
<g filter="url(#filter0_d_694_409)">
<path d="M150.093 343H211.845C215.091 343 217.703 345.671 217.664 348.917C217.518 361.166 217.699 389.778 221.976 409.196C225.451 424.98 234.116 445.967 238.798 456.704C240.328 460.211 238.141 464.245 234.35 464.764C222.251 466.419 198.152 469.384 180.812 469.384C163.687 469.384 141.513 466.492 130.161 464.826C126.417 464.277 124.286 460.288 125.777 456.81C130.496 445.799 139.386 423.756 142.476 407.196C145.959 388.522 144.963 361.301 144.276 349.198C144.085 345.85 146.739 343 150.093 343Z" fill="url(#paint1_linear_694_409)"/>
<path d="M186.805 45.9329H192.546V65.2083C192.546 66.7938 191.261 68.0791 189.676 68.0791C188.09 68.0791 186.805 66.7938 186.805 65.2083V45.9329Z" fill="#FFB864"/>
<path d="M187.761 6.55402C188.168 4.88364 190.543 4.88364 190.949 6.55403L195.619 25.7542C195.809 26.5347 196.536 27.0629 197.337 27.0023L217.04 25.5102C218.755 25.3804 219.489 27.6396 218.026 28.5422L201.208 38.9164C200.524 39.3382 200.247 40.1929 200.552 40.9359L208.06 59.2139C208.713 60.8041 206.791 62.2003 205.481 61.0878L190.417 48.2993C189.805 47.7794 188.906 47.7794 188.294 48.2993L173.23 61.0878C171.92 62.2003 169.998 60.8041 170.651 59.2139L178.159 40.9359C178.464 40.1929 178.186 39.3382 177.503 38.9164L160.685 28.5422C159.222 27.6396 159.956 25.3804 161.671 25.5102L181.374 27.0023C182.175 27.0629 182.902 26.5347 183.092 25.7542L187.761 6.55402Z" fill="url(#paint2_radial_694_409)"/>
<path d="M159.312 203.094C171.867 176.957 211.258 176.421 224.056 202.441C235.765 226.248 249.129 251.834 261.605 272.04C278.66 299.661 303.685 332.824 324.478 359.117C332.221 368.91 319.198 386.072 307.229 382.525C297.324 379.589 287.268 377.391 278.197 376.822C240.739 374.47 222.228 397.728 184.685 397.662C147.439 397.596 129.172 375.49 91.9531 376.822C86.7743 377.007 81.2864 377.671 75.6716 378.679C62.76 380.998 48.1109 358.071 57.1416 348.557C80.6928 323.743 106.46 294.328 123.757 268.06C136.001 249.464 148.482 225.64 159.312 203.094Z" fill="#F4F4F4"/>
<path d="M159.312 203.094C171.867 176.957 211.258 176.421 224.056 202.441C235.765 226.248 249.129 251.834 261.605 272.04C278.66 299.661 303.685 332.824 324.478 359.117C332.221 368.91 319.198 386.072 307.229 382.525C297.324 379.589 287.268 377.391 278.197 376.822C240.739 374.47 222.228 397.728 184.685 397.662C147.439 397.596 129.172 375.49 91.9531 376.822C86.7743 377.007 81.2864 377.671 75.6716 378.679C62.76 380.998 48.1109 358.071 57.1416 348.557C80.6928 323.743 106.46 294.328 123.757 268.06C136.001 249.464 148.482 225.64 159.312 203.094Z" fill="url(#paint3_linear_694_409)"/>
<path d="M264.459 314.41C249.759 288.41 236.055 243.399 236.055 243.399C236.055 243.399 242.496 291.618 258.778 318.062C271.821 339.245 300.979 365.132 300.979 365.132C300.979 365.132 276.472 335.657 264.459 314.41Z" fill="#063523"/>
<path d="M121.5 311.262C136.2 285.262 149.904 240.252 149.904 240.252C149.904 240.252 143.463 288.471 127.181 314.914C114.138 336.097 84.9804 361.984 84.9804 361.984C84.9804 361.984 109.487 332.51 121.5 311.262Z" fill="#063523"/>
<path d="M153.384 338.569C168.084 312.569 181.788 267.558 181.788 267.558C181.788 267.558 175.347 315.777 159.065 342.221C146.022 363.404 116.864 389.291 116.864 389.291C116.864 389.291 141.371 359.816 153.384 338.569Z" fill="#063523"/>
<path d="M225.871 326.665C212.969 299.728 202.351 253.891 202.351 253.891C202.351 253.891 205.505 302.436 219.955 329.923C231.53 351.942 258.864 379.748 258.864 379.748C258.864 379.748 236.414 348.679 225.871 326.665Z" fill="#063523"/>
<g filter="url(#filter1_d_694_409)">
<path d="M323.592 390.783C352.651 373.869 314.734 320.688 294.485 330.728C279.368 338.222 294.086 358.38 278.789 365.171C266.367 370.686 242.175 347.227 233.104 356.014C228.283 360.684 230.13 365.906 225.336 370.594C218.891 376.896 210.081 376.342 199.97 375.224C184.048 373.463 175.59 360.453 160.574 355.721C142.533 350.035 97.8621 381.236 88.0462 367.722C80.5901 357.456 97.7561 336.096 68.1299 336.096C50.2949 336.096 22.8934 378.232 58.0161 392.36C85.129 403.266 135.476 390.023 135.476 390.023C135.476 390.023 173.972 407.2 200.112 405.994C222.793 404.947 236.735 401.721 253.332 385.766C253.332 385.766 266.248 394.021 287.717 397.055C301.912 399.062 312.005 397.529 323.592 390.783Z" fill="#D9D9D9"/>
<path d="M323.592 390.783C352.651 373.869 314.734 320.688 294.485 330.728C279.368 338.222 294.086 358.38 278.789 365.171C266.367 370.686 242.175 347.227 233.104 356.014C228.283 360.684 230.13 365.906 225.336 370.594C218.891 376.896 210.081 376.342 199.97 375.224C184.048 373.463 175.59 360.453 160.574 355.721C142.533 350.035 97.8621 381.236 88.0462 367.722C80.5901 357.456 97.7561 336.096 68.1299 336.096C50.2949 336.096 22.8934 378.232 58.0161 392.36C85.129 403.266 135.476 390.023 135.476 390.023C135.476 390.023 173.972 407.2 200.112 405.994C222.793 404.947 236.735 401.721 253.332 385.766C253.332 385.766 266.248 394.021 287.717 397.055C301.912 399.062 312.005 397.529 323.592 390.783Z" fill="url(#paint4_linear_694_409)"/>
</g>
<path d="M212.467 124.919C201.513 102.115 167.145 101.648 155.98 124.349C145.764 145.12 134.105 167.443 123.22 185.071C108.341 209.17 86.5067 238.103 68.3662 261.043C61.61 269.587 72.9722 284.56 83.4153 281.465C92.0568 278.904 100.83 276.986 108.744 276.49C141.425 274.438 157.575 294.73 190.329 294.672C222.825 294.614 238.762 275.328 271.235 276.49C275.753 276.651 280.541 277.231 285.439 278.11C296.704 280.133 309.485 260.13 301.606 251.829C281.059 230.181 258.578 204.517 243.487 181.599C232.804 165.375 221.915 144.589 212.467 124.919Z" fill="#F4F4F4"/>
<path d="M212.467 124.919C201.513 102.115 167.145 101.648 155.98 124.349C145.764 145.12 134.105 167.443 123.22 185.071C108.341 209.17 86.5067 238.103 68.3662 261.043C61.61 269.587 72.9722 284.56 83.4153 281.465C92.0568 278.904 100.83 276.986 108.744 276.49C141.425 274.438 157.575 294.73 190.329 294.672C222.825 294.614 238.762 275.328 271.235 276.49C275.753 276.651 280.541 277.231 285.439 278.11C296.704 280.133 309.485 260.13 301.606 251.829C281.059 230.181 258.578 204.517 243.487 181.599C232.804 165.375 221.915 144.589 212.467 124.919Z" fill="url(#paint5_linear_694_409)"/>
<path d="M212.467 124.919C201.513 102.115 167.145 101.648 155.98 124.349C145.764 145.12 134.105 167.443 123.22 185.071C108.341 209.17 86.5067 238.103 68.3662 261.043C61.61 269.587 72.9722 284.56 83.4153 281.465C92.0568 278.904 100.83 276.986 108.744 276.49C141.425 274.438 157.575 294.73 190.329 294.672C222.825 294.614 238.762 275.328 271.235 276.49C275.753 276.651 280.541 277.231 285.439 278.11C296.704 280.133 309.485 260.13 301.606 251.829C281.059 230.181 258.578 204.517 243.487 181.599C232.804 165.375 221.915 144.589 212.467 124.919Z" fill="url(#paint6_linear_694_409)"/>
<path d="M119.99 228.766C132.815 206.082 144.771 166.812 144.771 166.812C144.771 166.812 139.152 208.882 124.946 231.952C113.567 250.434 88.1279 273.019 88.1279 273.019C88.1279 273.019 109.509 247.304 119.99 228.766Z" fill="#063523"/>
<path d="M243.001 221.422C230.176 198.738 218.22 159.468 218.22 159.468C218.22 159.468 223.84 201.538 238.045 224.608C249.424 243.09 274.863 265.675 274.863 265.675C274.863 265.675 253.482 239.96 243.001 221.422Z" fill="#063523"/>
<path d="M211.528 247.651C198.703 224.967 186.746 185.697 186.746 185.697C186.746 185.697 192.366 227.766 206.571 250.837C217.951 269.318 236.055 283.266 236.055 283.266C236.055 283.266 222.008 266.188 211.528 247.651Z" fill="#063523"/>
<path d="M155.284 240.439C166.654 218.605 176.114 181.5 176.114 181.5C176.114 181.5 173.152 220.762 160.429 243.048C150.238 260.9 126.277 283.499 126.277 283.499C126.277 283.499 145.993 258.283 155.284 240.439Z" fill="#063523"/>
<g filter="url(#filter2_d_694_409)">
<path d="M72.0034 286.509C47.7456 273.083 79.4965 230.705 96.4022 238.669C109.023 244.615 96.6993 260.679 109.472 266.065C119.843 270.438 140.087 251.734 147.655 258.716C151.677 262.427 150.127 266.586 154.126 270.311C159.503 275.319 166.864 274.867 175.315 273.963C188.62 272.541 195.704 262.174 208.257 258.388C223.338 253.839 270.821 277.797 279.04 267.027C285.283 258.846 261.593 232.493 288.476 232.493C318.365 232.494 323.264 276.127 293.899 287.418C271.231 296.134 229.182 285.658 229.182 285.658C229.182 285.658 196.995 299.381 175.156 298.455C156.207 297.651 144.561 295.102 130.715 282.424C130.715 282.424 119.912 289.011 101.97 291.455C90.107 293.07 81.6766 291.863 72.0034 286.509Z" fill="#D9D9D9"/>
<path d="M72.0034 286.509C47.7456 273.083 79.4965 230.705 96.4022 238.669C109.023 244.615 96.6993 260.679 109.472 266.065C119.843 270.438 140.087 251.734 147.655 258.716C151.677 262.427 150.127 266.586 154.126 270.311C159.503 275.319 166.864 274.867 175.315 273.963C188.62 272.541 195.704 262.174 208.257 258.388C223.338 253.839 270.821 277.797 279.04 267.027C285.283 258.846 261.593 232.493 288.476 232.493C318.365 232.494 323.264 276.127 293.899 287.418C271.231 296.134 229.182 285.658 229.182 285.658C229.182 285.658 196.995 299.381 175.156 298.455C156.207 297.651 144.561 295.102 130.715 282.424C130.715 282.424 119.912 289.011 101.97 291.455C90.107 293.07 81.6766 291.863 72.0034 286.509Z" fill="url(#paint7_linear_694_409)"/>
</g>
<path d="M168.022 75.8841C176.137 58.9896 201.599 58.6434 209.87 75.4617C217.439 90.8505 226.077 107.389 234.141 120.449C245.165 138.303 261.341 159.739 274.781 176.734C279.786 183.064 271.368 194.157 263.631 191.864C257.229 189.967 250.73 188.546 244.866 188.178C220.654 186.658 208.689 201.691 184.422 201.648C160.347 201.606 148.54 187.317 124.482 188.178C121.135 188.298 117.588 188.727 113.958 189.378C105.613 190.877 96.1437 176.058 101.981 169.908C117.204 153.869 133.859 134.856 145.039 117.877C152.954 105.857 161.021 90.4573 168.022 75.8841Z" fill="#F4F4F4"/>
<path d="M168.022 75.8841C176.137 58.9896 201.599 58.6434 209.87 75.4617C217.439 90.8505 226.077 107.389 234.141 120.449C245.165 138.303 261.341 159.739 274.781 176.734C279.786 183.064 271.368 194.157 263.631 191.864C257.229 189.967 250.73 188.546 244.866 188.178C220.654 186.658 208.689 201.691 184.422 201.648C160.347 201.606 148.54 187.317 124.482 188.178C121.135 188.298 117.588 188.727 113.958 189.378C105.613 190.877 96.1437 176.058 101.981 169.908C117.204 153.869 133.859 134.856 145.039 117.877C152.954 105.857 161.021 90.4573 168.022 75.8841Z" fill="url(#paint8_linear_694_409)"/>
<path d="M168.022 75.8841C176.137 58.9896 201.599 58.6434 209.87 75.4617C217.439 90.8505 226.077 107.389 234.141 120.449C245.165 138.303 261.341 159.739 274.781 176.734C279.786 183.064 271.368 194.157 263.631 191.864C257.229 189.967 250.73 188.546 244.866 188.178C220.654 186.658 208.689 201.691 184.422 201.648C160.347 201.606 148.54 187.317 124.482 188.178C121.135 188.298 117.588 188.727 113.958 189.378C105.613 190.877 96.1437 176.058 101.981 169.908C117.204 153.869 133.859 134.856 145.039 117.877C152.954 105.857 161.021 90.4573 168.022 75.8841Z" fill="url(#paint9_linear_694_409)"/>
<path d="M221.891 130.929C212.39 114.123 203.531 85.0291 203.531 85.0291C203.531 85.0291 207.695 116.197 218.219 133.289C226.65 146.981 245.497 163.714 245.497 163.714C245.497 163.714 229.656 144.663 221.891 130.929Z" fill="#063523"/>
<path d="M154.748 129.879C164.249 113.074 173.107 83.9799 173.107 83.9799C173.107 83.9799 168.944 115.148 158.42 132.24C149.989 145.932 131.142 162.665 131.142 162.665C131.142 162.665 146.983 143.613 154.748 129.879Z" fill="#063523"/>
<path d="M164.189 163.452C173.691 146.646 182.549 117.552 182.549 117.552C182.549 117.552 178.385 148.72 167.861 165.812C159.43 179.504 140.583 196.237 140.583 196.237C140.583 196.237 156.424 177.185 164.189 163.452Z" fill="#063523"/>
<path d="M209.387 150.953C201.048 133.541 194.185 103.913 194.185 103.913C194.185 103.913 196.224 135.292 205.564 153.059C213.046 167.292 230.714 185.265 230.714 185.265C230.714 185.265 216.202 165.182 209.387 150.953Z" fill="#063523"/>
<g filter="url(#filter3_d_694_409)">
<path d="M271.961 198.191C290.117 186.091 266.643 148.421 253.997 155.611C244.556 160.979 253.669 175.257 244.117 180.125C236.361 184.079 221.355 167.483 215.677 173.751C212.66 177.082 213.795 180.787 210.795 184.131C206.761 188.626 201.273 188.258 194.976 187.493C185.06 186.288 179.827 177.07 170.484 173.751C159.259 169.764 136.285 190.279 130.207 180.706C125.591 173.435 142.873 155.043 123.337 149.93C86.3867 140.26 84.6299 190.139 106.475 200.074C123.337 207.744 154.747 198.191 154.747 198.191C154.747 198.191 178.685 210.284 194.976 209.351C209.111 208.542 217.809 206.211 228.196 194.828C228.196 194.828 236.22 200.656 249.589 202.75C258.428 204.135 264.721 203.016 271.961 198.191Z" fill="url(#paint10_linear_694_409)"/>
</g>
</g>
<defs>
<filter id="filter0_d_694_409" x="37.0234" y="1.30127" width="301.14" height="472.082" filterUnits="userSpaceOnUse" color-interpolation-filters="sRGB">
<feFlood flood-opacity="0" result="BackgroundImageFix"/>
<feColorMatrix in="SourceAlpha" type="matrix" values="0 0 0 0 0 0 0 0 0 0 0 0 0 0 0 0 0 0 127 0" result="hardAlpha"/>
<feOffset/>
<feGaussianBlur stdDeviation="2"/>
<feComposite in2="hardAlpha" operator="out"/>
<feColorMatrix type="matrix" values="0 0 0 0 0 0 0 0 0 0 0 0 0 0 0 0 0 0 0.25 0"/>
<feBlend mode="normal" in2="BackgroundImageFix" result="effect1_dropShadow_694_409"/>
<feBlend mode="normal" in="SourceGraphic" in2="effect1_dropShadow_694_409" result="shape"/>
</filter>
<filter id="filter1_d_694_409" x="41.0234" y="329.477" width="293.14" height="77.5776" filterUnits="userSpaceOnUse" color-interpolation-filters="sRGB">
<feFlood flood-opacity="0" result="BackgroundImageFix"/>
<feColorMatrix in="SourceAlpha" type="matrix" values="0 0 0 0 0 0 0 0 0 0 0 0 0 0 0 0 0 0 127 0" result="hardAlpha"/>
<feOffset dy="1"/>
<feComposite in2="hardAlpha" operator="out"/>
<feColorMatrix type="matrix" values="0 0 0 0 0 0 0 0 0 0 0 0 0 0 0 0 0 0 0.25 0"/>
<feBlend mode="normal" in2="BackgroundImageFix" result="effect1_dropShadow_694_409"/>
<feBlend mode="normal" in="SourceGraphic" in2="effect1_dropShadow_694_409" result="shape"/>
</filter>
<filter id="filter2_d_694_409" x="63.1953" y="232.493" width="250.38" height="67.0065" filterUnits="userSpaceOnUse" color-interpolation-filters="sRGB">
<feFlood flood-opacity="0" result="BackgroundImageFix"/>
<feColorMatrix in="SourceAlpha" type="matrix" values="0 0 0 0 0 0 0 0 0 0 0 0 0 0 0 0 0 0 127 0" result="hardAlpha"/>
<feOffset dy="1"/>
<feComposite in2="hardAlpha" operator="out"/>
<feColorMatrix type="matrix" values="0 0 0 0 0 0 0 0 0 0 0 0 0 0 0 0 0 0 0.25 0"/>
<feBlend mode="normal" in2="BackgroundImageFix" result="effect1_dropShadow_694_409"/>
<feBlend mode="normal" in="SourceGraphic" in2="effect1_dropShadow_694_409" result="shape"/>
</filter>
<filter id="filter3_d_694_409" x="92.2988" y="148.693" width="186.304" height="61.7098" filterUnits="userSpaceOnUse" color-interpolation-filters="sRGB">
<feFlood flood-opacity="0" result="BackgroundImageFix"/>
<feColorMatrix in="SourceAlpha" type="matrix" values="0 0 0 0 0 0 0 0 0 0 0 0 0 0 0 0 0 0 127 0" result="hardAlpha"/>
<feOffset dy="1"/>
<feComposite in2="hardAlpha" operator="out"/>
<feColorMatrix type="matrix" values="0 0 0 0 0 0 0 0 0 0 0 0 0 0 0 0 0 0 0.25 0"/>
<feBlend mode="normal" in2="BackgroundImageFix" result="effect1_dropShadow_694_409"/>
<feBlend mode="normal" in="SourceGraphic" in2="effect1_dropShadow_694_409" result="shape"/>
</filter>
<linearGradient id="paint0_linear_694_409" x1="47" y1="467.5" x2="310" y2="467.5" gradientUnits="userSpaceOnUse">
<stop stop-color="#E7E7E7"/>
<stop offset="1" stop-color="white"/>
</linearGradient>
<linearGradient id="paint1_linear_694_409" x1="182.333" y1="351.393" x2="182.333" y2="468.896" gradientUnits="userSpaceOnUse">
<stop stop-color="#984E3B"/>
<stop offset="0.55001" stop-color="#563128"/>
<stop offset="1" stop-color="#301F1B"/>
</linearGradient>
<radialGradient id="paint2_radial_694_409" cx="0" cy="0" r="1" gradientUnits="userSpaceOnUse" gradientTransform="translate(189.355 36.1816) rotate(90) scale(27.291)">
<stop stop-color="#FFF3B5"/>
<stop offset="1" stop-color="#FFB863"/>
</radialGradient>
<linearGradient id="paint3_linear_694_409" x1="181.5" y1="260.185" x2="181.5" y2="389.753" gradientUnits="userSpaceOnUse">
<stop stop-color="#007F4E"/>
<stop offset="0.547622" stop-color="#0E4D35"/>
<stop offset="1" stop-color="#00321E"/>
</linearGradient>
<linearGradient id="paint4_linear_694_409" x1="176.141" y1="324.94" x2="184.338" y2="408.887" gradientUnits="userSpaceOnUse">
<stop stop-color="white"/>
<stop offset="1" stop-color="#D1F9FF"/>
</linearGradient>
<linearGradient id="paint5_linear_694_409" x1="193.566" y1="215.576" x2="193.566" y2="295.332" gradientUnits="userSpaceOnUse">
<stop stop-color="#0E4D35"/>
<stop offset="1" stop-color="#00321E"/>
</linearGradient>
<linearGradient id="paint6_linear_694_409" x1="193.108" y1="174.729" x2="193.108" y2="287.772" gradientUnits="userSpaceOnUse">
<stop stop-color="#007F4E"/>
<stop offset="0.547622" stop-color="#0E4D35"/>
<stop offset="1" stop-color="#00321E"/>
</linearGradient>
<linearGradient id="paint7_linear_694_409" x1="193.653" y1="232.473" x2="187.095" y2="300.869" gradientUnits="userSpaceOnUse">
<stop stop-color="white"/>
<stop offset="1" stop-color="#D1F9FF"/>
</linearGradient>
<linearGradient id="paint8_linear_694_409" x1="182.025" y1="143.049" x2="182.025" y2="202.138" gradientUnits="userSpaceOnUse">
<stop stop-color="#0E4D35"/>
<stop offset="1" stop-color="#00321E"/>
</linearGradient>
<linearGradient id="paint9_linear_694_409" x1="182.364" y1="59.8006" x2="182.364" y2="196.536" gradientUnits="userSpaceOnUse">
<stop stop-color="#007F4E"/>
<stop offset="0.569139" stop-color="#0E4D35"/>
<stop offset="1" stop-color="#00321E"/>
</linearGradient>
<linearGradient id="paint10_linear_694_409" x1="181.5" y1="150.551" x2="188.851" y2="211.225" gradientUnits="userSpaceOnUse">
<stop stop-color="white"/>
<stop offset="1" stop-color="#D1F9FF"/>
</linearGradient>
</defs>
</svg>
