<svg width="19" height="19" viewBox="0 0 19 19" fill="none" xmlns="http://www.w3.org/2000/svg">
<path d="M5.54199 11.3469C5.54199 11.9068 5.76444 12.4439 6.1604 12.8398C6.55636 13.2358 7.0934 13.4583 7.65337 13.4583H14.514C14.7912 13.4583 15.0658 13.4036 15.3219 13.2975C15.5781 13.1914 15.8109 13.0359 16.0069 12.8398C16.203 12.6438 16.3585 12.411 16.4646 12.1549C16.5707 11.8987 16.6253 11.6241 16.6253 11.3469V4.48629C16.6253 4.20902 16.5707 3.93447 16.4646 3.67831C16.3585 3.42214 16.203 3.18939 16.0069 2.99333C15.8109 2.79727 15.5781 2.64174 15.3219 2.53564C15.0658 2.42953 14.7912 2.37492 14.514 2.37492H7.65337C7.3761 2.37492 7.10154 2.42953 6.84538 2.53564C6.58922 2.64174 6.35646 2.79727 6.1604 2.99333C5.96434 3.18939 5.80882 3.42214 5.70271 3.67831C5.5966 3.93447 5.54199 4.20902 5.54199 4.48629V11.3469Z" stroke="#B02A32" stroke-width="1.58333" stroke-linecap="round" stroke-linejoin="round"/>
<path d="M3.17617 5.74988C2.93312 5.88796 2.73097 6.08793 2.59025 6.32946C2.44954 6.57099 2.37527 6.84547 2.375 7.125V15.0417C2.375 15.9125 3.0875 16.625 3.95833 16.625H11.875C12.4688 16.625 12.7918 16.3202 13.0625 15.8333" stroke="#B02A32" stroke-width="1.58333" stroke-linecap="round" stroke-linejoin="round"/>
</svg>
